<?xml version="1.0" encoding="UTF-8"?>
<svg version="1.1" xmlns="http://www.w3.org/2000/svg" width="512" height="512">
<path d="M0 0 C12.64130408 12.4752832 24.92640502 28.79012334 30.08203125 46.0546875 C30.08203125 47.0446875 30.08203125 48.0346875 30.08203125 49.0546875 C31.38914062 48.34892578 31.38914062 48.34892578 32.72265625 47.62890625 C43.18939637 42.10413599 53.95632155 37.51181046 66.08203125 39.0546875 C71.57117028 40.84921372 75.12985191 44.17861601 78.08203125 49.0546875 C84.05578182 62.25593876 84.11423585 79.28067659 80.08203125 93.0546875 C80.67628906 93.08046875 81.27054687 93.10625 81.8828125 93.1328125 C95.60079345 94.07152348 106.56866642 99.89104632 115.95703125 109.9296875 C123.73155323 119.48974563 127.19268514 130.83867787 127.08203125 143.0546875 C127.97437469 143.04802567 128.86671814 143.04136383 129.78610229 143.03450012 C138.230025 142.97418015 146.67387446 142.92860742 155.11796379 142.89925098 C159.45829396 142.88365075 163.79844485 142.8625167 168.13867188 142.82836914 C172.33378974 142.79557295 176.52873606 142.77779214 180.72397232 142.77005577 C182.31781842 142.76454838 183.91165602 142.75379457 185.50542831 142.73749733 C198.0060554 142.61485204 209.30903305 143.38567613 219.08203125 152.0546875 C226.18912698 160.39603077 228.37895354 167.49845302 228.40429688 178.27587891 C228.41422668 179.29135803 228.42415649 180.30683716 228.43438721 181.35308838 C228.46353447 184.70417014 228.47721965 188.05506243 228.48828125 191.40625 C228.49979392 193.74547324 228.51130926 196.08469646 228.52282715 198.42391968 C228.54382112 203.32803218 228.55552283 208.23207938 228.5625 213.13623047 C228.57345139 219.39718025 228.62147709 225.65725617 228.67844391 231.91793251 C228.71583639 236.75147966 228.72611531 241.58481947 228.72917175 246.41849899 C228.7351966 248.72523133 228.75115786 251.03196125 228.77754211 253.33855057 C229.03261791 277.3564642 229.03261791 277.3564642 222.08203125 286.0546875 C217.64202744 290.27944224 212.46858548 295.0546875 206.08203125 295.0546875 C206.08571842 295.88737152 206.08940559 296.72005554 206.0932045 297.57797241 C206.18159214 317.85123294 206.24775871 338.12446019 206.28927994 358.39787292 C206.30989368 368.20200526 206.3379916 378.00600888 206.38378906 387.81005859 C206.42369317 396.3565759 206.4494727 404.90299997 206.45838523 413.44960785 C206.46359392 417.97382654 206.47581148 422.49777852 206.50495148 427.02191162 C206.53217709 431.28350364 206.54046187 435.54472003 206.53446198 439.80639076 C206.53555903 441.36723181 206.54347044 442.92808591 206.55885315 444.48885155 C206.69637649 459.16688981 206.69637649 459.16688981 202.08203125 466.0546875 C200.15234375 467.89453125 200.15234375 467.89453125 198.20703125 468.9921875 C197.57023437 469.37246094 196.9334375 469.75273437 196.27734375 470.14453125 C191.24929154 472.22911517 185.9903458 472.18042432 180.61938667 472.18332195 C179.88548295 472.18507499 179.15157922 472.18682803 178.39543599 472.18863419 C175.93492057 472.19328807 173.4744644 472.19083026 171.01394653 472.18840027 C169.2325555 472.19026854 167.45116487 472.19256931 165.66977489 472.19526559 C160.77329134 472.20138787 155.87682484 472.20124949 150.98033834 472.20007122 C145.70007517 472.19986732 140.4198175 472.20538488 135.13955688 472.21012878 C124.79441321 472.21843805 114.44927523 472.22118374 104.10412849 472.22174116 C95.69663451 472.22221616 87.28914241 472.22427007 78.88164902 472.22744179 C55.05180999 472.23624882 31.22197547 472.24086104 7.3921348 472.24011131 C6.10724692 472.24007136 4.82235904 472.2400314 3.49853516 472.23999023 C1.56885402 472.23992891 1.56885402 472.23992891 -0.39981057 472.23986635 C-21.2550467 472.23945978 -42.11026478 472.24903196 -62.96549569 472.2631286 C-84.37268047 472.27748432 -105.77985645 472.28439924 -127.18704617 472.28353482 C-139.20833226 472.2832026 -151.22959943 472.28596108 -163.2508812 472.29671288 C-173.48472478 472.30580726 -183.71854086 472.30800184 -193.95238672 472.30120345 C-199.1745759 472.29793299 -204.39671229 472.29790056 -209.61889648 472.3065567 C-214.39936729 472.31439926 -219.17974322 472.31301327 -223.96021165 472.30427257 C-225.68963872 472.30273264 -227.41907279 472.30457225 -229.14849161 472.31013265 C-231.50032302 472.31719343 -233.85182171 472.31189864 -236.20364189 472.30357647 C-237.50966515 472.30379384 -238.81568842 472.30401121 -240.16128814 472.30423516 C-246.84438376 471.86029248 -252.73364668 470.53205656 -257.91796875 466.0546875 C-261.23883598 461.3209047 -262.79817753 456.88607067 -261.91796875 451.0546875 C-260.16796875 448.1171875 -260.16796875 448.1171875 -257.91796875 446.0546875 C-256.59796875 446.0546875 -255.27796875 446.0546875 -253.91796875 446.0546875 C-253.91796875 440.1146875 -253.91796875 434.1746875 -253.91796875 428.0546875 C-255.56796875 427.7246875 -257.21796875 427.3946875 -258.91796875 427.0546875 C-261.12455779 424.92357672 -261.83691611 423.60168219 -262.28711224 420.56347275 C-262.28296417 419.15312948 -262.28296417 419.15312948 -262.2787323 417.71429443 C-262.28285629 416.63178406 -262.28698029 415.54927368 -262.29122925 414.43395996 C-262.28044342 413.25144653 -262.26965759 412.06893311 -262.25854492 410.85058594 C-262.25920204 408.97702423 -262.25920204 408.97702423 -262.25987244 407.06561279 C-262.25814088 403.64425794 -262.24309899 400.22344658 -262.22215056 396.80218792 C-262.20339277 393.22542104 -262.20163404 389.64864686 -262.19807434 386.07183838 C-262.18875122 379.30036886 -262.16413389 372.52904469 -262.13402587 365.75763917 C-262.10049013 358.04791919 -262.08399794 350.33819226 -262.06893957 342.62841749 C-262.03758451 326.77042332 -261.9848189 310.91257416 -261.91796875 295.0546875 C-263.0927478 294.83643311 -263.0927478 294.83643311 -264.29125977 294.61376953 C-270.64254986 293.26192881 -275.40686839 288.95413404 -279.59375 284.19140625 C-283.76671777 277.45803348 -284.35868641 271.28234185 -284.32202148 263.55883789 C-284.32888474 262.53824783 -284.33574799 261.51765778 -284.34281921 260.46614075 C-284.3610361 257.11139796 -284.35725695 253.75712511 -284.3515625 250.40234375 C-284.35612665 248.05879058 -284.36143292 245.71523874 -284.3674469 243.37168884 C-284.37636793 238.46689405 -284.37396613 233.56226217 -284.36401367 228.6574707 C-284.35252403 222.38524282 -284.37274121 216.11357794 -284.40193081 209.84142399 C-284.42031352 205.00370233 -284.41999619 200.16611507 -284.41429329 195.32836723 C-284.41414034 193.0164047 -284.42016297 190.70443291 -284.43258476 188.39250374 C-284.447532 185.15462464 -284.43678946 181.91777933 -284.41967773 178.67993164 C-284.4293457 177.7336792 -284.43901367 176.78742676 -284.44897461 175.8125 C-284.34418186 166.29975458 -280.62165388 157.85864143 -273.91796875 151.0546875 C-266.01089316 145.07131319 -258.15767326 142.79343853 -248.30859375 142.82763672 C-247.23882545 142.82719864 -247.23882545 142.82719864 -246.14744568 142.82675171 C-243.82082386 142.82813049 -241.49453371 142.84362208 -239.16796875 142.859375 C-237.54272639 142.86311031 -235.91748176 142.86595483 -234.29223633 142.86795044 C-230.0376349 142.87554613 -225.78317243 142.8951592 -221.52862549 142.9173584 C-217.17795694 142.93790489 -212.8272657 142.9469709 -208.4765625 142.95703125 C-199.95696785 142.97840935 -191.43748564 143.01249557 -182.91796875 143.0546875 C-182.86390869 142.18150879 -182.80984863 141.30833008 -182.75415039 140.40869141 C-182.67543701 139.25288574 -182.59672363 138.09708008 -182.515625 136.90625 C-182.44093994 135.76494629 -182.36625488 134.62364258 -182.28930664 133.44775391 C-180.93338687 121.05815961 -173.58244197 110.31101008 -164.03515625 102.546875 C-155.82719769 96.76193003 -146.02076381 93.0546875 -135.91796875 93.0546875 C-136.24023438 91.95382813 -136.5625 90.85296875 -136.89453125 89.71875 C-140.03352179 77.07945181 -139.44333209 60.91321584 -133.91796875 49.0546875 C-131.34720008 45.07060525 -128.57968101 42.13255491 -124.60546875 39.5546875 C-110.86546328 36.99840741 -97.50462083 41.82808537 -85.91796875 49.0546875 C-85.78068359 47.80558594 -85.78068359 47.80558594 -85.640625 46.53125 C-84.79888812 42.48181313 -83.23093119 39.07821009 -81.35546875 35.4296875 C-80.81974243 34.3785376 -80.81974243 34.3785376 -80.27319336 33.30615234 C-74.78228882 22.73866026 -68.15957803 13.64768322 -59.91796875 5.0546875 C-58.71140625 3.78625 -58.71140625 3.78625 -57.48046875 2.4921875 C-56.63484375 1.6878125 -55.78921875 0.8834375 -54.91796875 0.0546875 C-54.18964844 -0.656875 -53.46132812 -1.3684375 -52.7109375 -2.1015625 C-35.34178891 -18.53688589 -16.90059098 -15.68706344 0 0 Z " fill="#020101" transform="translate(283.91796875,26.9453125)"/>
<path d="M0 0 C5.94 0 11.88 0 18 0 C18.66 1.98 19.32 3.96 20 6 C22.76598433 6.92199478 24.41591975 7.12839053 27.26863098 7.13803101 C28.13915604 7.14348434 29.00968109 7.14893768 29.90658569 7.15455627 C31.33498276 7.15611977 31.33498276 7.15611977 32.79223633 7.15771484 C34.29999382 7.16533592 34.29999382 7.16533592 35.83821106 7.17311096 C38.02352334 7.1838194 40.20884662 7.19243772 42.39417458 7.19923019 C45.85322951 7.21100969 49.31215906 7.2304603 52.77116394 7.25234985 C62.60692169 7.31399739 72.44266686 7.36801642 82.27856445 7.40136719 C88.29270357 7.42230989 94.30661459 7.45761089 100.3206234 7.50212479 C102.61270144 7.51628881 104.90481985 7.52500812 107.19693947 7.52817917 C110.40472917 7.53308662 113.61191336 7.55624136 116.81958008 7.58349609 C118.2388681 7.57898689 118.2388681 7.57898689 119.68682861 7.5743866 C125.75690656 7.65099238 130.26436386 8.42494628 134.86328125 12.75390625 C135.34152344 13.35074219 135.81976563 13.94757813 136.3125 14.5625 C136.80363281 15.16191406 137.29476563 15.76132813 137.80078125 16.37890625 C140.7367454 20.34771773 140.16294503 24.45948737 140.17700195 29.20385742 C140.18357315 30.15850891 140.19014435 31.1131604 140.19691467 32.09674072 C140.21667697 35.26631748 140.22831785 38.43584675 140.23828125 41.60546875 C140.24235678 42.68712122 140.2464323 43.76877369 140.25063133 44.88320351 C140.27150627 50.61004064 140.28580087 56.33685373 140.29516602 62.0637207 C140.30622313 67.97755495 140.34061122 73.89101217 140.38033772 79.80471325 C140.40649555 84.35238846 140.41485722 88.89997384 140.41844749 93.44771767 C140.42331692 95.62737888 140.43494097 97.807036 140.45348549 99.98662376 C140.47785474 103.04110839 140.47691548 106.09461767 140.4699707 109.14916992 C140.48918579 110.49529106 140.48918579 110.49529106 140.50878906 111.86860657 C140.46017826 117.74723592 139.38808643 121.16409419 136 126 C132.52659093 128.85750561 128.78366533 129.89190823 124.375 130.5 C119.10844252 129.71976926 116.19804119 127.32755916 112.6875 123.4375 C110.11222515 119.71765855 109.8736061 116.90606962 109.8581543 112.49389648 C109.85111984 111.36519638 109.84408539 110.23649628 109.83683777 109.07359314 C109.83267349 107.85176834 109.82850922 106.62994354 109.82421875 105.37109375 C109.80101043 102.78319508 109.77689269 100.19530444 109.75195312 97.60742188 C109.71567421 93.52823952 109.6858555 89.44920502 109.67407227 85.36987305 C109.66195599 81.43250205 109.61826563 77.49573999 109.57421875 73.55859375 C109.57708138 71.74711098 109.57708138 71.74711098 109.58000183 69.89903259 C109.44450901 60.44411633 107.64711628 51.68091718 100.94140625 44.60546875 C93.72760722 38.63993273 86.35416334 36.09905164 77.03515625 36.62109375 C67.98312345 37.7511416 62.11318563 41.12726024 56 48 C52.61200251 53.16132951 50.87882133 58.27084831 50.86869812 64.45135498 C50.86468994 65.33719269 50.86068176 66.2230304 50.85655212 67.13571167 C50.85708084 68.09994049 50.85760956 69.06416931 50.8581543 70.05761719 C50.85467987 71.07922943 50.85120544 72.10084167 50.84762573 73.15341187 C50.8402749 75.37199103 50.83492593 77.59057752 50.83133507 79.80916595 C50.82416451 83.32346039 50.8084931 86.83761562 50.78999329 90.35186768 C50.73755318 100.343934 50.68955355 110.33592403 50.67407227 120.328125 C50.66398089 126.44072747 50.63462659 132.5529795 50.59275246 138.66544342 C50.58045433 140.99215289 50.57531902 143.31891187 50.57755089 145.64565277 C50.57990847 148.90574937 50.55770126 152.16484373 50.5300293 155.42480469 C50.53663071 156.38093658 50.54323212 157.33706848 50.55003357 158.32217407 C50.46625827 164.35027363 49.45768875 168.97759496 46 174 C41.77205695 177.92594712 39.00546788 179.37952301 33.16015625 179.2734375 C29.4904447 178.80891705 26.77319561 177.4283058 24 175 C22.33281795 172.731622 21.23306019 170.56097116 20 168 C19.67 167.34 19.34 166.68 19 166 C18.90572582 164.17382456 18.87485925 162.34423203 18.87402344 160.515625 C18.87021667 159.36682861 18.86640991 158.21803223 18.86248779 157.03442383 C18.86146057 155.78556396 18.86043335 154.5367041 18.859375 153.25 C18.84573786 151.28908368 18.83207023 149.32816705 18.81666946 147.36726379 C18.77875226 142.52882851 18.7473698 137.69065164 18.74951172 132.85205078 C18.7501501 130.14230811 18.73755 127.433241 18.71051025 124.72363281 C18.68533339 122.17492258 18.67868026 119.6259411 18.69329834 117.07714844 C18.56673261 108.02529193 16.6504158 101.3975386 10.82421875 94.37890625 C2.80048039 87.55799521 -3.12488662 85.3694993 -13.75 85.65234375 C-21.68708946 86.50138337 -28.79576193 89.87736698 -34 96 C-38.38720848 102.26402519 -39.84781735 108.93203332 -40.83691406 116.37841797 C-41.51663884 120.99895516 -42.70677683 123.6824726 -46 127 C-50.77558693 129.613057 -54.57306146 130.69070127 -60 130 C-65.69282927 127.32102152 -67.75616972 123.60382229 -70 118 C-71.15997327 114.52008018 -71.1099689 111.79936973 -71.10546875 108.12890625 C-71.1189456 106.73501076 -71.13397248 105.34112957 -71.15039062 103.94726562 C-71.17301808 101.7684609 -71.18766653 99.591257 -71.17504883 97.41235352 C-71.12968943 86.72102073 -72.39836263 77.40579785 -79.74145508 69.00854492 C-81.39871282 67.41721694 -83.05069552 66.21379372 -85 65 C-85.65613281 64.59007812 -86.31226563 64.18015625 -86.98828125 63.7578125 C-93.95764371 60.0629037 -101.76612502 59.81513254 -109.3984375 61.54296875 C-118.06565021 64.54826664 -124.15893095 69.94589962 -128.1875 78.0625 C-129.8318144 81.90356645 -130.39486499 85.48442973 -130.875 89.625 C-131.66985615 95.63917703 -133.2037504 99.22041178 -138 103 C-141.96606341 105.40051207 -146.46668152 105.95657179 -151 105 C-154.9295388 102.93509297 -158.1388632 100.69930994 -160.171875 96.6875 C-161.09917157 93.67816019 -161.50805679 90.81400594 -161.875 87.6875 C-162.69226285 82.07436135 -163.90992341 77.74976437 -167 73 C-167.99 71.453125 -167.99 71.453125 -169 69.875 C-173.89312158 64.47773862 -180.65903753 61.48866775 -187.765625 60.44921875 C-197.24233783 60.11350524 -204.22621836 61.62675826 -211.28125 68.08984375 C-217.75627566 74.95196334 -220.46635662 80.93818927 -220.36889648 90.37866211 C-220.37266296 91.18613388 -220.37642944 91.99360565 -220.38031006 92.82554626 C-220.38671413 94.56770101 -220.38643933 96.30989074 -220.38012505 98.05204582 C-220.37096948 100.81484509 -220.38128928 103.57697222 -220.39674377 106.33973694 C-220.43672075 114.19059276 -220.43804764 122.04139325 -220.43579102 129.89233398 C-220.43573979 134.70513161 -220.45496918 139.51756535 -220.48512459 144.33026314 C-220.4959053 147.04243539 -220.48384688 149.75390013 -220.47129822 152.46604919 C-220.48020762 154.14135423 -220.49028373 155.8166536 -220.50170898 157.49194336 C-220.48709373 158.61049713 -220.48709373 158.61049713 -220.47218323 159.75164795 C-220.55474794 165.85236425 -222.26611373 171.24955653 -226.64649105 175.65646267 C-230.19301438 178.62799987 -233.40020855 179.7586158 -238.01953125 179.41015625 C-243.22605997 178.33188107 -246.66461111 175.91922463 -249.66943359 171.66577148 C-253.05195741 166.01724871 -252.67295369 160.26329928 -252.6015625 153.84765625 C-252.60956879 152.59295029 -252.61757507 151.33824432 -252.62582397 150.04551697 C-252.64494176 146.72610424 -252.64454415 143.40803773 -252.63201904 140.08868408 C-252.61585423 135.42239474 -252.62112458 130.75644771 -252.64559937 126.0901947 C-252.65762111 123.61265218 -252.65513176 121.13498297 -252.63589478 118.65748596 C-252.67018453 108.01420107 -254.40972055 100.76714507 -261.8046875 92.94921875 C-268.51803868 86.98843184 -275.85087165 85.63532575 -284.57421875 85.72265625 C-292.69416639 86.38002943 -299.57378256 89.93710638 -305 96 C-310.04707066 103.00894139 -311.31337963 110.48999265 -312.2421875 118.87890625 C-313.12641494 122.5206471 -314.41144205 124.3215287 -317 127 C-321.7875606 129.61960863 -325.5633081 130.67958649 -331 130 C-335.22898772 128.2961723 -338.72844973 126.0383116 -341 122 C-341.8347591 119.22557744 -342.12980073 116.72971293 -342.14717102 113.83889771 C-342.15432632 113.01748291 -342.16148163 112.19606812 -342.16885376 111.34976196 C-342.17154266 110.45719696 -342.17423157 109.56463196 -342.17700195 108.64501953 C-342.18357315 107.69822327 -342.19014435 106.751427 -342.19691467 105.77593994 C-342.21661494 102.64489663 -342.22830145 99.51390116 -342.23828125 96.3828125 C-342.24235678 95.31277859 -342.2464323 94.24274467 -342.25063133 93.14028549 C-342.27147557 87.47943058 -342.28578586 81.81859981 -342.29516602 76.15771484 C-342.30624223 70.31109855 -342.34066107 64.46486161 -342.38033772 58.61837959 C-342.40647324 54.12136118 -342.41485502 49.62443372 -342.41844749 45.12734604 C-342.42331936 42.9719778 -342.43495036 40.81661378 -342.45348549 38.66131973 C-342.47781693 35.64516247 -342.47692296 32.62999477 -342.4699707 29.61376953 C-342.48278076 28.72525299 -342.49559082 27.83673645 -342.50878906 26.92129517 C-342.4558674 20.61797555 -340.9112707 16.93216498 -336.3671875 12.35546875 C-332.07033593 8.99222629 -330.10132034 7.87520068 -324.68943214 7.87250805 C-323.55581328 7.8695004 -322.42219442 7.86649275 -321.25422347 7.86339396 C-319.37021741 7.86601952 -319.37021741 7.86601952 -317.44815063 7.86869812 C-316.10871455 7.86699701 -314.76927898 7.86484781 -313.42984426 7.86228687 C-310.5093613 7.85767964 -307.58889955 7.85627099 -304.66841316 7.85725212 C-299.91734607 7.85884127 -295.16630012 7.85365064 -290.41523743 7.84762573 C-283.51753368 7.83950408 -276.61983365 7.83456595 -269.72212601 7.83133507 C-258.82444954 7.8258455 -247.92680449 7.80895548 -237.02914429 7.78999329 C-233.30331617 7.78363623 -229.57748797 7.77732785 -225.85165977 7.77101612 C-224.45489215 7.76864048 -224.45489215 7.76864048 -223.029907 7.76621684 C-212.42456265 7.74827167 -201.81921608 7.73204913 -191.21386719 7.71704102 C-190.24409763 7.71566514 -189.27432808 7.71428927 -188.27517156 7.71287171 C-172.55464342 7.69093476 -156.83412331 7.68018407 -141.11358257 7.67267027 C-124.98592671 7.66460635 -108.85834008 7.64133956 -92.73072374 7.6047166 C-82.77608969 7.58265971 -72.82159786 7.57303666 -62.8669406 7.57921693 C-56.04783962 7.58238544 -49.2288603 7.57110183 -42.40979697 7.54832252 C-38.47208264 7.53562299 -34.53463926 7.52952284 -30.59691429 7.54073906 C-26.9944316 7.55086881 -23.39247614 7.54273972 -19.79005603 7.5198761 C-17.86446338 7.51247812 -15.9388264 7.52484697 -14.01326334 7.53783625 C-12.30501181 7.52158992 -12.30501181 7.52158992 -10.56225014 7.50501537 C-9.57758031 7.50403856 -8.59291047 7.50306176 -7.57840216 7.50205535 C-4.25305772 6.85455862 -3.08394976 5.61996029 -1 3 C-0.67 2.01 -0.34 1.02 0 0 Z " fill="#FCE5C7" transform="translate(357,178)"/>
<path d="M0 0 C18.15 0 36.3 0 55 0 C56.32 2.97 57.64 5.94 59 9 C63.48705606 15.26100846 68.85913624 19.7309503 76.484375 21.61328125 C85.75646587 23.03864926 93.42422245 21.79729678 101.265625 16.45703125 C106.95048221 11.85650792 109.71842212 6.84473363 112 0 C182.62 0 253.24 0 326 0 C327.98 3.96 329.96 7.92 332 12 C338.05344371 18.51909322 345.42016302 22.08508074 354.375 22.5625 C363.04573094 22.17004825 370.5618384 19.05532449 376.5 12.6875 C379.92072144 8.62914408 381.49096447 5.01807106 384 0 C401.82 0 419.64 0 438 0 C438 10.89 438 21.78 438 33 C434.26298767 33.00586624 430.52597534 33.01173248 426.67572021 33.01777649 C392.42769454 33.07292105 358.17972475 33.14285885 323.9317625 33.22898628 C319.44555679 33.24025481 314.95935077 33.2513932 310.47314453 33.26245117 C309.13342767 33.2657567 309.13342767 33.2657567 307.76664582 33.269129 C293.29403768 33.30452719 278.8214296 33.32937708 264.34879419 33.35034702 C249.50489726 33.37208901 234.66105663 33.40512412 219.81720757 33.44870156 C210.65350352 33.47524595 201.48986966 33.49292077 192.32612905 33.49934604 C186.04712009 33.50459142 179.76819955 33.52077965 173.48923793 33.54566566 C169.86347216 33.55970995 166.23786478 33.56884062 162.61207008 33.56500816 C158.68533221 33.56098335 154.75890097 33.57995601 150.83221436 33.60127258 C149.68047218 33.59642501 148.52873001 33.59157743 147.34208655 33.58658296 C145.76783735 33.60076777 145.76783735 33.60076777 144.16178513 33.61523914 C143.25501298 33.61713775 142.34824083 33.61903635 141.41399074 33.62099248 C138.47637132 34.08221208 137.10088574 34.91147475 135 37 C134.37087292 41.60629045 134.37087292 41.60629045 136.21144658 45.69470245 C138.60043714 47.43820281 140.10844156 47.37861586 143.05435467 47.38476086 C144.6308424 47.39894567 144.6308424 47.39894567 146.23917836 47.41341704 C147.97699731 47.40614568 147.97699731 47.40614568 149.74992371 47.39872742 C150.97755269 47.40537424 152.20518167 47.41202107 153.47001153 47.41886932 C156.88385972 47.43433133 160.29724352 47.43633091 163.71109378 47.43273985 C167.39004806 47.43211756 171.06892855 47.44872138 174.74784851 47.46325684 C181.12389352 47.48607982 187.49988376 47.4979343 193.87596703 47.50238609 C203.09475234 47.50883845 212.3134385 47.53175964 221.53218392 47.55872939 C236.48815751 47.60203504 251.44412694 47.63198019 266.40014648 47.65356445 C280.93044076 47.67456284 295.46070093 47.70182795 309.9909668 47.73754883 C311.33393255 47.74084707 311.33393255 47.74084707 312.70402893 47.74421193 C317.19543866 47.7552813 321.68684807 47.76647416 326.17825735 47.77772844 C363.45214351 47.87096701 400.726044 47.94171856 438 48 C438 56.91 438 65.82 438 75 C293.46 75 148.92 75 0 75 C0 66.09 0 57.18 0 48 C3.34680908 47.98018066 6.69361816 47.96036133 10.1418457 47.93994141 C21.18208978 47.8731266 32.22223843 47.79548595 43.26237202 47.71247292 C49.95801613 47.66246144 56.65364031 47.6158868 63.34936523 47.578125 C69.80738113 47.54133353 76.26526344 47.49499031 82.72316551 47.44193649 C85.19077404 47.42335987 87.65841124 47.40826409 90.12606239 47.39665604 C93.57417192 47.37984958 97.02197329 47.35082788 100.4699707 47.31884766 C102.01068993 47.31560738 102.01068993 47.31560738 103.58253479 47.31230164 C104.52062988 47.30113815 105.45872498 47.28997467 106.42524719 47.2784729 C107.24103398 47.27294214 108.05682077 47.26741138 108.89732838 47.26171303 C111.30248578 47.12166945 111.30248578 47.12166945 114 45 C114.72684667 39.86800684 114.72684667 39.86800684 112.76101971 35.40162945 C110.50924583 33.60939932 109.2829682 33.6174179 106.42524719 33.60127258 C105.4871521 33.58873444 104.54905701 33.57619629 103.58253479 33.5632782 C102.04181557 33.56543083 102.04181557 33.56543083 100.4699707 33.56762695 C98.84534409 33.55233948 98.84534409 33.55233948 97.18789673 33.53674316 C93.60047307 33.50649866 90.01331591 33.49732954 86.42578125 33.48828125 C83.9414124 33.4714431 81.45705211 33.45329404 78.97270203 33.43388367 C73.09731222 33.39115165 67.22197215 33.36166244 61.34647483 33.33856028 C54.00107037 33.30886939 46.65584112 33.25866867 39.31054688 33.20898438 C26.20707994 33.12283769 13.10362577 33.05709435 0 33 C0 22.11 0 11.22 0 0 Z " fill="#A86A53" transform="translate(37,349)"/>
<path d="M0 0 C144.21 0 288.42 0 437 0 C437 14.19 437 28.38 437 43 C435.08798153 44.91201847 431.63256871 44.12728224 429.10459995 44.12863445 C428.00463671 44.13126401 428.00463671 44.13126401 426.88245198 44.13394669 C424.39391149 44.13864569 421.90542843 44.13613126 419.41688538 44.13371277 C417.62728386 44.13557878 415.83768275 44.13787864 414.04808229 44.14057809 C409.10591521 44.14672842 404.16376497 44.14655872 399.22159493 44.14538372 C393.90114015 44.14518052 388.58069089 44.15069065 383.26023865 44.15544128 C372.82752191 44.16376601 362.39481082 44.16649694 351.96209104 44.16705366 C343.48672948 44.16752795 335.0113698 44.1695783 326.53600883 44.17275429 C302.53556004 44.18156571 278.53511572 44.18617288 254.53466529 44.18542381 C253.23940006 44.18538386 251.94413483 44.1853439 250.60961914 44.18530273 C249.31278245 44.18526185 248.01594576 44.18522097 246.67981099 44.18517885 C225.65207398 44.18477221 204.62435485 44.19434508 183.59662301 44.2084411 C162.03368379 44.22278247 140.47075331 44.22971253 118.9078092 44.22884732 C106.79050691 44.22851458 94.67322338 44.2312952 82.55592537 44.24202538 C72.24054197 44.25110098 61.92518582 44.25332996 51.60980017 44.24651595 C46.34180819 44.24323583 41.07386859 44.24324738 35.8058815 44.2518692 C30.99036725 44.25966977 26.17494749 44.25836957 21.35943573 44.24958507 C19.61045062 44.24803573 17.86145867 44.24991938 16.1124816 44.25544515 C13.7486177 44.26242328 11.38509287 44.25727704 9.02124119 44.24888897 C7.70415371 44.24910634 6.38706624 44.24932371 5.03006703 44.24954766 C2 44 2 44 0 42 C-0.39764263 40.01178687 -0.73775349 38.01055661 -1 36 C-2.98 35.34 -4.96 34.68 -7 34 C-7 28.06 -7 22.12 -7 16 C-5.35 15.34 -3.7 14.68 -2 14 C0.10818511 9.78362979 -0.39148015 4.69776176 0 0 Z " fill="#A86952" transform="translate(37,439)"/>
<path d="M0 0 C2.93902349 -0.13481759 5.87189559 -0.23399416 8.8125 -0.3125 C10.06256836 -0.3753418 10.06256836 -0.3753418 11.33789062 -0.43945312 C13.65969628 -0.48607573 15.726759 -0.48108792 18 0 C20.01171875 2.45703125 20.01171875 2.45703125 21 5 C22.6451345 6.6451345 24.54030358 6.13204757 26.80825901 6.1386652 C28.37877359 6.14687687 28.37877359 6.14687687 29.98101574 6.15525442 C31.14538739 6.15623253 32.30975904 6.15721064 33.50941467 6.15821838 C35.34829487 6.16562535 35.34829487 6.16562535 37.22432417 6.17318195 C40.64254588 6.1859397 44.06072643 6.19419647 47.47896254 6.20060861 C51.15929126 6.20858965 54.83959902 6.22229527 58.51991272 6.23532104 C64.90143747 6.2571165 71.28296431 6.27524971 77.66450691 6.29092598 C86.89125213 6.31359674 96.11797418 6.34174338 105.34469979 6.37124526 C120.31287884 6.41895551 135.28106734 6.46221036 150.24926758 6.50268555 C164.79322038 6.54202303 179.33716477 6.58344504 193.88110352 6.62768555 C195.22485744 6.63177196 195.22485744 6.63177196 196.59575791 6.63594092 C201.08970876 6.64962011 205.58365948 6.66334044 210.07761014 6.67708123 C247.38505613 6.79109992 284.69252038 6.89762385 322 7 C322 15.91 322 24.82 322 34 C177.46 34 32.92 34 -116 34 C-116 25.09 -116 16.18 -116 7 C-110.9876416 6.98598145 -110.9876416 6.98598145 -105.87402344 6.97167969 C-94.84571634 6.93794485 -83.81759707 6.88241546 -72.78944016 6.81609726 C-66.10163768 6.77655213 -59.41397909 6.74390467 -52.72607422 6.72900391 C-46.27444402 6.71388384 -39.82317948 6.67952067 -33.37171173 6.63169098 C-30.90772933 6.61682919 -28.44369474 6.60895625 -25.97966766 6.60811615 C-22.53389791 6.60575925 -19.08914921 6.57878105 -15.64355469 6.54589844 C-14.62000381 6.5509288 -13.59645294 6.55595917 -12.54188538 6.56114197 C-7.09305594 6.56214191 -7.09305594 6.56214191 -2.39727783 4.09088135 C-0.98037256 2.06502576 -0.98037256 2.06502576 0 0 Z " fill="#FDE6C8" transform="translate(153,390)"/>
<path d="M0 0 C3.84007625 1.90355711 6.33649861 4.35331239 8.3203125 8.23828125 C9.13193061 10.71925024 9.26265802 12.92149342 9.3828125 15.52734375 C9.87130108 23.58740532 13.34513256 31.31036488 19.3203125 36.83984375 C21.09777322 38.18455591 21.09777322 38.18455591 23.0078125 39.33984375 C23.66394531 39.74976563 24.32007813 40.1596875 24.99609375 40.58203125 C31.99004094 44.289974 39.99528568 44.755769 47.59375 42.609375 C49.85554398 41.66374441 51.9049507 40.59743757 54.0078125 39.33984375 C54.96300781 38.79650391 54.96300781 38.79650391 55.9375 38.2421875 C62.38473897 34.16078086 66.27271384 27.71401304 68.0078125 20.33984375 C68.14517744 18.50739539 68.26895727 16.67390294 68.3828125 14.83984375 C68.89378309 8.4570416 70.88993319 5.21145802 75.6953125 0.96484375 C80.54195089 -1.41275244 84.84223699 -1.70914108 90 0 C94.55652167 2.25870495 97.36655113 5.51591568 99.0078125 10.33984375 C99.5875253 15.31163693 99.61839171 20.277537 99.6328125 25.27734375 C99.73718191 38.01501657 99.98571737 50.31029599 108.83203125 60.42578125 C115.85238747 66.96340178 122.43929482 68.96423014 131.98046875 68.6875 C139.73682957 67.79676953 147.00614487 64.42723924 152.0078125 58.33984375 C156.36597014 51.60540559 158.34996075 45.84789247 158.68359375 37.88671875 C159.35966741 32.57587505 162.35037198 28.81312421 166.2578125 25.33984375 C171.44771348 23.45260703 176.15265961 23.67478894 181.3203125 25.52734375 C184.83552084 27.89806565 187.11421631 30.55265137 189.0078125 34.33984375 C189.0078125 49.51984375 189.0078125 64.69984375 189.0078125 80.33984375 C119.7078125 80.33984375 50.4078125 80.33984375 -20.9921875 80.33984375 C-20.9921875 9.33984375 -20.9921875 9.33984375 -16.9921875 3.33984375 C-11.81446797 -1.23581537 -6.51973567 -2.16046143 0 0 Z " fill="#F62E3F" transform="translate(171.9921875,253.66015625)"/>
<path d="M0 0 C2.19046567 1.52833733 4.10669948 3.19516924 6.07421875 5.00390625 C7.01523437 5.865 7.95625 6.72609375 8.92578125 7.61328125 C24.11397197 21.94675684 34.28395527 39.70892522 39.07421875 60.00390625 C39.52087891 61.71513672 39.52087891 61.71513672 39.9765625 63.4609375 C41.82353172 71.04457609 44.77241853 83.60750669 41.07421875 91.00390625 C40.41526611 90.97772217 39.75631348 90.95153809 39.07739258 90.92456055 C22.6771607 90.35893655 9.95813125 90.21572096 -3.0234375 101.453125 C-4.90821766 102.9895885 -6.71702728 104.00529365 -8.92578125 105.00390625 C-9.38726562 104.55660156 -9.84875 104.10929687 -10.32421875 103.6484375 C-21.24619506 93.52510372 -32.34127676 90.64161143 -46.92578125 90.87890625 C-48.51712891 90.89244141 -48.51712891 90.89244141 -50.140625 90.90625 C-52.73591763 90.92963101 -55.3307259 90.96240069 -57.92578125 91.00390625 C-59.62780706 62.48551821 -49.70412993 35.39655815 -30.92578125 14.00390625 C-12.39129721 -6.40929166 -12.39129721 -6.40929166 0 0 Z " fill="#F74857" transform="translate(263.92578125,30.99609375)"/>
<path d="M0 0 C18.15 0 36.3 0 55 0 C56.32 2.97 57.64 5.94 59 9 C63.48705606 15.26100846 68.85913624 19.7309503 76.484375 21.61328125 C85.75646587 23.03864926 93.42422245 21.79729678 101.265625 16.45703125 C106.95048221 11.85650792 109.71842212 6.84473363 112 0 C182.62 0 253.24 0 326 0 C327.98 3.96 329.96 7.92 332 12 C338.05344371 18.51909322 345.42016302 22.08508074 354.375 22.5625 C363.04573094 22.17004825 370.5618384 19.05532449 376.5 12.6875 C379.92072144 8.62914408 381.49096447 5.01807106 384 0 C401.82 0 419.64 0 438 0 C438 10.89 438 21.78 438 33 C425.39511193 33.11317168 412.79056388 33.204815 400.18528175 33.25906086 C394.331499 33.28510231 388.47808328 33.32040125 382.62451172 33.37719727 C376.97050772 33.43171068 371.31685572 33.46146152 365.6626091 33.47438622 C363.51051674 33.48359138 361.35844263 33.50156684 359.20650101 33.52865028 C356.18103356 33.56519704 353.15700196 33.5699346 350.13134766 33.56762695 C349.25092804 33.58560333 348.37050842 33.60357971 347.46340942 33.62210083 C338.15610107 33.54579217 330.54242029 29.28542561 323.81640625 23.0078125 C317.74106734 16.29227659 315.62903447 9.76344825 313 1 C250.96 1 188.92 1 125 1 C124.34 3.97 123.68 6.94 123 10 C117.74035607 21.0594675 109.37485571 28.61931894 98 33 C94.59534442 33.6184768 91.3215992 33.63812911 87.86865234 33.56762695 C86.91134216 33.56835709 85.95403198 33.56908722 84.9677124 33.56983948 C81.83985415 33.56638817 78.71353183 33.52764385 75.5859375 33.48828125 C73.40305393 33.47894438 71.2201598 33.4718324 69.03726196 33.46684265 C63.31930107 33.44784181 57.60198514 33.39880051 51.88427734 33.34332275 C46.0388257 33.29198087 40.19326885 33.26929677 34.34765625 33.24414062 C22.89810996 33.19067494 11.44920977 33.10279555 0 33 C0 22.11 0 11.22 0 0 Z " fill="#8A5642" transform="translate(37,349)"/>
<path d="M0 0 C1.98 0.495 1.98 0.495 4 1 C4.14695313 1.94359375 4.29390625 2.8871875 4.4453125 3.859375 C6.55726664 15.94849181 10.13768279 28.10326209 20.40625 35.8046875 C31.71843345 43.46265439 42.5512711 45.40001499 56 44 C66.75584591 41.80971865 75.75991511 34.92477257 82 26 C86.40692139 19.19375474 87.70919066 12.95266561 88.34765625 4.90625 C89 2 89 2 91.05859375 0.59375 C91.69925781 0.3978125 92.33992188 0.201875 93 0 C95 2 95 2 95.22363281 4.91064453 C95.21686523 6.13895996 95.21009766 7.36727539 95.203125 8.6328125 C95.20857484 10.00310075 95.21588818 11.37338258 95.22485352 12.74365234 C95.22909836 13.81833771 95.22909836 13.81833771 95.23342896 14.91473389 C95.35568018 31.220751 96.52355941 45.06782279 107.78125 57.94921875 C110.81996434 60.75788957 114.06059243 62.80302303 117.703125 64.74609375 C120 66 120 66 124 69 C82.75 69 41.5 69 -1 69 C-1.020625 57.98625 -1.04125 46.9725 -1.0625 35.625 C-1.071604 32.14533691 -1.08070801 28.66567383 -1.09008789 25.08056641 C-1.09300715 22.3375655 -1.09555569 19.59456416 -1.09765625 16.8515625 C-1.10026962 16.13616302 -1.102883 15.42076355 -1.10557556 14.6836853 C-1.11287178 12.58158036 -1.11390678 10.47955707 -1.11352539 8.37744141 C-1.115746 7.19163483 -1.11796661 6.00582825 -1.12025452 4.78408813 C-1 2 -1 2 0 0 Z " fill="#FA4958" transform="translate(164,265)"/>
<path d="M0 0 C4.55256648 2.25674433 7.3136339 5.54456727 9.0078125 10.33984375 C9.56261086 14.76749564 9.51770911 19.15608621 9.4765625 23.61328125 C9.4873358 25.56683409 9.49813152 27.5203871 9.51021576 29.47393227 C9.52918538 33.57585732 9.51281015 37.67778805 9.50274658 41.77972412 C9.49582902 45.16040656 9.49681101 48.54066081 9.5177002 51.92129517 C9.53161845 54.44890945 9.52817106 56.97669775 9.50476074 59.50424194 C9.56287248 69.38848195 12.05470209 78.02174067 19.0078125 85.33984375 C22.77168829 88.1721415 26.80161183 90.23674341 31.0078125 92.33984375 C31.0078125 96.29984375 31.0078125 100.25984375 31.0078125 104.33984375 C13.8478125 104.33984375 -3.3121875 104.33984375 -20.9921875 104.33984375 C-21.15262274 80.87173375 -21.15262274 80.87173375 -21.1875 70.86328125 C-21.21140546 64.03568071 -21.23967686 57.20829488 -21.29394531 50.38085938 C-21.33742689 44.87601494 -21.36132979 39.37140078 -21.37169647 33.86639786 C-21.37908363 31.76684062 -21.39350903 29.6672959 -21.41510773 27.56783676 C-21.44417199 24.62551451 -21.44814218 21.68414207 -21.44628906 18.74169922 C-21.46067017 17.87495071 -21.47505127 17.00820221 -21.48986816 16.1151886 C-21.45297522 10.69668923 -20.58723544 7.64267156 -16.9921875 3.33984375 C-11.81446797 -1.23581537 -6.51973567 -2.16046143 0 0 Z " fill="#F62E3F" transform="translate(442.9921875,229.66015625)"/>
<path d="M0 0 C3.37493697 -0.08394451 6.7493345 -0.14061576 10.125 -0.1875 C11.55199219 -0.22520508 11.55199219 -0.22520508 13.0078125 -0.26367188 C19.42846645 -0.33055369 23.98715063 0.16400552 28.86328125 4.75390625 C29.34152344 5.35074219 29.81976563 5.94757813 30.3125 6.5625 C30.80363281 7.16191406 31.29476563 7.76132813 31.80078125 8.37890625 C34.7367454 12.34771773 34.16294503 16.45948737 34.17700195 21.20385742 C34.18685875 22.63583466 34.18685875 22.63583466 34.19691467 24.09674072 C34.21667697 27.26631748 34.22831785 30.43584675 34.23828125 33.60546875 C34.24235678 34.68712122 34.2464323 35.76877369 34.25063133 36.88320351 C34.27150627 42.61004064 34.28580087 48.33685373 34.29516602 54.0637207 C34.30622313 59.97755495 34.34061122 65.89101217 34.38033772 71.80471325 C34.40649555 76.35238846 34.41485722 80.89997384 34.41844749 85.44771767 C34.42331692 87.62737888 34.43494097 89.807036 34.45348549 91.98662376 C34.47785474 95.04110839 34.47691548 98.09461767 34.4699707 101.14916992 C34.48278076 102.04658401 34.49559082 102.94399811 34.50878906 103.86860657 C34.46017826 109.74723592 33.38808643 113.16409419 30 118 C26.52659093 120.85750561 22.78366533 121.89190823 18.375 122.5 C13.31053579 121.74970901 10.49750867 119.41568856 6.84764099 115.96524048 C4.19739656 111.71191848 4.50630895 108.15651605 4.62524414 103.24365234 C4.6326915 102.26572723 4.64013885 101.28780212 4.64781189 100.28024292 C4.66636124 98.15926102 4.69408159 96.03834392 4.72990608 93.91758347 C4.78569299 90.55357137 4.81546225 87.19022367 4.83824158 83.82583618 C4.89966476 75.46592067 5.000328 67.10659963 5.11016846 58.74719238 C5.2025826 51.68866012 5.27491342 44.6305306 5.31863213 37.57152176 C5.34714387 34.27026407 5.40514042 30.97036189 5.46388245 27.66952515 C5.75113639 13.11285288 5.75113639 13.11285288 0 0 Z " fill="#FED496" transform="translate(463,186)"/>
<path d="M0 0 C3.08486476 1.5610159 5.4628393 3.66759262 8 6 C8.94101562 6.86109375 9.88203125 7.7221875 10.8515625 8.609375 C26.03975322 22.94285059 36.20973652 40.70501897 41 61 C41.44666016 62.71123047 41.44666016 62.71123047 41.90234375 64.45703125 C43.74931297 72.04066984 46.69819978 84.60360044 43 92 C36.4 91.67 29.8 91.34 23 91 C23 89.02 23 87.04 23 85 C22.21625 84.71125 21.4325 84.4225 20.625 84.125 C18 83 18 83 16 81 C15.72083476 78.06876502 15.51148966 75.84382806 16 73 C17.875 71 17.875 71 20 70 C20.66 70 21.32 70 22 70 C21.35720991 67.20760027 20.71091335 64.41609416 20.0625 61.625 C19.88009766 60.8309375 19.69769531 60.036875 19.50976562 59.21875 C19.33251953 58.45820312 19.15527344 57.69765625 18.97265625 56.9140625 C18.81031494 56.2123291 18.64797363 55.5105957 18.48071289 54.78759766 C18.0411926 52.91605426 18.0411926 52.91605426 17 51 C16.484375 51.804375 15.96875 52.60875 15.4375 53.4375 C13 56 13 56 9.5625 57.125 C6 57 6 57 3.0625 54.9375 C1 52 1 52 0.4375 48.9375 C1.13536986 45.29306849 1.94376723 44.09110663 5 42 C9.10777749 41.49700684 10.50875983 41.67250655 14 44 C12.52403189 39.03116495 10.40510877 34.71218514 7.9375 30.1875 C7.57333984 29.50751953 7.20917969 28.82753906 6.83398438 28.12695312 C5.20729516 24.86024181 5.20729516 24.86024181 3 22 C2.38125 22.969375 1.7625 23.93875 1.125 24.9375 C-1 28 -1 28 -3 29 C-6.19200721 29.27756584 -8.4070908 29.24964598 -11.375 28 C-13.47416904 25.41640733 -13.62228551 23.2219118 -13.453125 19.94140625 C-13 18 -13 18 -10.8125 15.5 C-8 14 -8 14 -3 14 C-6.63 10.04 -10.26 6.08 -14 2 C-9.93989152 -2.06010848 -5.19449536 -1.32842832 0 0 Z " fill="#F42E3F" transform="translate(262,30)"/>
<path d="M0 0 C144.21 0 288.42 0 437 0 C437 14.19 437 28.38 437 43 C436 44 436 44 432.30639648 44.11352539 C430.66128709 44.11327427 429.01617243 44.10771184 427.37109375 44.09765625 C426.22259949 44.09614563 426.22259949 44.09614563 425.05090332 44.09460449 C422.17975373 44.08935663 419.30862542 44.07539547 416.4375 44.0625 C410.023125 44.041875 403.60875 44.02125 397 44 C397 29.81 397 15.62 397 1 C266.32 1 135.64 1 1 1 C1 4.3 1 7.6 1 11 C0.67 11 0.34 11 0 11 C0 7.37 0 3.74 0 0 Z " fill="#8F5944" transform="translate(37,439)"/>
<path d="M0 0 C3.51520834 2.3707219 5.79390381 5.02530762 7.6875 8.8125 C7.77713847 10.29350811 7.80507925 11.77849424 7.80102539 13.26220703 C7.80090454 14.19589111 7.80078369 15.1295752 7.80065918 16.09155273 C7.79554321 17.07454346 7.79042725 18.05753418 7.78515625 19.0703125 C7.78414917 19.97257568 7.78314209 20.87483887 7.78210449 21.80444336 C7.77686358 25.18214179 7.76290236 28.55982214 7.75 31.9375 C7.729375 39.48625 7.70875 47.035 7.6875 54.8125 C-9.4725 54.8125 -26.6325 54.8125 -44.3125 54.8125 C-44.3125 50.8525 -44.3125 46.8925 -44.3125 42.8125 C-41.775625 41.5440625 -41.775625 41.5440625 -39.1875 40.25 C-31.27863786 35.8945419 -27.26228 31.07461614 -24.109375 22.63671875 C-22.91779916 18.41363378 -22.42490552 14.15356167 -22 9.79296875 C-20.9771204 5.35855322 -18.56731612 2.85220478 -15.125 0 C-9.97782302 -2.1732525 -5.20759843 -1.86687491 0 0 Z " fill="#F62E3F" transform="translate(82.3125,279.1875)"/>
<path d="M0 0 C7.97250033 4.85220397 13.16895034 11.06823303 16.48828125 19.76171875 C17.30882151 24.01360917 17.35181284 28.01144477 17.17578125 32.32421875 C15.51289063 32.32808594 15.51289063 32.32808594 13.81640625 32.33203125 C12.35282443 32.36955899 10.88928351 32.40870658 9.42578125 32.44921875 C8.69617188 32.44664062 7.9665625 32.4440625 7.21484375 32.44140625 C4.75556527 32.47102172 4.75556527 32.47102172 1.17578125 33.32421875 C0.53253906 34.31808594 -0.11070312 35.31195313 -0.7734375 36.3359375 C-2.82421875 39.32421875 -2.82421875 39.32421875 -4.76123047 39.89648438 C-7.16198785 40.09547901 -9.47946023 40.09393648 -11.88671875 40.01171875 C-12.70205078 40.02654297 -13.51738281 40.04136719 -14.35742188 40.05664062 C-16.64083219 40.02474418 -18.6192189 39.9211779 -20.82421875 39.32421875 C-22.8203125 36.84375 -22.8203125 36.84375 -23.82421875 34.32421875 C-25.53865094 32.60978656 -27.82867116 33.09368908 -30.171875 33.0078125 C-31.25146484 32.96591797 -32.33105469 32.92402344 -33.44335938 32.88085938 C-34.57966797 32.84154297 -35.71597656 32.80222656 -36.88671875 32.76171875 C-38.02689453 32.71853516 -39.16707031 32.67535156 -40.34179688 32.63085938 C-43.1691407 32.52439036 -45.99657613 32.42237668 -48.82421875 32.32421875 C-49.10238724 22.44319012 -47.24154039 15.84255548 -40.82421875 8.07421875 C-29.97677832 -3.10834585 -14.42625033 -6.91005268 0 0 Z " fill="#A66851" transform="translate(377.82421875,138.67578125)"/>
<path d="M0 0 C5.23022153 2.5571952 10.32320678 5.55800138 13.5625 10.5 C13.79993739 14.5676774 12.70354211 17.46246639 11.5625 21.5 C11.2325 25.46 10.9025 29.42 10.5625 33.5 C-8.2475 33.5 -27.0575 33.5 -46.4375 33.5 C-46.4375 23.31260645 -43.54242316 14.94791945 -36.4375 7.5 C-26.24089338 -1.63748862 -13.12296227 -4.62800394 0 0 Z " fill="#A76952" transform="translate(233.4375,137.5)"/>
<path d="M0 0 C4.19714406 2.63861906 7.75758756 5.93467198 11.26171875 9.421875 C10.97296875 10.618125 10.68421875 11.814375 10.38671875 13.046875 C9.0465451 19.44992689 8.18686889 25.94582403 7.26171875 32.421875 C-11.21828125 32.421875 -29.69828125 32.421875 -48.73828125 32.421875 C-48.73828125 22.24925524 -46.24190774 14.12608924 -39.0234375 6.64453125 C-28.36045055 -3.34278128 -13.60469711 -6.37503634 0 0 Z " fill="#A76952" transform="translate(306.73828125,138.578125)"/>
<path d="M0 0 C4.52694515 2.66877758 8.28469308 5.04956154 11.3125 9.375 C11.59496603 12.96635376 10.93525585 16.12948831 9.3125 19.375 C8.9825 23.665 8.6525 27.955 8.3125 32.375 C-10.1675 32.375 -28.6475 32.375 -47.6875 32.375 C-47.6875 20.75557169 -45.89186468 13.76869618 -37.6875 5.375 C-26.78445407 -3.36237242 -12.94656812 -6.19747998 0 0 Z " fill="#A86952" transform="translate(164.6875,138.625)"/>
<path d="M0 0 C13.53 0 27.06 0 41 0 C43.475 6.435 43.475 6.435 46 13 C51.54439614 21.47966468 58.41037992 27.46788015 68 31 C68 31.33 68 31.66 68 32 C45.56 32 23.12 32 0 32 C0 21.44 0 10.88 0 0 Z " fill="#A86952" transform="translate(38,350)"/>
<path d="M0 0 C13.53 0 27.06 0 41 0 C41 10.56 41 21.12 41 32 C18.56 32 -3.88 32 -27 32 C-25.19754668 30.79836445 -23.37340118 29.62718846 -21.51171875 28.51953125 C-10.18881828 21.67567578 -3.28006195 13.12024778 0 0 Z " fill="#925B46" transform="translate(433,350)"/>
<path d="M0 0 C98.34 0 196.68 0 298 0 C298 8.91 298 17.82 298 27 C284.47 27 270.94 27 257 27 C257 18.42 257 9.84 257 1 C172.19 1 87.38 1 0 1 C0 0.67 0 0.34 0 0 Z " fill="#F0CC96" transform="translate(177,397)"/>
<path d="M0 0 C8.39826102 0.06740177 18.37909684 4.60335451 24.3125 10.4375 C24.8359375 12.55078125 24.8359375 12.55078125 24.6875 14.75 C24.64367187 15.54664062 24.59984375 16.34328125 24.5546875 17.1640625 C24.3600894 18.99077372 24.0971831 20.81014523 23.8125 22.625 C22.84996856 29.96430227 22.58925701 37.69442765 24.25 44.9375 C24.3125 48.4375 24.3125 48.4375 22.890625 50.25 C18.19907407 54.4375 18.19907407 54.4375 15.3125 54.4375 C15.3125 53.7775 15.3125 53.1175 15.3125 52.4375 C14.74402344 52.169375 14.17554688 51.90125 13.58984375 51.625 C10.4161621 49.97011283 7.56366073 47.91656833 4.62890625 45.875 C2.3482997 44.33682344 2.3482997 44.33682344 -0.33203125 43.55078125 C-2.6875 42.4375 -2.6875 42.4375 -4.015625 40.23046875 C-4.31984375 39.37066406 -4.6240625 38.51085937 -4.9375 37.625 C-5.25203125 36.77292969 -5.5665625 35.92085937 -5.890625 35.04296875 C-9.31359245 23.85120754 -8.04738817 12.50946309 -4.6875 1.4375 C-3.6875 0.4375 -3.6875 0.4375 0 0 Z " fill="#81CE65" transform="translate(168.6875,81.5625)"/>
<path d="M0 0 C0.47985967 1.27057182 0.9588593 2.54146848 1.4375 3.8125 C1.70433594 4.52019531 1.97117187 5.22789063 2.24609375 5.95703125 C5.75519964 15.46616275 5.16229587 27.73332484 1 37 C-1.12518717 41.32908498 -3.12471654 42.96170046 -7.4375 45.0625 C-11.34372861 46.98106943 -13.96644957 48.89977814 -17 52 C-17.66 52 -18.32 52 -19 52 C-19 52.66 -19 53.32 -19 54 C-22.49637435 52.44605585 -25.39354998 50.82986002 -28 48 C-27.8125 44.625 -27.8125 44.625 -27.40234375 42.54296875 C-26.05567314 34.03148749 -26.91773739 25.22853176 -28.3828125 16.796875 C-28.64170693 14.27474214 -28.67911885 12.44840218 -28 10 C-25.39665612 7.22473718 -22.39586695 5.65762645 -19 4 C-18.17242187 3.58621094 -17.34484375 3.17242187 -16.4921875 2.74609375 C-10.77379665 0.17371417 -6.24044296 -0.40260922 0 0 Z " fill="#69C54B" transform="translate(347,82)"/>
<path d="M0 0 C11.65089634 -0.52038743 20.8395333 -0.43030881 30.3125 7.25 C36.38831248 12.99440452 40.7160088 19.88929276 41.11328125 28.4375 C41.12355741 30.62974727 41.08939687 32.80977667 41 35 C39.33710938 35.00386719 39.33710938 35.00386719 37.640625 35.0078125 C36.17704318 35.04534024 34.71350226 35.08448783 33.25 35.125 C32.52039063 35.12242187 31.79078125 35.11984375 31.0390625 35.1171875 C28.57978402 35.14680297 28.57978402 35.14680297 25 36 C22.71664566 38.9660444 22.71664566 38.9660444 21 42 C19.68 42 18.36 42 17 42 C17.05220703 40.67548828 17.05220703 40.67548828 17.10546875 39.32421875 C17.4002792 26.25428891 15.17779506 15.56509999 6.60546875 5.3359375 C4.55924027 3.22170747 2.4537241 1.63581607 0 0 Z " fill="#905945" transform="translate(354,136)"/>
<path d="M0 0 C12.24533544 -0.54693806 21.05381145 0.02753214 31.25 7.5625 C34.94572582 11.07019767 34.94572582 11.07019767 35.1484375 14.54296875 C34.5962611 17.39862731 33.79100155 20.20107143 33 23 C32.67 26.96 32.34 30.92 32 35 C13.19 35 -5.62 35 -25 35 C-25 32.69 -25 30.38 -25 28 C-24.67 28 -24.34 28 -24 28 C-24 29.98 -24 31.96 -24 34 C-10.14 34 3.72 34 18 34 C16.08663702 22.51982212 14.27570979 12.45826221 6 4 C2.83324955 1.99409221 2.83324955 1.99409221 0 1 C0 0.67 0 0.34 0 0 Z " fill="#8C5743" transform="translate(212,136)"/>
<path d="M0 0 C12.38609317 -0.55322501 21.36488678 -0.28442459 31.125 8.25 C32.42940455 9.48670189 33.72592216 10.73207712 35 12 C34.71125 13.19625 34.4225 14.3925 34.125 15.625 C32.78482635 22.02805189 31.92515014 28.52394903 31 35 C12.52 35 -5.96 35 -25 35 C-25 32.36 -25 29.72 -25 27 C-24.67 27 -24.34 27 -24 27 C-24 29.31 -24 31.62 -24 34 C-10.14 34 3.72 34 18 34 C15.92270965 21.53625789 13.07822922 10.24582391 3 2 C2.01 1.34 1.02 0.68 0 0 Z " fill="#8E5844" transform="translate(283,136)"/>
<path d="M0 0 C12.93274712 -0.82745065 22.42771411 0.24472132 32.8125 8.875 C35.08267015 12.11810021 35.32161802 12.58101067 34.9375 16.25 C34 20 34 20 33 22 C32.67 26.29 32.34 30.58 32 35 C13.52 35 -4.96 35 -24 35 C-24 34.67 -24 34.34 -24 34 C-10.14 34 3.72 34 18 34 C15.90423585 20.30328147 15.90423585 20.30328147 10 9 C9.58492187 8.40574219 9.16984375 7.81148437 8.7421875 7.19921875 C6.22737428 3.88567555 4.00212915 2.14346547 0 1 C0 0.67 0 0.34 0 0 Z " fill="#8D5844" transform="translate(141,136)"/>
<path d="M0 0 C3.50201194 17.28412342 0.82688558 31.97429833 -8 47 C-12.26826873 47 -12.93882432 46.62386487 -16 44 C-15.835 42.96875 -15.67 41.9375 -15.5 40.875 C-14.32688925 31.47335527 -14.76523631 22.10619101 -16.3828125 12.796875 C-16.64379124 10.25443696 -16.71490356 8.46194915 -16 6 C-11.28369776 1.44534521 -6.41452174 -1.51922883 0 0 Z " fill="#81CE65" transform="translate(335,86)"/>
<path d="M0 0 C0.99 0 1.98 0 3 0 C4.14315747 2.28631494 4.12112732 3.54347406 4.11352539 6.08251953 C4.11344986 6.92324005 4.11337433 7.76396057 4.11329651 8.63015747 C4.10555458 9.99272171 4.10555458 9.99272171 4.09765625 11.3828125 C4.0962413 12.31221649 4.09482635 13.24162048 4.09336853 14.19918823 C4.08776053 17.17449124 4.07520668 20.14971964 4.0625 23.125 C4.05748603 25.13932183 4.05292295 27.15364484 4.04882812 29.16796875 C4.03863838 34.1120312 4.01906453 39.05593185 4 44 C-7.88 44 -19.76 44 -32 44 C-29.40144578 42.26763052 -26.93239121 40.96469732 -24.125 39.625 C-13.8534442 34.46692495 -7.77480438 26.42377971 -3.7734375 15.66796875 C-2.60089538 11.62329063 -1.96264001 7.53899444 -1.39453125 3.37109375 C-1 1 -1 1 0 0 Z " fill="#FA4958" transform="translate(74,290)"/>
<path d="M0 0 C0.99 0 1.98 0 3 0 C4.14315747 2.28631494 4.12112732 3.54347406 4.11352539 6.08251953 C4.11344986 6.92324005 4.11337433 7.76396057 4.11329651 8.63015747 C4.10555458 9.99272171 4.10555458 9.99272171 4.09765625 11.3828125 C4.0962413 12.31221649 4.09482635 13.24162048 4.09336853 14.19918823 C4.08776053 17.17449124 4.07520668 20.14971964 4.0625 23.125 C4.05748603 25.13932183 4.05292295 27.15364484 4.04882812 29.16796875 C4.03863838 34.1120312 4.01906453 39.05593185 4 44 C-7.88 44 -19.76 44 -32 44 C-29.41568813 42.27712542 -26.98372548 41.00615011 -24.1875 39.6875 C-13.38409801 34.25448479 -7.61424981 26.23100488 -3.625 14.8125 C-2.21191578 10.1944205 -1.45257783 5.79732497 -1 1 C-0.67 0.67 -0.34 0.34 0 0 Z " fill="#FA4958" transform="translate(345,290)"/>
<path d="M0 0 C8.43700474 0.06771272 18.31927192 4.6221785 24.3125 10.4375 C25.13556208 17.84505869 23.57668983 25.13454623 22.3125 32.4375 C17.3125 27.4375 17.3125 27.4375 14.875 24.9375 C8.31951901 18.54190879 1.41839671 14.61071389 -6.6875 10.4375 C-6.37951674 8.95738629 -6.065982 7.47842675 -5.75 6 C-5.57597656 5.17628906 -5.40195313 4.35257812 -5.22265625 3.50390625 C-4.30873251 -0.02504016 -3.93175462 0.46647936 0 0 Z " fill="#69C54B" transform="translate(168.6875,81.5625)"/>
<path d="M0 0 C0.33 0 0.66 0 1 0 C1 10.56 1 21.12 1 32 C-8.24 32 -17.48 32 -27 32 C-25.19754668 30.79836445 -23.37340118 29.62718846 -21.51171875 28.51953125 C-10.76043067 22.02117317 -3.83760155 14.03946746 -0.33203125 1.63671875 C-0.16767578 0.82654297 -0.16767578 0.82654297 0 0 Z " fill="#A86952" transform="translate(433,350)"/>
<path d="M0 0 C2.9375 2.0625 2.9375 2.0625 5 5 C5.06641554 8.85210127 4.87229157 10.99848005 2.3125 13.9375 C-0.76819895 15.35295627 -2.64720251 15.55879958 -6 15 C-8.89648251 12.40841039 -9.87307907 10.7773907 -10.5 6.9375 C-10 4 -10 4 -8.375 1.625 C-5.24988831 -0.51323431 -3.71837535 -0.6829669 0 0 Z " fill="#080203" transform="translate(244,72)"/>
<path d="M0 0 C2.9375 2.0625 2.9375 2.0625 5 5 C5.06625411 8.8427383 4.81899419 10.99200716 2.375 14 C-1.11581787 15.46981805 -3.39148956 14.98413921 -7 14 C-9.5881216 11.74582958 -9.94242643 10.39479021 -10.4375 7 C-10 4 -10 4 -8.375 1.625 C-5.24988831 -0.51323431 -3.71837535 -0.6829669 0 0 Z " fill="#070202" transform="translate(273,72)"/>
<path d="M0 0 C2.9375 2.125 2.9375 2.125 5 5 C5.16299417 8.99335725 4.47797727 10.46739675 1.8125 13.4375 C-1 15 -1 15 -4.125 14.9375 C-8.55190311 13.49394464 -8.55190311 13.49394464 -10 11 C-10.46625573 8.24275935 -10.51045632 5.75302283 -10 3 C-7.21376523 -0.42921203 -4.23976577 -0.69220666 0 0 Z " fill="#090202" transform="translate(288,100)"/>
<path d="M0 0 C2.4375 1.5625 2.4375 1.5625 4 4 C4.5625 7.5 4.5625 7.5 4 11 C1.875 13.5 1.875 13.5 -1 15 C-4.97131876 15.08104732 -6.47755834 14.4688579 -9.4375 11.8125 C-11 9 -11 9 -10.9375 5.875 C-8.96256644 -0.18146292 -6.27169804 -0.77020853 0 0 Z " fill="#090203" transform="translate(230,100)"/>
<path d="M0 0 C2.4375 1 2.4375 1 4 3 C4.45352711 6.17468977 4.69511624 7.98984447 4 11 C1.875 13.5625 1.875 13.5625 -1 15 C-4.15548924 14.93689022 -6.13769198 14.48864121 -8.875 12.9375 C-10.71730752 9.76463704 -10.52772961 6.56774951 -10 3 C-7.82867609 -1.08719794 -4.198293 -0.44192558 0 0 Z " fill="#070202" transform="translate(259,100)"/>
<path d="M0 0 C1.875 1.0625 1.875 1.0625 3 3 C3.46625573 5.75724065 3.51045632 8.24697717 3 11 C0.80287161 13.70415801 -0.55941961 13.94492745 -4 14.375 C-7.44058039 13.94492745 -8.80287161 13.70415801 -11 11 C-11.45352711 7.82531023 -11.69511624 6.01015553 -11 3 C-7.56705737 -1.13972494 -5.05326616 -1.64780418 0 0 Z " fill="#060102" transform="translate(260,45)"/>
</svg>
