<?xml version="1.0" encoding="UTF-8"?>
<svg version="1.1" xmlns="http://www.w3.org/2000/svg" width="512" height="512">
<path d="M0 0 C0.99386719 0.26683594 1.98773438 0.53367188 3.01171875 0.80859375 C27.92174086 8.29157769 49.4551562 25.30650451 62.15039062 48.06201172 C71.53532268 65.91557116 75.20393694 83.89144053 75 104 C76.55726807 103.9685791 76.55726807 103.9685791 78.14599609 103.93652344 C82.04103505 103.86348042 85.93601497 103.81796966 89.83154297 103.78027344 C91.50938131 103.76030301 93.18715136 103.73311668 94.86474609 103.69824219 C109.22657364 103.40741304 119.68032472 105.04576787 130.625 115.25 C137.15383146 121.9806055 140.0090658 130.6021884 140.71697998 139.83714294 C140.77020684 140.50548869 140.82343369 141.17383443 140.87827349 141.86243308 C141.05494649 144.10756373 141.22041524 146.35337256 141.38574219 148.59936523 C141.51169536 150.23618602 141.63820148 151.87296434 141.7652092 153.50970364 C142.11409112 158.04076771 142.45185729 162.57259511 142.78625298 167.1047492 C143.00212167 170.02873849 143.21975731 172.95259193 143.4377594 175.87642288 C144.59228054 191.38590961 145.71326165 206.89777558 146.828125 222.41015625 C146.91516158 223.62028657 147.00219816 224.83041688 147.09187222 226.07721782 C147.9153458 237.52673884 148.73766676 248.97634191 149.55662918 260.42618656 C150.59481448 274.94027424 151.6393463 289.45387464 152.69234776 303.96689516 C153.43855471 314.25857885 154.17768724 324.55075595 154.91157222 334.84332556 C155.34790745 340.96024922 155.78727971 347.07691783 156.23429108 353.19307137 C156.65279399 358.92123722 157.06250351 364.64996566 157.46556473 370.37923813 C157.6143329 372.47239848 157.76622821 374.56533943 157.92157364 376.65802193 C160.3774578 409.81776197 160.3774578 409.81776197 149.875 422.25 C142.17195862 430.30778671 133.52139271 434.99582524 122.32800674 435.25726891 C120.03985557 435.27084384 117.75162348 435.27344011 115.46343994 435.26742554 C113.56725847 435.27422221 113.56725847 435.27422221 111.6327703 435.28115618 C108.13530817 435.29335875 104.6379419 435.29312897 101.14046335 435.29076743 C97.36391135 435.29035857 93.58738979 435.30140507 89.81085205 435.31088257 C82.41595165 435.32747865 75.02108313 435.33299149 67.62616566 435.33410732 C61.61335947 435.33505849 55.60056379 435.33917221 49.58776093 435.34550858 C32.53020112 435.36311745 15.47266646 435.37234804 -1.5849025 435.37084763 C-2.50402334 435.37076772 -3.42314419 435.3706878 -4.37011719 435.37060547 C-5.29036384 435.37052371 -6.2106105 435.37044195 -7.15874341 435.37035771 C-22.06918713 435.36954498 -36.97952979 435.38868015 -51.88994429 435.4168822 C-67.20980433 435.44562941 -82.52961511 435.45942147 -97.8495028 435.45769465 C-106.446442 435.45703137 -115.04327526 435.46249655 -123.64019012 435.48405075 C-130.96041127 435.50228677 -138.28047845 435.50659009 -145.60071251 435.4930319 C-149.33277277 435.48651431 -153.06453787 435.48634087 -156.79656982 435.5037384 C-160.84977026 435.52243812 -164.90229114 435.50988319 -168.95550537 435.49447632 C-170.12488325 435.50476344 -171.29426113 435.51505057 -172.4990747 435.52564943 C-184.8070096 435.42249696 -194.03821344 431.61940361 -202.90625 423.1875 C-211.36013904 414.3037522 -213.0961316 404.21071755 -212.97133863 392.25384998 C-212.84297437 389.50849455 -212.65877856 386.77326309 -212.45036316 384.03283691 C-212.34350558 382.48044933 -212.34350558 382.48044933 -212.23448926 380.89670038 C-211.99602366 377.46496277 -211.74451034 374.034314 -211.49291992 370.60351562 C-211.31820051 368.12869122 -211.14427653 365.65381055 -210.97108459 363.17887878 C-210.54886424 357.17614725 -210.11811982 351.17408393 -209.6832697 345.17225873 C-209.17629502 338.17026792 -208.67886527 331.16760852 -208.18170587 324.16491514 C-207.29376801 311.66293615 -206.39679176 299.16162197 -205.49487305 286.66064453 C-204.62141309 274.55405801 -203.75502716 262.44699177 -202.89624023 250.33935547 C-201.95915733 237.12803038 -201.01852858 223.91696755 -200.07144052 210.70635557 C-200.02126921 210.00652716 -199.97109789 209.30669874 -199.91940624 208.58566341 C-199.81866424 207.18044335 -199.71791499 205.77522381 -199.61715838 204.3700048 C-199.26810004 199.498983 -198.92140908 194.62779605 -198.57555199 189.75654602 C-198.10917771 183.18973694 -197.63650718 176.62340041 -197.15973473 170.05733681 C-196.9860633 167.65334792 -196.81429964 165.24922031 -196.64462662 162.84494591 C-196.4118987 159.55194496 -196.17210386 156.25952954 -195.93058777 152.96716309 C-195.86569426 152.0258927 -195.80080076 151.08462232 -195.73394078 150.11482859 C-194.63865467 135.50354265 -192.48077537 122.08321573 -181.21875 111.6875 C-173.49527955 105.81331121 -166.27156562 103.8381504 -156.734375 103.90234375 C-155.94097717 103.9037587 -155.14757935 103.90517365 -154.33013916 103.90663147 C-151.80338728 103.91221585 -149.27672496 103.92476546 -146.75 103.9375 C-145.03385545 103.94251702 -143.31770951 103.94707957 -141.6015625 103.95117188 C-137.40100731 103.96218016 -133.20051883 103.97943404 -129 104 C-129.01305176 102.80068848 -129.02610352 101.60137695 -129.03955078 100.36572266 C-129.05011239 98.75683793 -129.06034887 97.14795104 -129.0703125 95.5390625 C-129.0844519 94.35969116 -129.0844519 94.35969116 -129.09887695 93.15649414 C-129.21349047 68.36176906 -119.18135157 45.44510214 -101.90234375 27.8671875 C-100.93713206 26.90919997 -99.96984708 25.95329448 -99 25 C-98.23816406 24.23945312 -97.47632813 23.47890625 -96.69140625 22.6953125 C-71.82499106 -0.75668274 -32.54557114 -9.09072181 0 0 Z M-80 54 C-91.95649449 69.00820626 -96 84.99157919 -96 104 C-50.46 104 -4.92 104 42 104 C42 82.73885297 36.3329434 64.73348274 21.5625 49.125 C6.78741627 35.4318446 -11.47062695 28.99068428 -31.4453125 29.66015625 C-50.49472728 30.79376183 -67.52028683 39.64367008 -80 54 Z M-161 139 C-162.43032828 143.85246426 -162.45965 149.1114101 -162.81706238 154.13452148 C-162.89283188 155.16432097 -162.96860138 156.19412046 -163.04666692 157.255126 C-163.30004508 160.71023219 -163.54883708 164.16565296 -163.79760742 167.62109375 C-163.97809649 170.09646331 -164.15883269 172.57181486 -164.33979797 175.04714966 C-164.88172121 182.47534679 -165.41817214 189.90393101 -165.95365497 197.33259439 C-166.20601752 200.83161373 -166.45905567 204.3305842 -166.71203041 207.82955933 C-167.55268315 219.46011174 -168.39186461 231.09076872 -169.22648144 242.72175598 C-169.44289068 245.73735611 -169.65930204 248.75295608 -169.87573242 251.76855469 C-169.9564177 252.89279848 -169.9564177 252.89279848 -170.03873298 254.03975427 C-170.9112816 266.19372951 -171.79397743 278.34694527 -172.68093845 290.49987638 C-173.5914871 302.97815974 -174.49323721 315.45705398 -175.38625413 327.9366045 C-175.88784369 334.94310806 -176.39327825 341.94928786 -176.90849876 348.95480347 C-177.39277403 355.54004663 -177.86510815 362.12606893 -178.32928276 368.71276474 C-178.50177977 371.13302648 -178.67830818 373.55300468 -178.85911179 375.97266006 C-179.10485547 379.26960236 -179.33620374 382.5672472 -179.56388855 385.86547852 C-179.63906918 386.82802268 -179.71424981 387.79056684 -179.79170865 388.78227901 C-180.20883633 395.11296942 -180.20883633 395.11296942 -178 401 C-176.3558575 402.6441425 -174.46684293 402.1297626 -172.20012093 402.13422108 C-170.63238149 402.14090784 -170.63238149 402.14090784 -169.03297055 402.14772969 C-167.87064526 402.14754533 -166.70831997 402.14736097 -165.51077271 402.14717102 C-164.28696927 402.15084771 -163.06316583 402.1545244 -161.80227745 402.1583125 C-158.38984301 402.16746141 -154.97745675 402.17205384 -151.5650146 402.17470181 C-147.89076786 402.17859642 -144.21653517 402.18817528 -140.54229736 402.19691467 C-131.6616484 402.21670244 -122.78099825 402.22674798 -113.90033275 402.23564246 C-109.72266649 402.24002136 -105.54500152 402.24538918 -101.36733627 402.25063133 C-87.48751908 402.26764552 -73.60770269 402.28214114 -59.72787666 402.28938007 C-56.12376021 402.2912901 -52.51964377 402.29321041 -48.91552734 402.29516602 C-47.57177935 402.29589163 -47.57177935 402.29589163 -46.20088492 402.2966319 C-31.67911739 402.30493758 -17.15743208 402.33028272 -2.63570048 402.36274669 C12.25904079 402.39577426 27.15374021 402.41382491 42.0485183 402.41702431 C50.41726345 402.41919336 58.78588867 402.42799938 67.15459824 402.45348549 C74.27975426 402.47513381 81.40476125 402.483272 88.52994643 402.47351871 C92.16782023 402.4689569 95.80538615 402.47096826 99.44321823 402.49028015 C103.38121047 402.51100568 107.31877264 402.50098156 111.25680542 402.48774719 C112.41466926 402.49871644 113.57253311 402.50968568 114.76548374 402.52098733 C116.34104642 402.50811599 116.34104642 402.50811599 117.94843864 402.49498463 C119.31290998 402.49644984 119.31290998 402.49644984 120.7049464 402.49794465 C123.14126772 402.18709698 123.14126772 402.18709698 124.80561799 400.18331379 C126.57695991 396.94532527 126.1549355 393.93806927 125.85618591 390.37896729 C125.80440172 389.6065179 125.75261752 388.83406852 125.69926411 388.03821158 C125.52132624 385.44372268 125.32005248 382.8515735 125.11889648 380.25878906 C124.98649697 378.39844525 124.85553617 376.53799857 124.72590637 374.67745972 C124.36820487 369.60271272 123.99027383 364.52964713 123.60890079 359.45663166 C123.20929029 354.0944701 122.82832731 348.7309837 122.44532776 343.36761475 C121.71224989 333.14160224 120.96253465 322.91687958 120.20686823 312.69251418 C119.36449508 301.28500598 118.53964869 289.87625583 117.71681285 278.46732426 C116.68750139 264.19677895 115.65514069 249.9264728 114.60629272 235.65734863 C114.5290081 234.60573248 114.45172348 233.55411633 114.3720969 232.47063303 C114.29552801 231.4288293 114.21895912 230.38702558 114.14006996 229.31365204 C113.9877383 227.24100315 113.83541669 225.16835352 113.68310547 223.09570312 C113.60891034 222.08610314 113.53471521 221.07650316 113.45827174 220.03630924 C112.56323936 207.84518167 111.68800514 195.65304956 110.85682237 183.45739603 C110.71471201 181.37434138 110.5716722 179.29135282 110.42828846 177.20838547 C110.01625481 171.21663826 109.61030394 165.22466577 109.21934509 159.23150635 C109.08287196 157.2347164 108.94606305 155.23794935 108.80883789 153.24121094 C108.7285456 151.93788944 108.7285456 151.93788944 108.64663124 150.60823822 C108.33140622 146.15216608 107.92959801 142.09814047 106 138 C102.84239667 135.51470082 99.60811728 135.76784795 95.703125 135.8046875 C94.49785156 135.81113281 93.29257812 135.81757813 92.05078125 135.82421875 C90.79652344 135.84097656 89.54226563 135.85773438 88.25 135.875 C86.98027344 135.88402344 85.71054687 135.89304688 84.40234375 135.90234375 C81.26803907 135.92590995 78.13411459 135.95881168 75 136 C74.99413376 137.03903473 74.98826752 138.07806946 74.98222351 139.14859009 C74.9249726 148.94782475 74.85219849 158.746838 74.76428509 168.54584694 C74.71958677 173.58344544 74.68032936 178.62096317 74.65356445 183.65869141 C74.62752624 188.5217781 74.58711994 193.38455388 74.53681374 198.24744797 C74.52014857 200.10131331 74.50863211 201.95523242 74.50238609 203.80916214 C74.49274122 206.40907517 74.46467758 209.00819341 74.43237305 211.60791016 C74.43380814 212.37180054 74.43524323 213.13569092 74.4367218 213.92272949 C74.35327104 218.68183595 73.51951668 221.9579541 71 226 C65.59252697 230.87991469 62.14400251 231.35447128 54.98828125 231.27734375 C50.96052414 230.90352577 48.88975455 229.81565828 46 227 C43.02178852 222.20246163 42.55746927 218.03475978 42.56762695 212.51611328 C42.55221627 211.25122479 42.55221627 211.25122479 42.53649426 209.960783 C42.5067461 207.24721871 42.49708635 204.53401693 42.48828125 201.8203125 C42.47280641 200.13857773 42.45600798 198.4568546 42.43786621 196.77514648 C42.3800513 190.55855938 42.34781079 184.34175566 42.3125 178.125 C42.209375 164.22375 42.10625 150.3225 42 136 C-3.54 136 -49.08 136 -96 136 C-96.17043641 163.65822244 -96.17043641 163.65822244 -96.29785156 191.31665039 C-96.34326172 196.68054199 -96.34326172 196.68054199 -96.36956787 199.19602966 C-96.38412875 200.94317672 -96.39095134 202.69039918 -96.39154053 204.43760681 C-96.39396751 207.09310115 -96.42137637 209.74731634 -96.45410156 212.40258789 C-96.44907749 213.17371194 -96.44405342 213.94483599 -96.43887711 214.73932743 C-96.54445645 220.23103738 -97.88444106 223.45896831 -101 228 C-105.50225983 231.61511504 -109.53852222 231.49939009 -115.1171875 231.35546875 C-120.0159092 230.75142583 -122.64638012 228.54032607 -125.8125 224.9375 C-128.38122177 220.74642764 -128.135537 216.69134012 -128.11352539 211.94848633 C-128.11367142 211.12874832 -128.11381744 210.30901031 -128.1139679 209.46443176 C-128.11327096 206.75360472 -128.10548878 204.0428463 -128.09765625 201.33203125 C-128.09579129 199.45301857 -128.09436776 197.5740054 -128.09336853 195.69499207 C-128.08954948 190.74824685 -128.07972438 185.80153098 -128.06866455 180.85479736 C-128.0584373 175.80749915 -128.05386809 170.76019621 -128.04882812 165.71289062 C-128.03810159 155.80858086 -128.02103248 145.90429287 -128 136 C-132.56237931 135.91280369 -137.12454386 135.85954078 -141.6875 135.8125 C-142.98107422 135.78736328 -144.27464844 135.76222656 -145.60742188 135.73632812 C-146.85458984 135.72666016 -148.10175781 135.71699219 -149.38671875 135.70703125 C-150.53358154 135.6913208 -151.68044434 135.67561035 -152.86206055 135.65942383 C-156.42018391 136.04560465 -158.25465069 136.70810268 -161 139 Z " fill="#000000" transform="translate(283,40)"/>
</svg>
