<?xml version="1.0" encoding="UTF-8"?>
<svg version="1.1" xmlns="http://www.w3.org/2000/svg" width="512" height="512">
<path d="M0 0 C4.99818029 2.61578634 8.6700521 6.30109252 12.6066227 10.28569221 C13.40551741 11.07834697 14.20441212 11.87100172 15.02751577 12.68767631 C17.69304873 15.33729759 20.34410589 18.00093494 22.99538612 20.66481209 C24.90716658 22.57117058 26.81970983 24.47673497 28.73319435 26.38138008 C33.38419436 31.01462337 38.02435158 35.65857986 42.66067173 40.30650802 C46.43120873 44.08609246 50.20564874 47.86173768 53.98288536 51.63462639 C54.52126455 52.17239264 55.05964373 52.71015889 55.61433744 53.26422109 C56.70821687 54.35682157 57.80210524 55.44941308 58.89600246 56.54199575 C69.14612291 66.78071817 79.38396221 77.03165008 89.61762433 87.28681909 C98.38750342 96.07455824 107.16780248 104.85177159 115.95583534 113.62135506 C126.17216383 123.81624551 136.38193047 134.01763501 146.58141267 144.22938144 C147.67052029 145.31976319 148.75963624 146.41013662 149.8487606 147.50050163 C150.38455793 148.03691606 150.92035526 148.57333049 151.47238887 149.12599991 C155.23756115 152.89461706 159.00733679 156.65859082 162.77894402 160.42076683 C167.38054033 165.01110871 171.97486807 169.60858266 176.56021382 174.21515961 C178.89728637 176.56269806 181.23835169 178.90582983 183.58623505 181.24258423 C186.13733052 183.78270257 188.67571359 186.33490018 191.21135902 188.89042854 C191.94715994 189.61730657 192.68296085 190.34418459 193.44105875 191.09308922 C202.10693927 199.89068622 207.52314583 209.13604092 207.65700722 221.71901131 C207.37888818 239.32742275 196.8961752 249.15662178 185.16481972 260.89259529 C183.93504568 262.13000212 182.70567112 263.36780607 181.47666359 264.6059742 C178.15262114 267.95186047 174.82212302 271.29124525 171.48969078 274.62877345 C169.40237505 276.71974533 167.31636043 278.81200655 165.2307682 280.90469742 C157.93861161 288.22131523 150.64078087 295.53222355 143.33815956 302.83839607 C136.55764375 309.62254254 129.79036138 316.41969558 123.02901649 323.22294372 C117.2024162 329.08436971 111.36610058 334.93600563 105.52240944 340.78039223 C102.04185968 344.26173073 98.56530748 347.74683541 95.09871864 351.24208069 C91.83313142 354.53405896 88.55549772 357.81357096 85.26873779 361.0844059 C84.07372228 362.27762344 82.88285405 363.4750136 81.69681168 364.67715073 C72.01312989 374.48403382 61.56050495 382.939765 48.53200722 387.90651131 C47.38216347 388.35897224 46.23231972 388.81143318 45.04763222 389.27760506 C23.22878709 396.18087037 0.37849467 393.63578304 -19.9662838 383.81471443 C-29.91654447 378.64327565 -37.94144852 370.54598807 -45.79831505 362.69508553 C-46.76016491 361.74088096 -47.72240633 360.78707097 -48.68500328 359.83362007 C-51.27040068 357.26993677 -53.84941034 354.69992499 -56.42652822 352.12792158 C-58.04413616 350.51398377 -59.66302824 348.90134503 -61.28233719 347.289114 C-66.9520406 341.64382153 -72.61607487 335.99290525 -78.27536583 330.33717537 C-83.51791624 325.09825723 -88.77345146 319.87261719 -94.03507954 314.65286624 C-98.5802408 310.14259301 -103.11553934 305.62255345 -107.64363712 301.09515011 C-110.3357729 298.40380063 -113.03158417 295.71642667 -115.73767853 293.03910637 C-136.39635336 272.58681302 -152.03919451 252.82002642 -152.72482872 222.53541756 C-152.65861375 202.51957886 -146.09360554 182.96092199 -132.21426964 168.32003975 C-131.43034218 167.48260922 -131.43034218 167.48260922 -130.6305778 166.62826091 C-124.98394648 160.62869242 -119.17525945 154.79281507 -113.3400631 148.97755623 C-112.15582682 147.79360302 -110.97181266 146.60942761 -109.78800011 145.42505074 C-106.61749155 142.25425885 -103.44394081 139.08652862 -100.26977444 135.91939902 C-96.93679218 132.59272873 -93.60669986 129.26316792 -90.27628136 125.93393135 C-83.98881611 119.64955654 -77.69880946 113.36773199 -71.40785289 107.08685237 C-64.23763372 99.92786595 -57.07030231 92.76599132 -49.9031949 85.60388982 C-35.17797276 70.88908018 -20.44918359 56.17784549 -5.71799278 41.46901131 C-6.66555049 40.35127213 -7.61486791 39.2350246 -8.56491661 38.11940193 C-9.09337685 37.49763069 -9.62183708 36.87585945 -10.16631126 36.23524666 C-12.123261 34.00770592 -14.24101359 31.99372483 -16.40549278 29.96901131 C-21.18478281 25.22190505 -23.29113576 21.82288791 -24.15549278 15.03151131 C-23.41045651 8.96478736 -21.46400809 4.85869696 -16.65549278 1.03151131 C-11.05024655 -1.95000264 -5.86606535 -2.79667749 0 0 Z M13.38071632 69.22313118 C12.86548414 69.73468667 12.35025196 70.24624216 11.81940669 70.77329934 C10.07900466 72.50261451 8.34225981 74.23555697 6.60549355 75.96852303 C5.36405318 77.20370209 4.1224207 78.43868808 2.88060951 79.67349434 C-0.50454703 83.04120037 -3.88623679 86.41236608 -7.26679206 89.78469038 C-9.37963422 91.8923869 -11.49294054 93.99961704 -13.60635376 96.10674095 C-20.22015693 102.7014737 -26.83153335 109.29862758 -33.43996638 115.8987416 C-41.06381519 123.51283514 -48.69584698 131.11859976 -56.33503169 138.71730602 C-62.23939654 144.59145912 -68.13601537 150.47331658 -74.02694684 156.36094105 C-77.54452557 159.87617344 -81.06530594 163.38804862 -84.5942955 166.89182854 C-87.91993292 170.19409452 -91.23580912 173.5058648 -94.54465675 176.82495117 C-95.75611644 178.03690426 -96.97096041 179.24548609 -98.18954086 180.45027924 C-109.3639415 191.41223553 -109.3639415 191.41223553 -115.71799278 205.46901131 C-24.96799278 205.46901131 65.78200722 205.46901131 159.28200722 205.46901131 C155.43559855 200.98153453 151.64903506 196.69057512 147.48005104 192.54007149 C146.92843404 191.9868945 146.37681704 191.43371751 145.80848438 190.86377758 C143.97999294 189.03133271 142.14799051 187.20244111 140.31594276 185.37355232 C138.99629311 184.05254621 137.67685598 182.73132777 136.35761452 181.40991402 C132.79010067 177.83785764 129.21945085 174.26895175 125.64807677 170.70075536 C121.9101181 166.96533355 118.17460557 163.22746682 114.43869972 159.48999214 C108.17203887 153.22151482 101.90327834 146.95514308 95.63332558 140.68995857 C88.37521403 133.43730289 81.12073121 126.18103249 73.8680951 118.92290169 C67.64139699 112.69167452 61.41276351 106.46238697 55.18248969 100.23473495 C51.46082129 96.51462863 47.73983922 92.79384258 44.02059937 89.07130814 C40.53036602 85.57819861 37.03771949 82.08752051 33.54314804 78.59875107 C32.25748036 77.31441174 30.97267416 76.0292094 29.68876839 74.74310875 C27.94448421 72.99611638 26.19718889 71.25219462 24.44904518 69.50906563 C23.93466367 68.99245339 23.42028216 68.47584116 22.89031333 67.94357401 C18.10797861 63.18805511 18.06828193 64.55715605 13.38071632 69.22313118 Z " fill="#000000" transform="translate(197.71799278259277,27.530988693237305)"/>
<path d="M0 0 C25.14765035 13.30729831 45.23423944 56.21828149 53.375 82.1796875 C59.58902714 103.35075726 59.97733132 124.37438178 49.46875 144.265625 C40.83920814 158.79744785 27.08880675 169.67751172 10.78515625 174.2734375 C-7.79534593 178.70812089 -25.71673269 176.34894729 -42.12939453 166.58984375 C-56.45529605 157.22621613 -66.11271488 142.80585604 -70.40014648 126.35375977 C-71.41223039 121.31476002 -71.48783367 116.36783299 -71.4375 111.2421875 C-71.42992676 110.1497876 -71.42235352 109.0573877 -71.41455078 107.93188477 C-71.22669165 98.61228901 -69.87776913 90.2106816 -67 81.3671875 C-66.80164551 80.73119629 -66.60329102 80.09520508 -66.39892578 79.43994141 C-58.98635777 56.15256583 -45.2623071 35.23446248 -30 16.3671875 C-29.50145508 15.74827637 -29.00291016 15.12936523 -28.48925781 14.49169922 C-26.92385134 12.56284283 -25.340667 10.65024575 -23.75 8.7421875 C-23.02514404 7.85358032 -23.02514404 7.85358032 -22.28564453 6.94702148 C-16.33746523 -0.06515086 -9.00090022 -2.84794109 0 0 Z " fill="#000000" transform="translate(409,309.6328125)"/>
</svg>
