<?xml version="1.0" encoding="UTF-8"?>
<svg version="1.1" xmlns="http://www.w3.org/2000/svg" width="512" height="512">
<path d="M0 0 C0.79635343 -0.00320648 1.59270686 -0.00641296 2.41319221 -0.0097166 C5.09822213 -0.01805889 7.78303144 -0.01207758 10.46806526 -0.00622082 C12.405899 -0.00923958 14.34373155 -0.01312766 16.28156197 -0.01781338 C21.61970097 -0.02813772 26.95777315 -0.02590032 32.29591775 -0.02163279 C38.04789796 -0.01917358 43.79986175 -0.02816969 49.55183601 -0.03567028 C60.82570497 -0.04844186 72.09955014 -0.05020791 83.37342511 -0.04787002 C92.53422792 -0.04608941 101.69502348 -0.04783096 110.85582542 -0.05209446 C112.15797091 -0.05268965 113.4601164 -0.05328484 114.80172084 -0.05389806 C117.44675031 -0.05510977 120.09177979 -0.05632391 122.73680927 -0.05754044 C140.50561612 -0.06533174 158.27441986 -0.06924392 176.04322815 -0.06522369 C176.7383571 -0.06506732 177.43348604 -0.06491094 178.14967951 -0.06474983 C181.67300659 -0.06394402 185.19633367 -0.06309825 188.71966074 -0.06223653 C189.41942584 -0.06206544 190.11919094 -0.06189435 190.84016105 -0.06171808 C192.25525684 -0.06137142 193.67035263 -0.06102289 195.08544842 -0.06067249 C217.1055915 -0.05531498 239.12569454 -0.06324554 261.14583015 -0.08170605 C285.87624754 -0.10241434 310.60663918 -0.11311988 335.33706582 -0.10913056 C348.434792 -0.10721532 361.5324817 -0.10973737 374.63020134 -0.1238451 C385.78057054 -0.13573341 396.9308808 -0.13719252 408.08125077 -0.12505493 C413.77305914 -0.11914824 419.46475959 -0.11811609 425.1565609 -0.13005733 C430.36387476 -0.1408554 435.57098978 -0.13788559 440.7782941 -0.12379565 C442.66521351 -0.12113188 444.5521482 -0.12356749 446.43905269 -0.13153151 C448.99865271 -0.14158749 451.55755487 -0.13325869 454.11712646 -0.12025452 C454.85426335 -0.12756386 455.59140024 -0.13487321 456.3508746 -0.14240405 C462.48091408 -0.07759554 466.36636347 1.60555477 470.87190437 5.69197559 C475.60269432 10.93420229 477.33746927 14.28417877 477.49690437 21.44197559 C477.53428719 22.52865528 477.57167 23.61533497 477.61018562 24.73494434 C476.67594773 32.45740623 471.84872456 38.41541172 467.30940437 44.50447559 C466.14397183 46.0920124 464.97995974 47.68059276 463.81721687 49.27010059 C463.21812508 50.08801075 462.61903328 50.90592091 462.00178719 51.74861622 C459.00676702 55.87823564 456.0969819 60.06650083 453.18440437 64.25447559 C448.72601744 70.65558197 444.21145312 77.00929164 439.62190437 83.31697559 C435.158519 89.45396116 430.82119117 95.66340537 426.55940437 101.94197559 C422.25057397 108.28902658 417.84069739 114.53608617 413.27327156 120.69929981 C409.36554103 125.97883306 405.57720171 131.33692649 401.80305672 136.71248341 C398.16487517 141.88652651 394.46671084 147.01390491 390.74690437 152.12947559 C386.243283 158.32970359 381.86333238 164.60162956 377.55940437 170.94197559 C373.25111989 177.2881878 368.84103704 183.53379242 364.27546883 189.69710255 C358.78066234 197.12329622 353.49292688 204.69463201 348.18440437 212.25447559 C342.11081709 220.89658453 336.01040027 229.51568525 329.80940437 238.06697559 C323.32922751 247.01406579 316.9384334 256.02138347 310.66292 265.11336231 C309.76441909 266.41452694 308.8628905 267.71361683 307.95588875 269.00887012 C299.56103239 281.03714922 297.58810767 292.28910323 297.67024422 306.72810841 C297.66477227 308.35235219 297.65752439 309.97659081 297.64865303 311.60081959 C297.63341015 315.07438188 297.63047435 318.54764923 297.63741875 322.02123737 C297.64827281 327.51891946 297.63074536 333.01629719 297.60960579 338.51393604 C297.57943932 347.20926509 297.56765959 355.90450293 297.56402934 364.59987998 C297.5573644 380.17674725 297.52828062 395.75355138 297.47893298 411.3303411 C297.46248122 416.79079967 297.45700903 422.25112556 297.46052337 427.7116065 C297.46096154 431.10992424 297.4533797 434.50819215 297.44384766 437.90649509 C297.44117392 439.47699882 297.44190115 441.04751275 297.44635773 442.61801243 C297.49837642 462.31691073 297.49837642 462.31691073 291.18440437 470.25447559 C286.72869005 474.5252625 281.58067557 476.29586349 275.90315437 478.42244434 C274.87685417 478.81508472 273.85055397 479.20772511 272.79315376 479.61226368 C269.42683579 480.89760027 266.05575188 482.16989622 262.68440437 483.44197559 C260.35477495 484.32835592 258.02543194 485.21548936 255.69636726 486.10335255 C249.71026694 488.38254803 243.7199562 490.6504411 237.72816658 492.91463184 C233.17440352 494.63634188 228.62263248 496.36328097 224.07084846 498.09021473 C215.21492843 501.44944758 206.35645652 504.80189929 197.49299812 508.14119434 C196.68918205 508.44440601 195.88536598 508.74761768 195.05719185 509.06001759 C187.18582874 512.02172456 179.3728143 514.07912222 170.98518562 511.60603809 C164.87637934 508.39376693 160.28706588 502.7476233 158.18440437 496.25447559 C157.99697834 493.49011533 157.91170728 490.82811719 157.92611885 488.06525135 C157.92244315 487.24456844 157.91876744 486.42388553 157.91498035 485.57833344 C157.90500607 482.83026212 157.90915011 480.08239338 157.91316414 477.33430958 C157.90877659 475.36291762 157.90347433 473.39152752 157.89732552 471.42014027 C157.88582384 467.17442599 157.88036595 462.92876164 157.87944412 458.68303204 C157.87750261 451.96250216 157.85944324 445.24207528 157.83868599 438.5215807 C157.78950147 421.82326046 157.75865028 405.12491215 157.73738289 388.4265337 C157.72083934 375.4592544 157.69795576 362.49206319 157.65436214 349.5248428 C157.63264136 342.85203737 157.62452286 336.17939949 157.62675488 329.50656116 C157.62508118 325.34212253 157.61098932 321.17779203 157.5935421 317.01339245 C157.58797018 315.09143076 157.58743174 313.16944639 157.59247971 311.24748325 C157.64717576 287.97006998 150.66191408 273.78356738 137.18440437 255.25447559 C135.03744261 252.29695939 132.89171036 249.33855552 130.74690437 246.37947559 C129.93987068 245.26802174 129.93987068 245.26802174 129.11653328 244.13411427 C125.16831469 238.67517575 121.34308965 233.1409243 117.55940437 227.56697559 C113.25055737 221.2199348 108.84069804 214.97286589 104.27327156 208.80965137 C100.36554103 203.53011812 96.57720171 198.1720247 92.80305672 192.79646778 C89.16487517 187.62242468 85.46671084 182.49504628 81.74690437 177.37947559 C77.243283 171.1792476 72.86333238 164.90732163 68.55940437 158.56697559 C64.25111989 152.22076339 59.84103704 145.97515877 55.27546883 139.81184864 C49.78066234 132.38565497 44.49292688 124.81431918 39.18440437 117.25447559 C33.11082417 108.61237673 27.01096283 99.99285011 20.80940437 91.44197559 C15.60093068 84.25973162 10.49556388 77.01038765 5.42634773 69.72932911 C1.47386117 64.06334636 -2.55764041 58.46109629 -6.62809563 52.87947559 C-24.11255298 28.815924 -24.11255298 28.815924 -22.81559563 17.25447559 C-20.75422767 9.70440502 -16.61002968 5.38179894 -10.19274223 1.19591743 C-6.82360989 -0.13838906 -3.56904013 -0.02115236 0 0 Z M9.18440437 26.25447559 C11.16559605 30.21685895 13.48171329 33.75207701 15.99690437 37.37947559 C16.48118904 38.08104786 16.96547371 38.78262012 17.46443367 39.50545216 C21.60834171 45.4813412 25.86053527 51.37588232 30.13484383 57.25887012 C34.21333724 62.88169396 38.21352769 68.55524198 42.18440437 74.25447559 C46.62766763 80.63020573 51.1181879 86.96620668 55.68440437 93.25447559 C60.85633005 100.37688419 65.9203187 107.56914416 70.95173836 114.79134083 C74.82622806 120.34268 78.76399383 125.84302983 82.74690437 131.31697559 C87.21028975 137.45396116 91.54761758 143.66340537 95.80940437 149.94197559 C100.11823478 156.28902658 104.52811135 162.53608617 109.09553719 168.69929981 C113.00326771 173.97883306 116.79160704 179.33692649 120.56575203 184.71248341 C124.20393358 189.88652651 127.9020979 195.01390491 131.62190437 200.12947559 C136.69518161 207.11396051 141.59383129 214.2035402 146.44099617 221.34627247 C149.8457126 226.34625622 153.33570987 231.26740287 156.93440437 236.12947559 C161.82925734 242.7446179 166.59617465 249.42151509 171.18440437 256.25447559 C171.75030281 257.08076466 172.31620125 257.90705372 172.89924812 258.75838184 C183.5522435 275.21224493 184.48131776 294.07957863 184.50325203 313.07991505 C184.51256847 314.94388219 184.52273965 316.80784523 184.53369331 318.67180347 C184.56081406 323.6935921 184.5760891 328.71535296 184.58912134 333.73719525 C184.60483096 338.99959453 184.63159591 344.26193775 184.65715218 349.52429676 C184.70380204 359.47218782 184.74061261 369.42008958 184.77382505 379.36803359 C184.81214429 390.70068146 184.86152856 402.03327285 184.91180921 413.36587298 C185.01492376 436.6620319 185.10425031 459.95822715 185.18440437 483.25447559 C196.45227751 479.35104368 207.68546615 475.39633827 218.81721687 471.11775684 C219.98598366 470.67103123 221.15475044 470.22430561 222.3589344 469.76404285 C224.78726249 468.83532652 227.21509004 467.90530034 229.64241219 466.97395802 C233.33761673 465.55615084 237.03430676 464.1422747 240.73127937 462.72908497 C243.11417744 461.81719917 245.49699296 460.9050976 247.87971687 459.99275684 C248.96842079 459.576012 250.05712471 459.15926716 251.17881966 458.72989368 C252.21465187 458.33235386 253.25048409 457.93481403 254.31770515 457.52522755 C255.21224403 457.18216068 256.10678291 456.83909382 257.02842903 456.48563099 C261.4251929 454.77044029 265.80454908 453.01231869 270.18440437 451.25447559 C270.18660421 450.00739779 270.18660421 450.00739779 270.1888485 448.7351265 C270.22599473 428.45092541 270.28511261 408.16689037 270.36830711 387.88282394 C270.40801747 378.07335564 270.44045047 368.26396664 270.45540047 358.45442677 C270.46845863 349.89859583 270.49552885 341.34293997 270.53901744 332.78720766 C270.56153906 328.26227299 270.57732068 323.73755348 270.57628822 319.21255779 C270.57553607 314.94181546 270.59370682 310.67154707 270.6255722 306.40092754 C270.63399792 304.84468217 270.63587182 303.28838316 270.63020706 301.73212528 C270.55784661 278.77054971 279.30352582 261.62171921 292.6082325 243.42342091 C295.1555969 239.91803285 297.6341096 236.36474438 300.12190437 232.81697559 C304.22392632 226.99310901 308.3772205 221.20848248 312.55940437 215.44197559 C317.77063661 208.25592772 322.87715488 201.00170618 327.95125008 193.71834278 C331.8258724 188.16674136 335.76371479 182.66607971 339.74690437 177.19197559 C344.19471995 171.07867248 348.5078598 164.88918826 352.74690437 158.62947559 C357.25669272 151.9732957 361.94037999 145.49533804 366.80793953 139.09724903 C370.69462208 133.96708418 374.35915425 128.71151811 377.97444344 123.38777637 C381.41274271 118.33815723 384.96281586 113.37984663 388.55940437 108.44197559 C393.086336 102.22206702 397.49008135 95.93273267 401.80940437 89.56697559 C406.11810836 83.21984167 410.52811497 76.97286014 415.09553719 70.80965137 C418.99515284 65.54108171 422.77701609 60.19506501 426.54158211 54.82942677 C429.25346867 50.97072909 431.98936716 47.13193932 434.76252937 43.31697559 C435.35437019 42.50269093 435.94621101 41.68840626 436.5559864 40.8494463 C437.70022091 39.27839416 438.84692041 37.70913354 439.99641609 36.14192677 C440.51478035 35.43012257 441.03314461 34.71831837 441.56721687 33.98494434 C442.25388435 33.04751392 442.25388435 33.04751392 442.9544239 32.09114552 C444.4343852 29.96468293 444.4343852 29.96468293 446.18440437 26.25447559 C301.97440437 26.25447559 157.76440437 26.25447559 9.18440437 26.25447559 Z " fill="#000000" transform="translate(28.815595626831055,-0.25447559356689453)"/>
</svg>
