<?xml version="1.0" encoding="UTF-8"?>
<svg version="1.1" xmlns="http://www.w3.org/2000/svg" width="512" height="512">
<path d="M0 0 C1.09280273 0.00491455 2.18560547 0.0098291 3.31152344 0.01489258 C27.43855354 0.36195446 48.42619294 8.65222558 65.96484375 25.36328125 C87.86682222 48.39288633 91.6271583 79.95674306 91.05403137 110.26443481 C90.09722014 144.49040652 76.09789675 183.83736317 51.1875 208.125 C48.736268 210.03407716 46.85340578 210.73217069 43.75 210.9375 C39.4140897 210.24926027 37.16970365 209.09652254 33.8125 206.3125 C31.80656802 202.30063604 31.76553796 198.64591509 32.8125 194.3125 C34.80619011 191.31649767 36.93631515 188.6485638 39.25561523 185.90917969 C61.01740365 160.03479091 70.08689798 121.8480849 67.53125 88.66015625 C65.43117432 69.4161935 59.22912369 50.21770108 44.27734375 37.0859375 C28.01850425 24.5935342 8.07646806 21.40414857 -11.8828125 23.74609375 C-25.5135853 26.20085261 -36.60571282 32.41354565 -46.1875 42.3125 C-46.90679687 43.04597656 -47.62609375 43.77945313 -48.3671875 44.53515625 C-52.93949711 49.42666484 -57.84116364 54.96423479 -60.1875 61.3125 C-58.87271717 64.91389643 -56.54690187 67.20086468 -53.86474609 69.87817383 C-52.5222731 71.22526176 -52.5222731 71.22526176 -51.15267944 72.5995636 C-50.1722756 73.57306424 -49.1916903 74.54638217 -48.2109375 75.51953125 C-47.20126439 76.52801071 -46.19196236 77.53686182 -45.18301392 78.54606628 C-43.06600618 80.6615107 -40.94568646 82.77355838 -38.82275391 84.88305664 C-36.12135179 87.5675674 -33.42647954 90.25851413 -30.73389244 92.95186329 C-28.64762476 95.03785682 -26.55874324 97.12121658 -24.46901321 99.20374107 C-23.47582349 100.19377914 -22.48321144 101.1843971 -21.49122238 102.1756382 C-16.41364381 107.24520703 -11.29818444 112.1998823 -5.85336304 116.87446594 C-2.33922384 119.90799976 0.90513321 123.22071235 4.1875 126.5 C4.89777344 127.19802734 5.60804688 127.89605469 6.33984375 128.61523438 C7.01917969 129.29263672 7.69851563 129.97003906 8.3984375 130.66796875 C9.0073584 131.27278076 9.6162793 131.87759277 10.24365234 132.50073242 C13.44677789 136.19982901 14.06648508 138.95851785 13.9921875 143.81640625 C13.97381836 145.0605127 13.95544922 146.30461914 13.93652344 147.58642578 C13.89714366 149.1618341 13.85556701 150.73718816 13.8125 152.3125 C13.78724243 153.28644714 13.76198486 154.26039429 13.73596191 155.26385498 C13.546512 162.33803221 13.31686693 169.4103511 13.06787109 176.48266602 C12.93698383 180.26491571 12.81810672 184.04743469 12.69921875 187.83007812 C12.61532486 190.25002582 12.53071484 192.66994882 12.4453125 195.08984375 C12.41188751 196.21285385 12.37846252 197.33586395 12.34402466 198.49290466 C11.83697638 211.9084343 11.83697638 211.9084343 7.8125 216.6875 C4.13116971 219.67858086 1.52489345 219.6319843 -3.1875 219.3125 C-7.41043407 217.48896029 -9.16113278 215.38685286 -11.1875 211.3125 C-11.49804688 208.44628906 -11.49804688 208.44628906 -11.40625 205.328125 C-11.37917969 204.18150391 -11.35210937 203.03488281 -11.32421875 201.85351562 C-11.27910156 200.68498047 -11.23398437 199.51644531 -11.1875 198.3125 C-11.13529297 196.69118164 -11.13529297 196.69118164 -11.08203125 195.03710938 C-10.9280576 190.63293204 -10.7396969 186.23058196 -10.54296875 181.828125 C-10.44725144 179.44339653 -10.40269595 177.05631828 -10.39648438 174.66967773 C-10.3342672 171.30078627 -9.79046885 168.20943664 -9.11914062 164.91040039 C-7.78870592 156.52168712 -7.52028374 148.79155865 -12.60961914 141.5947876 C-19.91767241 132.25903996 -28.84151123 124.254457 -37.53765869 116.24572754 C-41.1423101 112.89947958 -44.67495298 109.47890677 -48.21484375 106.06445312 C-55.13831205 99.40700676 -62.13619217 92.83421038 -69.1875 86.3125 C-71.0452453 89.09911794 -71.66352619 90.64628638 -72.40625 93.8125 C-72.61548096 94.69486328 -72.82471191 95.57722656 -73.0402832 96.48632812 C-73.25386475 97.41896484 -73.46744629 98.35160156 -73.6875 99.3125 C-73.90817139 100.26060547 -74.12884277 101.20871094 -74.35620117 102.18554688 C-77.27018722 114.12257637 -77.27018722 114.12257637 -78.1875 126.3125 C-77.4140625 126.6528125 -76.640625 126.993125 -75.84375 127.34375 C-62.61388446 133.50022208 -56.77369311 141.16470636 -51.1875 154.3125 C-47.73905155 166.13511808 -49.74823381 179.08164172 -55.47265625 189.6953125 C-61.69047083 199.91400499 -70.92895964 206.91725573 -82.54296875 209.921875 C-95.63502901 211.8557096 -107.40264976 210.37347248 -118.5625 203 C-127.28390899 196.41359193 -133.64512816 187.51270684 -135.90234375 176.62109375 C-137.48023891 163.84662742 -135.87871474 152.313546 -128.625 141.5 C-122.51776432 133.70957832 -114.72326925 128.0370055 -105.1875 125.3125 C-104.1975 125.3125 -103.2075 125.3125 -102.1875 125.3125 C-102.02894531 124.02859375 -101.87039063 122.7446875 -101.70703125 121.421875 C-101.47196043 119.63533679 -101.23624726 117.84888302 -101 116.0625 C-100.84821289 114.81146484 -100.84821289 114.81146484 -100.69335938 113.53515625 C-99.35370662 103.61448452 -96.71023039 93.9846814 -94.1875 84.3125 C-101.44265372 84.5761219 -108.69768185 84.84302224 -115.95263672 85.11206055 C-118.41387284 85.20296121 -120.87513545 85.29314774 -123.33642578 85.38256836 C-126.90144161 85.51221847 -130.46634998 85.6445515 -134.03125 85.77734375 C-135.10797974 85.81593002 -136.18470947 85.8545163 -137.29406738 85.89427185 C-139.39329808 85.97342883 -141.49185086 86.07435231 -143.58882618 86.19977093 C-147.1875 86.3125 -147.1875 86.3125 -150.73241711 86.01421928 C-158.49670181 85.69915008 -163.40486737 86.74699609 -169.40411389 91.85276204 C-173.21798505 95.39887927 -176.84914089 99.10296113 -180.4699707 102.84448242 C-182.12927078 104.50310161 -183.79186063 106.15843518 -185.4574585 107.81072998 C-189.95176558 112.28797759 -194.39826601 116.81008556 -198.83702493 121.34232116 C-203.02254921 125.60230843 -207.24195882 129.82836572 -211.46088066 134.05521778 C-219.81560089 142.42809067 -228.1352805 150.8349085 -236.43432617 159.26293945 C-244.47994199 167.43349151 -252.54531464 175.58377279 -260.63549805 183.71020508 C-261.13440051 184.21135219 -261.63330298 184.7124993 -262.14732371 185.22883268 C-264.15301 187.24344282 -266.15875238 189.25799709 -268.16458936 191.27245719 C-276.35480905 199.49884528 -284.5303182 207.73984394 -292.70302176 215.98362947 C-294.56308096 217.85976969 -296.42347713 219.73557589 -298.28420663 221.61105132 C-303.58518184 226.95494957 -308.8783019 232.30639037 -314.1590271 237.67030334 C-315.75972484 239.29414698 -317.36291872 240.91553438 -318.96877098 242.53428078 C-321.15909096 244.74328392 -323.33994874 246.96121537 -325.51850891 249.18180847 C-326.15642673 249.82121957 -326.79434456 250.46063066 -327.45159322 251.11941785 C-331.9215225 255.70570924 -334.80546935 259.68073329 -335.75 266.1875 C-335.25590267 276.04545966 -323.41631365 284.36638161 -316.83569336 290.9230957 C-315.58143959 292.18006325 -314.32761087 293.43745507 -313.07417297 294.69523621 C-309.68639381 298.09209277 -306.29236769 301.48264122 -302.89687037 304.87178063 C-299.33812018 308.42545007 -295.78427173 311.98401618 -292.22962952 315.54179382 C-286.26401836 321.51103716 -280.29421678 327.47606527 -274.32202148 333.4387207 C-267.41995587 340.32988826 -260.52514478 347.22825127 -253.63402838 354.13036662 C-247.70974699 360.06372436 -241.78157658 365.99317531 -235.85013872 371.91937894 C-232.31062975 375.45577207 -228.77248087 378.99349752 -225.23783684 382.5347538 C-221.91728538 385.86108363 -218.5918774 389.18248069 -215.26266289 392.50013924 C-214.04231024 393.7178486 -212.82365408 394.93726089 -211.6068306 396.15849686 C-209.94506284 397.82573406 -208.27724976 399.48668195 -206.60777283 401.14619446 C-205.67625869 402.07695455 -204.74474455 403.00771463 -203.78500271 403.96667957 C-199.05830821 408.235386 -195.78216221 409.79783515 -189.5234375 409.62109375 C-186.44351918 409.21421491 -183.88139471 408.1172478 -181.03125 406.9296875 C-178.09052523 405.94529235 -176.08795122 406.34568293 -173.1875 407.3125 C-168.61122881 410.46504237 -168.61122881 410.46504237 -167.1875 413.3125 C-166.52129049 418.07113938 -166.66929588 421.39700606 -169.0625 425.625 C-174.89057268 431.50204808 -183.29492827 432.94380869 -191.24609375 433.33984375 C-207.58363103 433.18796757 -217.90168234 423.33807301 -228.73364258 412.39746094 C-230.0545246 411.08172613 -231.37647493 409.7670631 -232.69940186 408.4533844 C-236.26644834 404.90475654 -239.81770525 401.34071675 -243.3656714 397.77302456 C-247.09327898 394.02895206 -250.83355885 390.2975743 -254.57194519 386.56427002 C-260.84545402 380.2952731 -267.10872927 374.01619216 -273.3659668 367.73095703 C-280.5853737 360.47949562 -287.82068518 353.24420835 -295.06475145 346.01738715 C-302.05312056 339.04491783 -309.03009564 332.06115267 -316.00198936 325.07221222 C-318.96028822 322.10706684 -321.92246259 319.14587626 -324.88788795 316.18785858 C-328.383104 312.70034075 -331.86818022 309.20298748 -335.34588623 305.6980114 C-336.61866895 304.4183811 -337.89480301 303.1420735 -339.1746273 301.86948586 C-349.5937543 291.50247255 -358.58467076 281.71776496 -358.625 266.1875 C-358.54959957 244.98170051 -341.62512666 232.59983928 -327.71557617 218.6953125 C-326.055537 217.03227695 -324.39570162 215.36903795 -322.73605347 213.70561218 C-318.25334773 209.21411793 -313.76744612 204.7258291 -309.28066421 200.23840714 C-306.00521023 196.96212069 -302.73079259 193.68480001 -299.45647324 190.40737969 C-290.6514954 181.59411811 -281.84425852 172.7831206 -273.03478082 163.97435701 C-272.53611809 163.47573424 -272.03745536 162.97711146 -271.52368164 162.46337891 C-271.0244065 161.96414465 -270.52513136 161.46491039 -270.01072667 160.95054781 C-261.8976579 152.83788657 -253.78960527 144.72023227 -245.68377765 136.60033655 C-237.34775655 128.24996242 -229.00802356 119.90331145 -220.66439039 111.56054306 C-215.98504148 106.88152614 -211.30734093 102.20088224 -206.63344383 97.51641846 C-202.24574384 93.11906768 -197.85330933 88.72650296 -193.45713425 84.3376255 C-191.84288524 82.72442561 -190.2303519 81.10950687 -188.61964226 79.49277306 C-186.42562362 77.29107881 -184.22557172 75.09559788 -182.02384949 72.90161133 C-181.38406967 72.25668795 -180.74428985 71.61176456 -180.08512276 70.94729805 C-179.49401501 70.36078909 -178.90290725 69.77428013 -178.29388714 69.16999817 C-177.78690279 68.66279645 -177.27991844 68.15559473 -176.75757092 67.63302326 C-172.43574505 63.99811001 -168.04667484 63.91873549 -162.59375 63.71484375 C-161.74255585 63.67592514 -160.89136169 63.63700653 -160.01437378 63.59690857 C-157.23905755 63.47236204 -154.46339256 63.36089285 -151.6875 63.25 C-149.77422355 63.16747035 -147.86097478 63.08429645 -145.94775391 63.00048828 C-141.22126082 62.79607989 -136.49439324 62.60310167 -131.76721191 62.41534424 C-129.41991242 62.32176548 -127.07273305 62.2257322 -124.72558594 62.12841797 C-111.54366246 61.58711564 -98.38187497 61.12810656 -85.1875 61.3125 C-84.92066406 60.44882813 -84.65382813 59.58515625 -84.37890625 58.6953125 C-80.63325792 48.06012742 -74.16858911 39.04530151 -67.1875 30.3125 C-66.41792969 29.31089844 -66.41792969 29.31089844 -65.6328125 28.2890625 C-50.04937019 8.83177013 -24.18126575 -0.12958274 0 0 Z M-107.5 152.3125 C-111.70217965 156.64905168 -113.88458164 161.22572911 -114.75 167.1875 C-114.4012863 173.48925478 -111.14304986 179.3054883 -106.8125 183.75 C-100.95637224 187.23579033 -95.98961823 189.29383326 -89.1875 188.3125 C-82.56179028 186.14200888 -77.32868309 182.74439232 -73.8125 176.625 C-71.38259142 171.20364934 -71.09816307 165.70284275 -72.91796875 160.0390625 C-74.9354686 155.60879753 -77.26684251 153.26437148 -81.1875 150.3125 C-81.23648438 151.39789063 -81.28546875 152.48328125 -81.3359375 153.6015625 C-81.41101986 155.04689784 -81.48656528 156.49220919 -81.5625 157.9375 C-81.60890625 159.00677734 -81.60890625 159.00677734 -81.65625 160.09765625 C-81.93426339 165.14823287 -82.34406784 170.08501948 -85.6875 174.125 C-89.09143752 176.81978387 -91.92988551 176.60115183 -96.1875 176.3125 C-100.02419127 174.60730388 -101.61747418 173.15264002 -103.1875 169.3125 C-103.50634766 167.11425781 -103.50634766 167.11425781 -103.6015625 164.765625 C-103.64023437 163.92128906 -103.67890625 163.07695312 -103.71875 162.20703125 C-103.7496875 161.33433594 -103.780625 160.46164063 -103.8125 159.5625 C-103.85117187 158.67433594 -103.88984375 157.78617188 -103.9296875 156.87109375 C-104.02370873 154.6851002 -104.10936143 152.49910938 -104.1875 150.3125 C-105.57100509 150.20347468 -105.57100509 150.20347468 -107.5 152.3125 Z " fill="#000000" transform="translate(390.1875,33.6875)"/>
<path d="M0 0 C1.19882812 0.31710938 2.39765625 0.63421875 3.6328125 0.9609375 C18.32074835 5.35796288 32.6197617 12.67838852 44 23 C44.81339844 23.68449219 45.62679687 24.36898438 46.46484375 25.07421875 C69.04575035 44.45413397 82.64060745 72.405644 85 102 C86.95278149 134.82496518 76.58293869 164.06792723 54.95874023 188.69750977 C36.89142297 208.78669852 10.95207276 222.18241267 -16 225 C-49.42589101 226.74406633 -79.55147059 219.41055618 -105 197 C-106.08076847 196.14259035 -107.16364219 195.28781671 -108.25 194.4375 C-129.34870097 175.73637868 -141.57199822 147.42730388 -143.78125 119.6328125 C-145.56013786 88.98623705 -136.19872617 60.96311594 -117 37 C-116.46375 36.32066406 -115.9275 35.64132812 -115.375 34.94140625 C-98.63693728 14.51915038 -70.57815231 0.28315 -44.60400391 -2.77294922 C-29.67794778 -4.07439608 -14.51619027 -3.90698338 0 0 Z M-98.98046875 50.25390625 C-116.4360169 70.8939928 -122.30371823 95.38966236 -121 122 C-118.90710078 145.20893802 -105.67222611 167.51508537 -88.04907227 182.4152832 C-68.58767243 198.07359774 -43.77063691 205.41755773 -18.90283203 202.77734375 C5.2598302 199.5166186 28.19880285 187.55442772 43.23828125 168.10546875 C58.66597762 146.66226724 65.73217007 122.61139034 61.78515625 96.23046875 C57.43592249 71.04429347 43.41763398 49.36241057 22.62158203 34.65307617 C-15.80434284 8.54107476 -68.22606529 15.7228253 -98.98046875 50.25390625 Z " fill="#000000" transform="translate(356,255)"/>
<path d="M0 0 C3.3000087 1.8600049 5.47870387 3.20671693 6.5740509 6.97476196 C7.31251023 12.91671052 6.43986884 16.91697803 4.01171875 22.3359375 C3.68177917 23.11666626 3.3518396 23.89739502 3.01190186 24.70178223 C1.92242342 27.26795235 0.80510027 29.82096783 -0.3125 32.375 C-1.08465003 34.18027727 -1.85471406 35.98644804 -2.62280273 37.79345703 C-4.23869669 41.58897675 -5.86476681 45.37989962 -7.49804688 49.16796875 C-9.990385 54.96060343 -12.43215972 60.77357199 -14.859375 66.59375 C-15.25493088 67.54222809 -15.65048676 68.49070618 -16.05802917 69.46792603 C-16.84406718 71.35348347 -17.62993275 73.23911281 -18.4156189 75.12481689 C-19.52720722 77.79036907 -20.64137177 80.45482227 -21.75708008 83.11865234 C-22.10973434 83.96078278 -22.46238861 84.80291321 -22.82572937 85.67056274 C-23.52128802 87.32768555 -24.21893146 88.98393501 -24.91877747 90.63925171 C-26.69319 94.8420275 -28.42477213 99.05570125 -30.09326172 103.30175781 C-30.43888657 104.16455353 -30.78451141 105.02734924 -31.14060974 105.91629028 C-31.79359098 107.5485415 -32.43363842 109.18605465 -33.05775452 110.82955933 C-35.16368872 116.03861027 -37.35234348 118.79634757 -42 122 C-45.10510312 122.82088933 -47.85976818 122.64192584 -51 122 C-53.87029869 120.20606332 -55.49131638 119.01736724 -57 116 C-58.1949849 107.55572229 -55.42567517 101.17033571 -51.9375 93.625 C-51.11328349 91.77434929 -50.28916531 89.92365199 -49.46859741 88.07138062 C-48.88738681 86.76073356 -48.30403088 85.45103599 -47.71865845 84.14224243 C-44.5760105 77.10452953 -41.62404101 69.99056941 -38.67919922 62.86834717 C-37.74724658 60.61835247 -36.81004584 58.37061711 -35.87109375 56.12353516 C-32.8077112 48.78843093 -29.76774233 41.44529953 -26.78555298 34.07675171 C-25.36038556 30.56305762 -23.92070751 27.0554092 -22.47888184 23.54852295 C-21.79007279 21.86283418 -21.1079064 20.17441427 -20.43273926 18.48321533 C-19.49152694 16.12736688 -18.5277265 13.7819737 -17.55859375 11.4375 C-17.28722092 10.74127533 -17.01584808 10.04505066 -16.73625183 9.32772827 C-13.61376825 1.91669175 -7.86694492 -1.75168555 0 0 Z " fill="#000000" transform="translate(352,305)"/>
<path d="M0 0 C8.03226832 4.63607433 11.87024241 9.80945482 14.74609375 18.60546875 C16.9665315 27.70048212 15.12481103 35.54275491 10.6875 43.625 C5.08978698 50.62214127 -1.47810977 55.30195122 -10.5625 56.4375 C-18.93476028 57.09414786 -27.04196422 54.77248382 -33.5625 49.4375 C-40.05493443 43.33656915 -43.67945247 35.95054402 -44.0625 27 C-43.72260738 18.98986386 -41.16298389 10.85841728 -35.49609375 5.0078125 C-24.99060327 -3.52391916 -12.45509782 -5.72594956 0 0 Z M-20.5625 22.4375 C-21.73360449 25.2971006 -21.73360449 25.2971006 -21.5625 28.4375 C-20.22134601 31.44729883 -20.22134601 31.44729883 -17.5625 33.4375 C-14.0625 34.27083333 -14.0625 34.27083333 -10.5625 33.4375 C-7.90365399 31.44729883 -7.90365399 31.44729883 -6.5625 28.4375 C-6.5625 24.87659099 -6.86900762 23.18052755 -9.3125 20.5625 C-13.73354217 18.35197891 -17.16331944 18.79552083 -20.5625 22.4375 Z " fill="#000000" transform="translate(305.5625,302.5625)"/>
<path d="M0 0 C8.02913968 4.63426854 11.8842227 9.81122999 14.7421875 18.61328125 C16.84866894 27.16938283 15.38384797 34.61506545 11.4375 42.4375 C6.78751457 49.68999717 0.30217722 54.05113773 -8.07421875 56.03125 C-17.29665826 57.30530758 -25.05762125 55.55127433 -32.58984375 50.078125 C-38.38052646 45.26211165 -42.69677247 39.05590222 -43.5625 31.4375 C-44.38952591 22.34021495 -42.57726506 13.88490723 -36.875 6.5625 C-27.40833365 -3.48375817 -12.30051262 -5.79573026 0 0 Z M-18.9375 20.5 C-21.1970092 23.1940302 -21.5625 24.93017067 -21.5625 28.4375 C-20.15371904 31.4276643 -20.15371904 31.4276643 -17.5625 33.4375 C-14.14858123 34.00648646 -12.32677538 33.82996573 -9.25 32.25 C-7.08255086 29.92199908 -6.63817329 28.6157781 -6.5625 25.4375 C-7.40995634 22.58048293 -7.40995634 22.58048293 -9.5625 20.4375 C-13.22015818 19.37345398 -15.4167329 18.92491998 -18.9375 20.5 Z " fill="#000000" transform="translate(375.5625,376.5625)"/>
</svg>
