<?xml version="1.0" encoding="UTF-8"?>
<svg version="1.1" xmlns="http://www.w3.org/2000/svg" width="512" height="512">
<path d="M0 0 C2 1 2 1 3.23681641 4.23461914 C3.69938653 5.66567979 4.15393018 7.09935299 4.6015625 8.53515625 C4.81578857 9.20252808 5.03001465 9.8698999 5.25073242 10.55749512 C6.05045515 13.05652241 6.83692537 15.55977503 7.625 18.0625 C9.39875 23.651875 11.1725 29.24125 13 35 C25.21 35.33 37.42 35.66 50 36 C46.63636009 39.36363991 43.30367775 42.05475194 39.4375 44.75 C38.1937101 45.62717848 36.95022473 46.50478893 35.70703125 47.3828125 C35.08779785 47.81883789 34.46856445 48.25486328 33.83056641 48.70410156 C29.51989604 51.75572044 25.26446703 54.88432817 21 58 C23.25341888 66.60243705 25.90452114 75.02869796 28.74609375 83.453125 C29.20435547 84.85304688 29.20435547 84.85304688 29.671875 86.28125 C29.9512793 87.11720703 30.23068359 87.95316406 30.51855469 88.81445312 C31 91 31 91 30 94 C29.47680176 93.61255615 28.95360352 93.2251123 28.41455078 92.82592773 C14.82176543 82.75347781 14.82176543 82.75347781 1 73 C-6.05697264 77.62277369 -12.89172791 82.50253061 -19.68945312 87.49609375 C-20.82737305 88.32560547 -20.82737305 88.32560547 -21.98828125 89.171875 C-22.66415283 89.6678418 -23.34002441 90.16380859 -24.03637695 90.67480469 C-25.96245954 91.97466497 -27.89972924 93.01156832 -30 94 C-27.80673246 85.70555658 -25.3564213 77.50549067 -22.8125 69.3125 C-22.44447266 68.12205078 -22.07644531 66.93160156 -21.69726562 65.70507812 C-20.79979847 62.80287914 -19.90068232 59.90120245 -19 57 C-19.76425293 56.71334473 -20.52850586 56.42668945 -21.31591797 56.13134766 C-24.6773851 54.71448039 -27.30385798 52.63659072 -30.125 50.375 C-31.26587252 49.47652389 -32.40781978 48.57941097 -33.55078125 47.68359375 C-34.1226416 47.23483887 -34.69450195 46.78608398 -35.28369141 46.32373047 C-38.79852893 43.61285578 -42.4301329 41.06308695 -46.05078125 38.49609375 C-46.69402344 38.00238281 -47.33726562 37.50867188 -48 37 C-48 36.67 -48 36.34 -48 36 C-35.79 36 -23.58 36 -11 36 C-9.515 30.06 -9.515 30.06 -8 24 C-7.35157554 21.84928665 -6.67801343 19.7056134 -5.95703125 17.578125 C-5.60576172 16.53398437 -5.25449219 15.48984375 -4.89257812 14.4140625 C-4.53615234 13.36992187 -4.17972656 12.32578125 -3.8125 11.25 C-3.26045898 9.61417969 -3.26045898 9.61417969 -2.69726562 7.9453125 C-1.80234902 5.29542958 -0.90322421 2.64706023 0 0 Z " fill="#E21B1B" transform="translate(359,209)"/>
<path d="M0 0 C2.14585146 3.21877719 3.22575061 6.3601537 4.3828125 10.00390625 C4.60194305 10.68299545 4.82107361 11.36208466 5.04684448 12.06175232 C5.50791448 13.49414435 5.96669628 14.92727468 6.42333984 16.36108398 C7.1241017 18.55968164 7.83295868 20.75554559 8.54296875 22.95117188 C8.99006485 24.34359548 9.4366955 25.73616864 9.8828125 27.12890625 C10.09527618 27.78725967 10.30773987 28.4456131 10.52664185 29.12391663 C12 33.76872052 12 33.76872052 12 36 C24.21 36 36.42 36 49 36 C45.7957885 39.2042115 43.28204965 41.69077374 39.71484375 44.2265625 C38.93689453 44.7834375 38.15894531 45.3403125 37.35742188 45.9140625 C36.15956055 46.76097656 36.15956055 46.76097656 34.9375 47.625 C33.34228474 48.76279209 31.74722724 49.9008054 30.15234375 51.0390625 C29.45101318 51.53615723 28.74968262 52.03325195 28.02709961 52.54541016 C26.61527087 53.55849888 25.22939903 54.60833672 23.86547852 55.68505859 C22 57 22 57 20 57 C20.33845947 58.04978027 20.67691895 59.09956055 21.02563477 60.18115234 C22.2761024 64.06631755 23.51684855 67.9545291 24.75463867 71.84375 C25.29234191 73.52852097 25.83269922 75.21244723 26.37573242 76.89550781 C27.1545768 79.31099229 27.92391231 81.72932631 28.69140625 84.1484375 C28.93717911 84.9036972 29.18295197 85.65895691 29.43617249 86.43710327 C31.11387171 91.77225659 31.11387171 91.77225659 30 94 C20.26823232 87.08729599 10.61063242 80.08010176 1 73 C-4.94397461 76.19628824 -10.23751342 80.00925815 -15.625 84.0625 C-17.28229298 85.30546973 -18.94110207 86.54642104 -20.6015625 87.78515625 C-21.32682129 88.33051025 -22.05208008 88.87586426 -22.79931641 89.43774414 C-25.13075055 91.09281926 -27.53164157 92.55890551 -30 94 C-28.51987351 85.0756713 -25.6735655 76.81190132 -22.65820312 68.30664062 C-22.12549805 66.76459961 -22.12549805 66.76459961 -21.58203125 65.19140625 C-21.25436768 64.26529541 -20.9267041 63.33918457 -20.58911133 62.38500977 C-19.744136 59.8767683 -19.744136 59.8767683 -21 57 C-23.03121068 55.37919499 -25.04655212 53.89915807 -27.1875 52.4375 C-28.45450029 51.5521881 -29.72142504 50.66676807 -30.98828125 49.78125 C-31.64521973 49.32621094 -32.3021582 48.87117188 -32.97900391 48.40234375 C-36.29325117 46.10262929 -39.58533098 43.77217252 -42.875 41.4375 C-43.79381958 40.79349243 -43.79381958 40.79349243 -44.73120117 40.13647461 C-46.17216285 39.11597465 -47.58896415 38.06149354 -49 37 C-49 36.67 -49 36.34 -49 36 C-36.79 35.67 -24.58 35.34 -12 35 C-8.42158734 23.85666123 -8.42158734 23.85666123 -4.84985352 12.71118164 C-4.4014474 11.31909489 -3.95281405 9.9270813 -3.50390625 8.53515625 C-3.27151245 7.80615112 -3.03911865 7.077146 -2.79968262 6.3260498 C-1.1140718 1.1140718 -1.1140718 1.1140718 0 0 Z " fill="#E21B1B" transform="translate(152,209)"/>
<path d="M0 0 C2.60040721 2.60040721 3.29931849 5.4484935 4.3828125 8.87109375 C4.71150833 9.88829247 4.71150833 9.88829247 5.04684448 10.92604065 C5.50863241 12.35998276 5.96738975 13.79490386 6.42333984 15.23071289 C7.12195569 17.42792537 7.8316926 19.62131064 8.54296875 21.81445312 C8.99025155 23.20811905 9.43688787 24.60199266 9.8828125 25.99609375 C10.09527618 26.65242294 10.30773987 27.30875214 10.52664185 27.98497009 C11.41046167 30.78561637 12 33.04149569 12 36 C24.21 36 36.42 36 49 36 C45.7542694 39.2457306 43.10390432 41.82194727 39.49609375 44.4453125 C38.67302734 45.04730469 37.84996094 45.64929688 37.00195312 46.26953125 C35.73254883 47.18798828 35.73254883 47.18798828 34.4375 48.125 C32.74866972 49.35673217 31.05986666 50.58850167 29.37109375 51.8203125 C28.62786865 52.35930176 27.88464355 52.89829102 27.11889648 53.45361328 C25.06592968 54.95188402 23.02973597 56.47045204 21 58 C22.68399345 66.50015742 25.46100563 74.48472662 28.34179688 82.64453125 C28.87450195 84.19333984 28.87450195 84.19333984 29.41796875 85.7734375 C29.90946411 87.17215088 29.90946411 87.17215088 30.41088867 88.59912109 C31 91 31 91 30 94 C20.32172862 87.01591122 10.64408759 80.0312621 1 73 C-6.53480596 77.53365443 -13.55107693 82.55353639 -20.515625 87.91113281 C-21.49595703 88.66088379 -21.49595703 88.66088379 -22.49609375 89.42578125 C-23.36512329 90.09734253 -23.36512329 90.09734253 -24.25170898 90.7824707 C-26.09403297 92.06548561 -27.97137759 93.04422547 -30 94 C-28.27966073 85.33424844 -25.47167694 77.13304551 -22.5703125 68.79882812 C-22.21195312 67.72439453 -21.85359375 66.64996094 -21.484375 65.54296875 C-21.15147461 64.57383545 -20.81857422 63.60470215 -20.47558594 62.60620117 C-19.79957861 60.04777365 -19.79957861 60.04777365 -20.68237305 57.82666016 C-22.1479121 55.79494565 -23.52692943 54.63537367 -25.59765625 53.23046875 C-26.67092163 52.49050659 -26.67092163 52.49050659 -27.76586914 51.7355957 C-28.52375732 51.22472412 -29.28164551 50.71385254 -30.0625 50.1875 C-31.60522366 49.12392739 -33.14689914 48.0588327 -34.6875 46.9921875 C-35.43 46.48010742 -36.1725 45.96802734 -36.9375 45.44042969 C-40.73295613 42.78972051 -44.52238963 40.06148605 -48 37 C-48 36.67 -48 36.34 -48 36 C-35.79 36 -23.58 36 -11 36 C-10.34 33.03 -9.68 30.06 -9 27 C-8.31596903 24.72671489 -7.59642265 22.46370699 -6.8359375 20.21484375 C-6.43632812 19.02568359 -6.03671875 17.83652344 -5.625 16.61132812 C-5.2125 15.39896484 -4.8 14.18660156 -4.375 12.9375 C-3.95476562 11.69033203 -3.53453125 10.44316406 -3.1015625 9.15820312 C-2.07181153 6.10405535 -1.03786449 3.05139815 0 0 Z " fill="#CCCCCC" transform="translate(463,209)"/>
<path d="M0 0 C2.60040721 2.60040721 3.29931849 5.4484935 4.3828125 8.87109375 C4.71150833 9.88829247 4.71150833 9.88829247 5.04684448 10.92604065 C5.50863241 12.35998276 5.96738975 13.79490386 6.42333984 15.23071289 C7.12195569 17.42792537 7.8316926 19.62131064 8.54296875 21.81445312 C8.99025155 23.20811905 9.43688787 24.60199266 9.8828125 25.99609375 C10.09527618 26.65242294 10.30773987 27.30875214 10.52664185 27.98497009 C11.41046167 30.78561637 12 33.04149569 12 36 C24.21 36 36.42 36 49 36 C45.7542694 39.2457306 43.10390432 41.82194727 39.49609375 44.4453125 C38.67302734 45.04730469 37.84996094 45.64929688 37.00195312 46.26953125 C35.73254883 47.18798828 35.73254883 47.18798828 34.4375 48.125 C32.74866972 49.35673217 31.05986666 50.58850167 29.37109375 51.8203125 C28.62786865 52.35930176 27.88464355 52.89829102 27.11889648 53.45361328 C25.06592968 54.95188402 23.02973597 56.47045204 21 58 C22.9274754 66.86638684 25.71327527 75.33411848 28.75024414 83.87573242 C29.05438232 84.75334229 29.35852051 85.63095215 29.671875 86.53515625 C29.9512793 87.322854 30.23068359 88.11055176 30.51855469 88.92211914 C31 91 31 91 30 94 C20.32172862 87.01591122 10.64408759 80.0312621 1 73 C-6.53480596 77.53365443 -13.55107693 82.55353639 -20.515625 87.91113281 C-21.49595703 88.66088379 -21.49595703 88.66088379 -22.49609375 89.42578125 C-23.36512329 90.09734253 -23.36512329 90.09734253 -24.25170898 90.7824707 C-26.09403297 92.06548561 -27.97137759 93.04422547 -30 94 C-28.32273155 85.52491339 -25.55037852 77.5717914 -22.65820312 69.44335938 C-22.30306641 68.41404297 -21.94792969 67.38472656 -21.58203125 66.32421875 C-21.25436768 65.39697998 -20.9267041 64.46974121 -20.58911133 63.5144043 C-19.95131031 60.79218605 -19.86114173 59.53993823 -21 57 C-22.62545475 55.38363506 -22.62545475 55.38363506 -24.71875 54.01171875 C-25.864646 53.20395996 -25.864646 53.20395996 -27.03369141 52.37988281 C-27.84757324 51.82139648 -28.66145508 51.26291016 -29.5 50.6875 C-31.1439944 49.53103498 -32.7872318 48.37349304 -34.4296875 47.21484375 C-35.21956055 46.6616748 -36.00943359 46.10850586 -36.82324219 45.53857422 C-40.64320753 42.83854936 -44.48048567 40.08729327 -48 37 C-48 36.67 -48 36.34 -48 36 C-35.79 36 -23.58 36 -11 36 C-10.34 33.03 -9.68 30.06 -9 27 C-8.31596903 24.72671489 -7.59642265 22.46370699 -6.8359375 20.21484375 C-6.43632813 19.02568359 -6.03671875 17.83652344 -5.625 16.61132812 C-5.2125 15.39896484 -4.8 14.18660156 -4.375 12.9375 C-3.95476563 11.69033203 -3.53453125 10.44316406 -3.1015625 9.15820312 C-2.07181153 6.10405535 -1.03786449 3.05139815 0 0 Z " fill="#E21B1B" transform="translate(48,209)"/>
<path d="M0 0 C0.66 0 1.32 0 2 0 C3.57039005 4.66181068 5.13687008 9.32490957 6.69970703 13.98925781 C7.23215614 15.57653441 7.76568065 17.16345069 8.30029297 18.75 C9.06759689 21.02771108 9.83105112 23.30668093 10.59375 25.5859375 C10.83436157 26.29744965 11.07497314 27.00896179 11.32287598 27.74203491 C13 32.77225659 13 32.77225659 13 35 C25.21 35 37.42 35 50 35 C44.37592138 40.62407862 44.37592138 40.62407862 41.0390625 42.9375 C40.31976563 43.44023437 39.60046875 43.94296875 38.859375 44.4609375 C38.12203125 44.96882813 37.3846875 45.47671875 36.625 46 C35.15874629 47.02067838 33.6925993 48.04151009 32.2265625 49.0625 C31.52176758 49.55105469 30.81697266 50.03960937 30.09082031 50.54296875 C27.04097584 52.66831576 24.02005218 54.83257469 21 57 C21.3081665 57.94842773 21.61633301 58.89685547 21.93383789 59.87402344 C23.07544766 63.39676314 24.20344174 66.92373885 25.32739258 70.45214844 C25.81555352 71.97807697 26.30738937 73.50283498 26.80297852 75.02636719 C27.51509659 77.21771949 28.2138509 79.41295471 28.91015625 81.609375 C29.13405533 82.2886908 29.35795441 82.96800659 29.58863831 83.66790771 C30.66089657 87.09622269 31.39777023 89.59080432 30 93 C29.22398437 92.39414062 28.44796875 91.78828125 27.6484375 91.1640625 C21.63674924 86.49049913 15.58047542 81.87483974 9.4375 77.375 C8.85468262 76.93752441 8.27186523 76.50004883 7.67138672 76.04931641 C4.39485346 73.67619337 3.18814476 73 -1 73 C-3.13566803 74.17820176 -3.13566803 74.17820176 -5.23046875 75.8515625 C-6.03419922 76.45613281 -6.83792969 77.06070313 -7.66601562 77.68359375 C-8.49810547 78.32425781 -9.33019531 78.96492188 -10.1875 79.625 C-11.82526836 80.86923639 -13.46458595 82.11143628 -15.10546875 83.3515625 C-16.31082275 84.26276855 -16.31082275 84.26276855 -17.54052734 85.19238281 C-21.26959337 87.93310197 -25.11810215 90.48210685 -29 93 C-28.4092307 88.12411145 -27.41082309 83.65401685 -25.93359375 78.97265625 C-25.73524429 78.33887558 -25.53689484 77.70509491 -25.33253479 77.05210876 C-24.70591823 75.05393813 -24.07185639 73.05822526 -23.4375 71.0625 C-23.00796626 69.697422 -22.57892522 68.33218886 -22.15039062 66.96679688 C-21.10594441 63.64272049 -20.05481346 60.32080321 -19 57 C-19.48766846 56.64808594 -19.97533691 56.29617188 -20.4777832 55.93359375 C-24.40690185 53.09792786 -28.33501572 50.26088517 -32.26171875 47.421875 C-35.05158024 45.40521481 -37.84445499 43.39307474 -40.64453125 41.390625 C-41.62808594 40.68421875 -42.61164063 39.9778125 -43.625 39.25 C-44.48351562 38.63640625 -45.34203125 38.0228125 -46.2265625 37.390625 C-46.81179687 36.93171875 -47.39703125 36.4728125 -48 36 C-48 35.67 -48 35.34 -48 35 C-35.79 35 -23.58 35 -11 35 C-9.515 29.555 -9.515 29.555 -8 24 C-7.34132462 21.88484871 -6.66453757 19.77510329 -5.95703125 17.67578125 C-5.60576172 16.62841797 -5.25449219 15.58105469 -4.89257812 14.50195312 C-4.53615234 13.44943359 -4.17972656 12.39691406 -3.8125 11.3125 C-3.44447266 10.21744141 -3.07644531 9.12238281 -2.69726562 7.99414062 C-1.80095124 5.32847837 -0.90182617 2.6638015 0 0 Z " fill="#E21B1B" transform="translate(255,210)"/>
</svg>
