<?xml version="1.0" encoding="UTF-8"?>
<svg version="1.1" xmlns="http://www.w3.org/2000/svg" width="512" height="512">
<path d="M0 0 C1.2658844 -0.00679667 1.2658844 -0.00679667 2.55734223 -0.01373065 C5.38383952 -0.02638602 8.2101444 -0.02475354 11.03666687 -0.02310181 C13.06380969 -0.02908636 15.09095023 -0.03589174 17.11808777 -0.04345703 C22.62436376 -0.06113205 28.13057759 -0.06581306 33.63687921 -0.0670886 C38.23423996 -0.06898784 42.83158624 -0.07634569 47.42894143 -0.08343279 C58.27654357 -0.0997202 69.1241125 -0.10460144 79.97172546 -0.10317993 C91.15924447 -0.10197851 102.34657056 -0.12307972 113.53404075 -0.15466726 C123.14099037 -0.18082502 132.74787696 -0.19154743 142.35486192 -0.19026911 C148.09180016 -0.18975932 153.82856699 -0.1954523 159.56546974 -0.21662521 C164.96226976 -0.23599893 170.35873469 -0.2361378 175.75554657 -0.22159195 C177.73402839 -0.21950167 179.71253114 -0.22421779 181.6909771 -0.23631287 C184.39675355 -0.25178036 187.10137676 -0.24244741 189.80712891 -0.22705078 C190.97519836 -0.24248147 190.97519836 -0.24248147 192.16686517 -0.25822389 C198.2720934 -0.18171101 203.56108774 1.47152473 208.12563401 5.67931235 C213.09579074 11.32357566 213.89027078 16.36878103 213.86146545 23.67338562 C213.86599657 24.51730856 213.87052768 25.36123149 213.8751961 26.23072785 C213.88785147 29.05722514 213.88621899 31.88353002 213.88456726 34.71005249 C213.89055181 36.73719531 213.89735719 38.76433585 213.90492249 40.79147339 C213.9225975 46.29774938 213.92727851 51.80396321 213.92855406 57.31026483 C213.93045329 61.90762558 213.93781114 66.50497186 213.94489825 71.10232705 C213.96118565 81.94992919 213.96606689 92.79749812 213.96464539 103.64511108 C213.96344397 114.83263009 213.98454517 126.01995618 214.01613271 137.20742637 C214.04229048 146.81437599 214.05301288 156.42126258 214.05173457 166.02824754 C214.05122477 171.76518578 214.05691775 177.50195261 214.07809067 183.23885536 C214.09746439 188.63565538 214.09760326 194.03212031 214.0830574 199.42893219 C214.08096712 201.40741401 214.08568324 203.38591676 214.09777832 205.36436272 C214.11324582 208.07013917 214.10391286 210.77476238 214.08851624 213.48051453 C214.09880336 214.25922749 214.10909049 215.03794046 214.11968935 215.84025079 C214.03900455 222.27837076 212.06099525 227.47154283 207.77763367 232.32601929 C207.20142273 232.78105835 206.62521179 233.23609741 206.03153992 233.70492554 C205.45275085 234.17801147 204.87396179 234.65109741 204.27763367 235.13851929 C200.25599563 237.83516289 195.96097899 237.42123113 191.32142639 237.42805481 C190.04078762 237.43568654 190.04078762 237.43568654 188.73427737 237.44347245 C185.86250064 237.45921636 182.9907491 237.46772715 180.11894226 237.47616577 C178.06416157 237.48570272 176.00938251 237.49559381 173.9546051 237.5058136 C167.19641531 237.53721873 160.43821313 237.55746843 153.67997742 237.57601929 C152.53036671 237.57931661 151.38075601 237.58261393 150.19630861 237.58601117 C139.35493548 237.61679405 128.5135596 237.64350291 117.67215538 237.66042995 C103.80361052 237.68233679 89.93545281 237.72430611 76.06706274 237.79386753 C66.31662596 237.84111352 56.56629361 237.8653644 46.81574595 237.87262684 C40.99199652 237.87758237 35.16868329 237.89265447 29.34505844 237.93237114 C23.86365498 237.96926066 18.38293644 237.97763923 12.90143204 237.96436501 C10.89271046 237.96441892 8.88395835 237.97469962 6.87535095 237.99611664 C-11.37720015 238.18028721 -11.37720015 238.18028721 -17.75855064 233.23901463 C-22.67499174 227.35510903 -23.99793987 222.98441323 -23.90716553 215.49360657 C-23.91269992 214.63431299 -23.91823432 213.77501942 -23.92393643 212.88968664 C-23.93750175 210.0230326 -23.92259621 207.15725543 -23.90766907 204.2906189 C-23.91145371 202.23037853 -23.91695495 200.17014071 -23.92404175 198.10990906 C-23.93799371 192.52321363 -23.92682861 186.93682626 -23.91033053 181.35014796 C-23.89647275 175.50197916 -23.90294088 169.6538281 -23.90646362 163.8056488 C-23.90916495 153.98613525 -23.89569601 144.16674398 -23.87251282 134.34725952 C-23.84589624 122.99494748 -23.84415866 111.64283981 -23.85590118 100.29050726 C-23.86667999 89.3677585 -23.86049153 78.44508366 -23.8463459 67.52234077 C-23.84058777 62.87454036 -23.84066743 58.22679406 -23.8454113 53.57899284 C-23.85018336 48.10668012 -23.84006972 42.63459124 -23.81845665 37.16232109 C-23.81289204 35.15398412 -23.81242049 33.14562562 -23.81740952 31.13728714 C-23.82336528 28.39602997 -23.81085156 25.65545646 -23.79364014 22.91426086 C-23.79965018 22.11941361 -23.80566023 21.32456635 -23.8118524 20.50563282 C-23.7479275 14.90729901 -22.62323296 10.72639167 -18.75752258 6.43930054 C-18.18775696 5.97008179 -17.61799133 5.50086304 -17.03096008 5.01742554 C-16.18404602 4.29812866 -16.18404602 4.29812866 -15.32002258 3.56430054 C-10.41165982 0.23863434 -5.78909847 -0.02282901 0 0 Z M16.59403992 41.26742554 C16.59403992 92.74742554 16.59403992 144.22742554 16.59403992 197.26742554 C68.07403992 197.26742554 119.55403992 197.26742554 172.59403992 197.26742554 C172.59403992 145.78742554 172.59403992 94.30742554 172.59403992 41.26742554 C121.11403992 41.26742554 69.63403992 41.26742554 16.59403992 41.26742554 Z " fill="#000000" transform="translate(23.405960083007813,274.7325744628906)"/>
<path d="M0 0 C7.18344248 4.16175025 10.69058924 10.38892399 14.70166016 17.43017578 C15.42820914 18.66961196 16.15677606 19.90786713 16.88720703 21.14501953 C18.42791696 23.76115448 19.95726246 26.38345289 21.47802734 29.01123047 C23.80909705 33.03444453 26.17581748 37.03576793 28.55322266 41.03173828 C28.94569183 41.69144623 29.33816101 42.35115417 29.74252319 43.03085327 C30.53782054 44.36741134 31.33322069 45.70390824 32.12872314 47.04034424 C33.33420337 49.06786284 34.53669953 51.09712201 35.73828125 53.12695312 C40.87712785 61.80513777 46.07632897 70.44404215 51.32666016 79.05517578 C57.80992803 89.68846423 64.19143358 100.37884308 70.53466797 111.09619141 C76.07371215 120.45201826 81.66675402 129.77199357 87.32666016 139.05517578 C94.32153984 150.53142031 101.20681182 162.06992563 108.05493164 173.63427734 C108.83818921 174.95688444 109.6214733 176.27947583 110.40478516 177.60205078 C110.783694 178.24184875 111.16260284 178.88164673 111.55299377 179.54083252 C115.45285016 186.12071111 119.39109708 192.67746961 123.35131836 199.22119141 C123.78790771 199.945 124.22449707 200.66880859 124.67431641 201.41455078 C125.23131226 202.33445801 125.23131226 202.33445801 125.79956055 203.27294922 C129.49455541 209.68451624 130.59271485 215.52192414 128.74462891 222.77783203 C126.57719118 228.15492221 122.90755331 231.95708574 117.8255682 234.63885593 C113.16946497 236.56417291 108.67676474 236.47497452 103.69960022 236.44285583 C102.69470989 236.44824137 101.68981956 236.45362691 100.65447801 236.45917565 C97.29516135 236.47345628 93.93623867 236.46635107 90.5769043 236.45922852 C88.16523421 236.464932 85.75356682 236.47189617 83.34190369 236.48002625 C77.47601561 236.49611138 71.61022648 236.49805785 65.74432809 236.49281334 C60.97529234 236.48876731 56.2062882 236.49022033 51.43725395 236.4955616 C50.7577733 236.49631002 50.07829265 236.49705844 49.37822167 236.49782955 C47.99773625 236.49936107 46.61725084 236.50089941 45.23676544 236.50244451 C32.29931805 236.5161633 19.36193119 236.51073619 6.4244852 236.4992593 C-5.40346886 236.48932695 -17.23126648 236.50226866 -29.05919641 236.52619349 C-41.2138863 236.55059343 -53.36850337 236.56019021 -65.52321726 236.55354077 C-72.34327752 236.5500506 -79.16321749 236.55226717 -85.9832592 236.56979179 C-92.39617527 236.58606636 -98.80886622 236.58131819 -105.22177696 236.56248665 C-107.57436821 236.55879756 -109.92698155 236.56191848 -112.27955246 236.57237244 C-115.49314544 236.58556146 -118.70574589 236.5740523 -121.91929626 236.55638123 C-122.84839198 236.56598623 -123.77748769 236.57559124 -124.73473781 236.58548731 C-131.66378263 236.5071896 -136.71360445 234.74014417 -142.19677734 230.48486328 C-146.1900561 225.89143858 -148.10291413 221.19101635 -148.17333984 215.05517578 C-147.10611879 209.48439361 -145.46909214 205.24978445 -142.61083984 200.30517578 C-142.22718262 199.63873047 -141.84352539 198.97228516 -141.44824219 198.28564453 C-136.79017999 190.26706004 -131.93007245 182.36573699 -127.09887695 174.45068359 C-121.5528104 165.36022336 -116.0953309 156.2201004 -110.67333984 147.05517578 C-104.39343519 136.44354573 -98.05041015 125.87417582 -91.63134766 115.34619141 C-85.90882048 105.95675019 -80.27394103 96.51779217 -74.67333984 87.05517578 C-68.06072942 75.88269738 -61.37536071 64.75880642 -54.61157227 53.67724609 C-50.7269389 47.30450765 -46.88970104 40.90623371 -43.09912109 34.47705078 C-42.67198822 33.7534436 -42.24485535 33.02983643 -41.80477905 32.28430176 C-39.72733382 28.76364874 -37.65510373 25.24009742 -35.59130859 21.71142578 C-18.19173332 -7.90856077 -18.19173332 -7.90856077 0 0 Z M-10.17333984 60.05517578 C-11.52409891 62.0345059 -12.73522891 63.99738567 -13.92724609 66.07080078 C-14.29965927 66.70451599 -14.67207245 67.3382312 -15.05577087 67.9911499 C-15.86394406 69.36804295 -16.66877977 70.74689902 -17.47070312 72.12744141 C-19.61894971 75.82531086 -21.79088267 79.50926299 -23.95849609 83.19580078 C-24.39920441 83.94704224 -24.83991272 84.69828369 -25.29397583 85.47229004 C-29.34889893 92.37769624 -33.49847329 99.22168032 -37.67333984 106.05517578 C-43.74518527 116.01331551 -49.73254225 126.01833479 -55.67333984 136.05517578 C-61.84754436 146.48478166 -68.06529299 156.88580612 -74.36083984 167.24267578 C-75.03115234 168.34546875 -75.70146484 169.44826172 -76.39208984 170.58447266 C-77.03533203 171.64085937 -77.67857422 172.69724609 -78.34130859 173.78564453 C-78.96312012 174.80706543 -79.58493164 175.82848633 -80.22558594 176.88085938 C-81.61892849 179.15163399 -83.02170505 181.41424263 -84.4375 183.67089844 C-84.80917801 184.26614822 -85.18085602 184.86139801 -85.563797 185.47468567 C-86.60521435 187.14071895 -87.65146947 188.80372534 -88.69799805 190.46655273 C-90.33839289 192.84818811 -90.33839289 192.84818811 -90.17333984 195.05517578 C-36.71333984 195.05517578 16.74666016 195.05517578 71.82666016 195.05517578 C70.17877994 190.93547525 68.33763929 187.32445515 66.07275391 183.55126953 C65.70034073 182.92462906 65.32792755 182.29798859 64.94422913 181.65235901 C63.72118263 179.59693538 62.49280194 177.54475889 61.26416016 175.49267578 C60.40199282 174.04682443 59.54001626 172.6008593 58.67822266 171.15478516 C52.93168404 161.52355599 47.12615901 151.92892801 41.28878784 142.35250854 C35.56482995 132.96098941 29.92856469 123.51994883 24.32666016 114.05517578 C16.18753448 100.30378464 7.94332517 86.61921933 -0.3984375 72.98974609 C-1.58900112 71.02130391 -2.76042397 69.04116633 -3.91308594 67.05029297 C-4.44627441 66.13151367 -4.97946289 65.21273437 -5.52880859 64.26611328 C-5.99311279 63.45190918 -6.45741699 62.63770508 -6.93579102 61.79882812 C-7.34418213 61.22342285 -7.75257324 60.64801758 -8.17333984 60.05517578 C-8.83333984 60.05517578 -9.49333984 60.05517578 -10.17333984 60.05517578 Z " fill="#000000" transform="translate(265.17333984375,0.94482421875)"/>
<path d="M0 0 C0.98355469 0.80824219 1.96710938 1.61648438 2.98046875 2.44921875 C24.03877888 20.67432803 39.25539294 48.1102179 42 76 C42.30022244 81.25176853 42.41109513 86.49149015 42.4375 91.75 C42.44773193 93.02834717 42.45796387 94.30669434 42.46850586 95.6237793 C42.35665306 107.79226855 40.24958666 119.47379667 36.3125 131 C35.93121948 132.12172607 35.93121948 132.12172607 35.54223633 133.26611328 C25.29267745 162.22012008 2.2379591 186.63083923 -25.375 199.8125 C-54.42040948 213.08328049 -88.71116306 214.24678863 -118.61010742 203.36621094 C-148.50040583 191.87103129 -171.89888288 169.51247097 -185.29956055 140.48706055 C-188.6471196 132.87928577 -191.06049822 125.07330583 -193 117 C-193.24621094 115.98421875 -193.49242187 114.9684375 -193.74609375 113.921875 C-199.8482586 82.44312113 -192.11134476 50.22847187 -174.68774414 23.7890625 C-156.85229853 -2.13740644 -128.89585179 -19.73181227 -98.125 -25.8125 C-63.23543097 -31.88540052 -27.18123926 -22.66983025 0 0 Z M-134.6875 39.75 C-143.00310287 49.38955395 -148.38716439 59.83044846 -152 72 C-152.24621094 72.804375 -152.49242187 73.60875 -152.74609375 74.4375 C-157.52215142 93.40997737 -153.21844394 114.1237669 -144 131 C-132.54218623 149.11142362 -115.51260831 162.54361161 -94.5625 167.75 C-72.44047467 172.29918265 -51.46333544 168.6943215 -32.44140625 156.37890625 C-15.89300783 145.17838267 -4.33967965 127.78966713 0.33984375 108.3828125 C4.25371945 86.10058611 -0.48291371 65.10282767 -12.7578125 46.30859375 C-14.41193805 44.09668168 -16.14327048 42.04399623 -18 40 C-18.64195312 39.26652344 -19.28390625 38.53304687 -19.9453125 37.77734375 C-32.79050745 23.96046431 -51.59730162 14.68500054 -70.4609375 13.75 C-95.97929543 12.90777707 -116.95532544 21.11312266 -134.6875 39.75 Z " fill="#000000" transform="translate(470,302)"/>
</svg>
