<?xml version="1.0" encoding="UTF-8"?>
<svg version="1.1" xmlns="http://www.w3.org/2000/svg" width="512" height="512">
<path d="M0 0 C0.70146652 -0.00686325 1.40293304 -0.0137265 2.12565613 -0.02079773 C4.44408468 -0.03908895 6.76183699 -0.03522078 9.08032227 -0.02954102 C10.70256264 -0.03410598 12.32480109 -0.03941249 13.94703674 -0.04542542 C17.35246614 -0.05436425 20.75766123 -0.0519297 24.16308594 -0.04199219 C28.49355611 -0.03057787 32.82320165 -0.05059269 37.1535635 -0.07990932 C40.50913006 -0.09841671 43.86450504 -0.09794895 47.22010994 -0.0922718 C48.81425179 -0.09211995 50.40840778 -0.09805047 52.00250053 -0.11056328 C66.03102515 -0.20506145 79.18593289 1.44549361 89.95922852 11.40405273 C95.61925946 18.32993332 99.82648407 26.2642927 104.08422852 34.09155273 C105.07462222 35.89539674 106.06722185 37.69801606 107.05986023 39.50062561 C107.72921939 40.71652694 108.39793195 41.93278445 109.06599426 43.1493988 C112.13504643 48.73693188 115.25546974 54.29436973 118.39672852 59.84155273 C118.91775146 60.76234619 119.43877441 61.68313965 119.97558594 62.63183594 C124.59994418 70.79201401 129.26185444 78.93070466 133.92233276 87.07028198 C139.22783248 96.33899079 144.46615235 105.64373442 149.66992188 114.9699707 C154.38360274 123.40568008 159.17200865 131.79735469 163.97772217 140.18078613 C168.73208621 148.47643604 173.43109691 156.80108529 178.08422852 165.15405273 C182.65507518 173.35811987 187.32517715 181.49528197 192.08422852 189.59155273 C197.07632792 198.0876687 201.88138193 206.66406968 206.56567383 215.33325195 C210.3809155 222.38271475 214.32410615 229.3504586 218.3190918 236.29931641 C222.2484482 243.1403679 226.11334381 250.01576752 229.95922852 256.90405273 C234.76000807 265.49847824 239.60396109 274.06603122 244.49926758 282.60693359 C248.09336523 288.8799981 251.65733947 295.1695043 255.20922852 301.46655273 C260.22596725 310.35586172 265.27144196 319.22841911 270.33422852 328.09155273 C270.98810547 329.23696533 271.64198242 330.38237793 272.31567383 331.5625 C272.94828125 332.66907959 273.58088867 333.77565918 274.23266602 334.91577148 C274.84746826 335.99173584 275.46227051 337.0677002 276.09570312 338.17626953 C277.36585656 340.37628244 278.65119949 342.56757905 279.94970703 344.75097656 C280.58062256 345.8121167 281.21153809 346.87325684 281.86157227 347.96655273 C282.4286792 348.91014648 282.99578613 349.85374023 283.58007812 350.82592773 C285.63178473 354.66130068 286.18117267 357.039151 285.95922852 361.40405273 C282.97667438 367.18905508 279.28342255 372.51467987 275.64672852 377.90405273 C269.71222869 386.74181226 263.87394792 395.63744271 258.11035156 404.58764648 C249.32910748 418.14516312 241.16637223 429.96336104 224.621858 433.97732747 C218.48452562 434.96092463 212.19917813 434.68883628 205.99714661 434.6782074 C204.3603822 434.68266294 202.72361995 434.68797802 201.08686084 434.69407612 C196.59954876 434.70822735 192.11230604 434.70991997 187.62497485 434.70947921 C182.78174261 434.71112984 177.93853874 434.7242005 173.09532166 434.735672 C162.51315292 434.75849667 151.93100427 434.76643902 141.34881425 434.77149844 C134.74281596 434.77475665 128.13682348 434.78127965 121.53082848 434.78849983 C103.2423118 434.80805792 84.95380052 434.82446827 66.66527271 434.82737637 C64.91081979 434.82765772 64.91081979 434.82765772 63.12092338 434.82794476 C60.74982401 434.82831101 58.37872463 434.82867471 56.00762526 434.82903587 C54.83061185 434.82921868 53.65359845 434.82940149 52.44091797 434.82958984 C50.67324614 434.82986067 50.67324614 434.82986067 48.86986377 434.83013696 C29.75218102 434.83368266 10.63461061 434.86073331 -8.48303314 434.89808773 C-28.10824196 434.93612758 -47.73339493 434.9555335 -67.35864145 434.95583588 C-78.37883648 434.95642122 -89.39889728 434.96496319 -100.41905785 434.99383354 C-109.79696107 435.01828895 -119.17468104 435.02566952 -128.5526075 435.01058602 C-133.33912148 435.00339464 -138.12527314 435.00437033 -142.91174698 435.02699661 C-147.29062365 435.04749861 -151.6688574 435.04506926 -156.04772643 435.02412177 C-157.63438075 435.02061009 -159.22108065 435.02560745 -160.80767515 435.03982621 C-162.96036985 435.05787992 -165.11077645 435.04527946 -167.26340008 435.0248785 C-169.05847831 435.02610019 -169.05847831 435.02610019 -170.88982075 435.02734655 C-174.9628769 434.22164982 -176.4240788 432.54950265 -179.04077148 429.40405273 C-180.46138 427.13960266 -180.46138 427.13960266 -181.59277344 424.80761719 C-182.02705154 423.92511795 -182.46132965 423.04261871 -182.9087677 422.13337708 C-183.58705879 420.71468575 -183.58705879 420.71468575 -184.27905273 419.26733398 C-184.76351364 418.27388474 -185.24797455 417.28043549 -185.74711609 416.25688171 C-186.77129262 414.15194734 -187.79053927 412.04460808 -188.80517578 409.93505859 C-190.32854845 406.76795216 -191.86573918 403.60789367 -193.40600586 400.44897461 C-197.92842178 391.1454183 -202.38673685 381.81176035 -206.64624023 372.38452148 C-207.12605095 371.33775993 -207.12605095 371.33775993 -207.61555481 370.26985168 C-212.96380811 358.25128334 -213.1286254 347.87674305 -209.04077148 335.40405273 C-207.09802352 331.2357626 -204.79670197 327.33532085 -202.41577148 323.40405273 C-201.75625488 322.28812744 -201.09673828 321.17220215 -200.41723633 320.02246094 C-198.31428527 316.46926 -196.1803513 312.93528355 -194.04077148 309.40405273 C-193.34349347 308.25090268 -192.64622773 307.09774519 -191.94897461 305.94458008 C-189.14842206 301.31759093 -186.34085908 296.69493297 -183.52075195 292.07983398 C-178.43058146 283.74319834 -173.45885103 275.34319418 -168.54077148 266.90405273 C-162.62644751 256.75717488 -156.59965303 246.68750629 -150.47827148 236.66430664 C-145.06774338 227.80009125 -139.77058712 218.8759745 -134.54077148 209.90405273 C-128.62615897 199.75733926 -122.5996569 189.68751262 -116.47827148 179.66430664 C-111.06774338 170.80009125 -105.77058712 161.8759745 -100.54077148 152.90405273 C-94.62615897 142.75733926 -88.5996569 132.68751262 -82.47827148 122.66430664 C-77.06774338 113.80009125 -71.77058712 104.8759745 -66.54077148 95.90405273 C-60.62753224 85.75969515 -54.60343829 75.69153496 -48.4822998 65.6713562 C-43.35431607 57.27261839 -38.32679242 48.82132321 -33.3711853 40.31976318 C-27.89638228 30.928952 -22.39554234 21.55550599 -16.72827148 12.27905273 C-16.20716797 11.41417236 -15.68606445 10.54929199 -15.14916992 9.65820312 C-14.66351563 8.87050537 -14.17786133 8.08280762 -13.67749023 7.27124023 C-13.26200928 6.59174316 -12.84652832 5.91224609 -12.41845703 5.2121582 C-8.84655032 0.52430757 -5.79459803 0.02472002 0 0 Z M29.95922852 202.40405273 C28.49695788 204.69715897 27.09051968 207.00016009 25.70922852 209.34155273 C25.30389893 210.02290283 24.89856934 210.70425293 24.48095703 211.40625 C21.54832329 216.35495948 18.68991472 221.34061953 15.95922852 226.40405273 C16.47485352 226.91967773 16.99047852 227.43530273 17.52172852 227.96655273 C19.11217532 230.66339731 19.30676893 232.18984404 18.69897461 235.24829102 C16.96768157 240.29361033 14.00263973 244.7882348 11.27172852 249.34155273 C10.25236724 251.07391391 9.23301307 252.80627933 8.21418762 254.53895569 C7.16410052 256.3205938 6.10880339 258.09904651 5.05200195 259.87670898 C2.40887923 264.32545067 -0.2004829 268.79376348 -2.80761719 273.26367188 C-3.96733865 275.25151802 -5.1297474 277.23779993 -6.29541016 279.22216797 C-10.00351424 285.54985558 -13.56387166 291.94650649 -17.04077148 298.40405273 C-12.97451039 298.68801367 -9.09479356 298.94999437 -5.04077148 298.40405273 C-2.31188705 295.64833511 -2.31188705 295.64833511 -1.04077148 292.40405273 C2.20769126 290.77982136 5.78478971 291.22364501 9.35620117 291.19873047 C10.224561 291.18883087 11.09292084 291.17893127 11.9875946 291.16873169 C14.86613207 291.13707116 17.74468605 291.11234128 20.62329102 291.08764648 C22.61583899 291.06708089 24.60838256 291.04608452 26.60092163 291.02467346 C31.85177043 290.96941206 37.10265887 290.92002074 42.35357666 290.87182617 C47.70914244 290.82164082 53.06465047 290.76593929 58.42016602 290.71069336 C68.93313756 290.60306204 79.44615917 290.50162813 89.95922852 290.40405273 C88.78927702 287.43632502 87.61394868 284.61461818 86.01391602 281.85327148 C85.48217773 280.92998047 85.48217773 280.92998047 84.93969727 279.98803711 C84.39249023 279.04927734 84.39249023 279.04927734 83.83422852 278.09155273 C83.46168945 277.44637695 83.08915039 276.80120117 82.70532227 276.13647461 C81.79290639 274.55729328 80.87647342 272.98043409 79.95922852 271.40405273 C78.68821289 271.57163086 77.41719727 271.73920898 76.10766602 271.91186523 C70.31956371 272.67500246 70.31956371 272.67500246 67.95922852 271.40405273 C67.26893985 269.74703017 66.6069206 268.07818451 65.95922852 266.40405273 C65.01556891 264.54345693 64.04455468 262.69659124 63.05297852 260.86108398 C62.479104 259.79647949 61.90522949 258.731875 61.31396484 257.63500977 C60.70190186 256.50691895 60.08983887 255.37882812 59.45922852 254.21655273 C58.82199789 253.03806131 58.18487317 251.85951262 57.54785156 250.6809082 C53.22804031 242.69852749 48.85112792 234.74923635 44.42407227 226.82592773 C41.53690015 221.65678603 38.68548227 216.46806865 35.83422852 211.27905273 C35.34801025 210.39427246 34.86179199 209.50949219 34.36083984 208.59790039 C33.22665114 206.53345903 32.09275707 204.46885662 30.95922852 202.40405273 C30.62922852 202.40405273 30.29922852 202.40405273 29.95922852 202.40405273 Z " fill="#2B3C65" transform="translate(219.040771484375,38.595947265625)"/>
<path d="M0 0 C0.66 0 1.32 0 2 0 C2.45246094 0.83015625 2.90492188 1.6603125 3.37109375 2.515625 C8.65055862 12.09419748 14.26797724 21.45319904 19.96603394 30.78723145 C25.8833965 40.482546 31.71662095 50.22421239 37.5 60 C43.44000449 70.03727502 49.42854436 80.04168123 55.5 90 C62.43601331 101.38023578 69.26236395 112.82256948 76.0546875 124.2890625 C80.84466985 132.37463741 85.65611125 140.44654269 90.5 148.5 C95.75245042 157.23273261 100.96354583 165.98909932 106.15722656 174.75683594 C113.22026453 186.67960653 120.35193887 198.5559872 127.56567383 210.38818359 C133.93220329 220.84240406 140.18061673 231.36567738 146.40625 241.90429688 C147.15737916 243.17458143 147.90867786 244.44476576 148.66015625 245.71484375 C149.20048996 246.62851212 149.20048996 246.62851212 149.7517395 247.56063843 C152.94879851 252.94937324 156.24362404 258.27479464 159.56420898 263.58813477 C161 266 161 266 161 267 C152.66382612 267.30210937 144.32995993 267.53261205 135.98965454 267.67355824 C132.11596541 267.74123454 128.24603592 267.83286814 124.37451172 267.98071289 C120.63292077 268.1226904 116.89492587 268.19982374 113.15084839 268.23340416 C111.72784756 268.25730583 110.30503006 268.30399678 108.88357544 268.37449074 C104.30943228 268.59217181 100.33612527 268.53536927 96 267 C92.32291855 263.03560343 90.26669914 258.91648339 88 254 C87.15149979 252.63555504 87.15149979 252.63555504 86.28585815 251.24354553 C84.59039 248.28531877 85.07965913 246.83913595 85.7578125 243.546875 C86.65038385 235.45192047 82.90660643 229.89687381 78.875 223.25 C78.13250607 221.97628039 77.39321086 220.70069123 76.65698242 219.42333984 C75.16439088 216.8381813 73.65940465 214.26092254 72.14501953 211.68847656 C69.05577493 206.41246717 66.18856564 201.01924273 63.3125 195.625 C58.67682684 187.01934345 53.91674621 178.49160403 49.08520508 169.99462891 C45.00869628 162.81496066 41.00378765 155.59756837 37.0249939 148.36349487 C31.67643641 138.6395253 26.31257888 128.92457084 20.875 119.25 C20.36710938 118.34056641 19.85921875 117.43113281 19.3359375 116.49414062 C16.9407519 112.24841934 14.47439412 108.05589279 11.859375 103.94140625 C11.39756836 103.21381104 10.93576172 102.48621582 10.45996094 101.73657227 C8.94204785 99.63689888 8.94204785 99.63689888 5.375 98.6875 C1.23534594 99.0708013 0.64763902 99.91119547 -2 103 C-3.19246622 104.85357799 -4.32062789 106.74936271 -5.3984375 108.671875 C-6.35375366 110.36207764 -6.35375366 110.36207764 -7.32836914 112.08642578 C-7.66160187 112.68295959 -7.99483459 113.27949341 -8.33816528 113.894104 C-9.75326776 116.42708538 -11.1826861 118.95188451 -12.61140442 121.47720337 C-13.34403576 122.77235575 -14.07595513 124.06791111 -14.80717468 125.36386108 C-18.16887317 131.31758956 -21.60502821 137.22640523 -25.0625 143.125 C-31.79318598 154.62807606 -38.45656244 166.16924246 -45.10888672 177.71777344 C-48.23680148 183.14659942 -51.36858448 188.57319281 -54.5 194 C-55.75001879 196.16665583 -57.00001878 198.3333225 -58.25 200.5 C-125.75 317.5 -125.75 317.5 -127.62573242 320.7512207 C-128.8733474 322.91378583 -130.12090616 325.07638339 -131.3684082 327.23901367 C-134.52943449 332.71870371 -137.69149309 338.19779358 -140.85546875 343.67578125 C-148.60577436 357.09706615 -156.32586445 370.53500558 -164 384 C-164.66 384 -165.32 384 -166 384 C-169.14705201 377.83020979 -172.24134936 371.63559713 -175.3046875 365.42382812 C-176.76055101 362.48358765 -178.23355798 359.55260719 -179.71086121 356.62310791 C-180.92894594 354.18966296 -182.12149109 351.74426172 -183.3085022 349.29553223 C-184.16520021 347.54555186 -185.04943534 345.80913705 -185.93432617 344.07324219 C-189.79922489 336.01379334 -191.53840252 328.92654126 -190 320 C-188.47514787 315.98558637 -186.33967177 312.58707798 -184 309 C-182.75565939 306.86048403 -181.52042967 304.71565073 -180.29296875 302.56640625 C-178.92682363 300.23035146 -177.55860484 297.89563519 -176.1875 295.5625 C-175.82172852 294.93883545 -175.45595703 294.3151709 -175.07910156 293.67260742 C-169.29415861 283.81304165 -163.39917031 274.02451041 -157.4425354 264.26794434 C-151.99216537 255.33692274 -146.64920307 246.34861618 -141.375 237.3125 C-135.58511824 227.39344997 -129.73510575 217.51389283 -123.81079102 207.67431641 C-118.61035814 199.03226951 -113.4567558 190.36304648 -108.3125 181.6875 C-102.77785249 172.35466359 -97.23033864 163.03037305 -91.63598633 153.7331543 C-86.89266753 145.84069671 -82.1975627 137.91973734 -77.5 130 C-71.90282205 120.56357901 -66.29345737 111.13525866 -60.63671875 101.734375 C-55.89315846 93.84150884 -51.19780482 85.92014554 -46.5 78 C-40.90718015 68.57092644 -35.30235317 59.14984189 -29.64990234 49.75634766 C-23.55069183 39.60792143 -17.52093862 29.41797963 -11.48309326 19.23297119 C-10.71654097 17.94116702 -9.94902552 16.64993384 -9.18048096 15.35931396 C-7.49100433 12.52175079 -5.81526732 9.67925211 -4.16699219 6.81738281 C-3.63493164 5.90053711 -3.10287109 4.98369141 -2.5546875 4.0390625 C-2.10335449 3.24967285 -1.65202148 2.4602832 -1.18701172 1.64697266 C-0.79529785 1.10347168 -0.40358398 0.5599707 0 0 Z " fill="#02BDFE" transform="translate(214,63)"/>
<path d="M0 0 C7.70464251 -0.0508063 15.40924162 -0.08577834 23.11401367 -0.10986328 C25.73382176 -0.11990645 28.35361869 -0.13354352 30.97338867 -0.15087891 C34.74400595 -0.17520085 38.5144747 -0.18650019 42.28515625 -0.1953125 C43.45208511 -0.20563507 44.61901398 -0.21595764 45.82130432 -0.22659302 C55.50182975 -0.2279217 61.5504471 0.69219508 68.78662109 7.50244141 C72.83079645 12.06585569 75.50880156 17.30543429 78.3125 22.6875 C78.95938641 23.89530022 79.6083463 25.10199197 80.25927734 26.30761719 C81.56635905 28.7302548 82.86634731 31.15648053 84.16162109 33.58544922 C86.73064867 38.35708531 89.41585935 43.0569362 92.125 47.75 C93.10210667 49.45151054 94.07866885 51.15333387 95.0546875 52.85546875 C95.53776367 53.69770996 96.02083984 54.53995117 96.51855469 55.40771484 C99.11384873 59.94905171 101.68069872 64.50642376 104.25 69.0625 C109.45087964 78.28249119 114.6988073 87.47505755 119.96026611 96.66055298 C124.73283965 104.99553719 129.45034721 113.35961445 134.125 121.75 C138.6959036 129.95403639 143.36594778 138.09122779 148.125 146.1875 C153.11709941 154.68361597 157.92215341 163.26001694 162.60644531 171.92919922 C166.42168699 178.97866202 170.36487763 185.94640586 174.35986328 192.89526367 C178.28921968 199.73631517 182.1541153 206.61171478 186 213.5 C190.80077956 222.0944255 195.64473258 230.66197848 200.54003906 239.20288086 C204.13413615 245.47594438 207.69824804 251.76537491 211.25 258.0625 C216.44829643 267.27773327 221.69336539 276.46569829 226.95220947 285.64645386 C232.4687797 295.28059423 237.91777088 304.95037458 243.30834961 314.65576172 C246.3900919 320.18949693 249.56429323 325.63911455 252.91162109 331.01708984 C254 333 254 333 254 335 C151.04 335 48.08 335 -58 335 C-56.61053512 331.52633781 -55.29878472 328.57139768 -53.48828125 325.359375 C-52.73430054 324.01758179 -52.73430054 324.01758179 -51.96508789 322.64868164 C-50.24287325 319.6278729 -48.50467331 316.6166139 -46.765625 313.60546875 C-44.49814287 309.67757022 -42.31147403 305.72598297 -40.22383118 301.69943237 C-38.70840883 298.79980171 -37.12754243 295.93557274 -35.5625 293.0625 C-35.0156958 291.96067383 -34.4688916 290.85884766 -33.90551758 289.72363281 C-32.14686744 286.58055605 -30.76396739 284.31870297 -28 282 C-23.19693795 281.09007678 -18.8234035 281.329229 -14 282 C-13.2884375 283.4540625 -13.2884375 283.4540625 -12.5625 284.9375 C-11.29806053 287.80477437 -11.29806053 287.80477437 -10 289 C-7.77931813 289.10362579 -5.55527609 289.13523871 -3.33218384 289.14044189 C-2.27439541 289.14489858 -2.27439541 289.14489858 -1.19523752 289.1494453 C1.18544587 289.15816875 3.5660792 289.1596436 5.94677734 289.16113281 C7.64647022 289.16575841 9.34616205 289.17078271 11.04585266 289.17617798 C15.6760121 289.18932882 20.30615702 289.19575214 24.93633223 289.20018864 C27.82607311 289.20311501 30.71580998 289.20721897 33.60554886 289.21169281 C42.63814634 289.22537473 51.67073471 289.23503802 60.70334184 289.2388947 C71.14637246 289.2433775 81.58927232 289.26093275 92.03226316 289.2898953 C100.09341273 289.31147951 108.15452543 289.32159723 116.21570361 289.32293582 C121.03534692 289.32398618 125.85486743 289.32994289 130.67448044 289.34775543 C135.20689275 289.36417992 139.73908923 289.36641915 144.27152061 289.35761642 C145.93765145 289.35684302 147.60379363 289.36122843 149.26989555 289.37107468 C151.53959631 289.38370425 153.80852222 289.37796725 156.07821655 289.36749268 C157.98576249 289.36969252 157.98576249 289.36969252 159.93184471 289.3719368 C162.95953797 289.2459025 162.95953797 289.2459025 164.90870094 287.68389511 C166.77943405 284.7973185 166.34612576 282.33866677 166 279 C164.75922624 275.9127436 164.75922624 275.9127436 162.87890625 272.95703125 C162.54805527 272.39980881 162.21720428 271.84258636 161.87632751 271.26847839 C160.78612292 269.44072732 159.67464682 267.62696801 158.5625 265.8125 C157.78643662 264.52097683 157.01171943 263.22864388 156.23828125 261.93554688 C154.23477 258.5950228 152.21291091 255.26606354 150.18389893 251.940979 C148.6970826 249.50337289 147.21621457 247.06218568 145.73545837 244.62089539 C143.28805809 240.58594232 140.83803167 236.55262664 138.37915039 232.5246582 C133.32493404 224.23723898 128.38860056 215.88601156 123.5 207.5 C117.62522372 197.42402269 111.64791427 187.41846296 105.57226562 177.46240234 C99.80962085 168.01688431 94.13484863 158.52226394 88.5 149 C82.55968925 138.96290768 76.5716568 128.9582 70.5 119 C64.01877207 108.37005729 57.63895439 97.68322284 51.29803467 86.96905518 C45.63357871 77.40064336 39.91134986 67.8701771 34.125 58.375 C28.55688516 49.23754809 23.04835548 40.0690095 17.62646484 30.84399414 C14.96356755 26.31486871 12.28284772 21.79804359 9.56640625 17.30078125 C9.00993408 16.37910156 8.45346191 15.45742187 7.88012695 14.5078125 C6.82000666 12.75497021 5.75747251 11.00358477 4.69213867 9.25390625 C4.22138916 8.4753125 3.75063965 7.69671875 3.265625 6.89453125 C2.64349121 5.87129761 2.64349121 5.87129761 2.00878906 4.82739258 C1 3 1 3 0 0 Z " fill="#FD5791" transform="translate(229,55)"/>
<path d="M0 0 C2.76676969 2.46556132 4.34544895 5.15096686 6.1171875 8.390625 C7.01920898 10.02801636 7.01920898 10.02801636 7.93945312 11.69848633 C8.58497953 12.88213662 9.23015413 14.06597882 9.875 15.25 C11.21388374 17.69785858 12.5555233 20.14419425 13.8984375 22.58984375 C14.23772278 23.20868942 14.57700806 23.8275351 14.92657471 24.46513367 C17.19140981 28.57979 19.52866813 32.64494959 21.9140625 36.69140625 C22.82115967 38.24263184 22.82115967 38.24263184 23.74658203 39.82519531 C24.89332257 41.77890142 26.05269241 43.72526331 27.22607422 45.66308594 C30.92955448 52.01888596 30.92955448 52.01888596 31.21484375 55.9921875 C29.30392012 60.7234132 26.73799332 64.97764148 24.0625 69.3125 C23.51142578 70.23095703 22.96035156 71.14941406 22.39257812 72.09570312 C18.27713423 78.86143289 18.27713423 78.86143289 16 80 C14.88625 79.938125 13.7725 79.87625 12.625 79.8125 C9.01665654 79.63408909 9.01665654 79.63408909 6.94482422 81.72558594 C5.05438247 83.93640132 3.6576735 86.03377252 2.2578125 88.578125 C1.75644775 89.47909912 1.25508301 90.38007324 0.73852539 91.30834961 C-0.06016968 92.76446655 -0.06016968 92.76446655 -0.875 94.25 C-2.03890372 96.34065771 -3.20431628 98.430476 -4.37109375 100.51953125 C-4.97034668 101.59412598 -5.56959961 102.6687207 -6.18701172 103.77587891 C-9.04748351 108.86278848 -11.98820618 113.90171561 -14.9375 118.9375 C-15.51806152 119.92975586 -16.09862305 120.92201172 -16.69677734 121.94433594 C-17.87535851 123.95778611 -19.05439492 125.97096986 -20.23388672 127.98388672 C-23.16256147 132.98538629 -26.08076989 137.99298413 -29 143 C-30.16661606 145.00002952 -31.33328274 147.00002951 -32.5 149 C-33.0775 149.99 -33.655 150.98 -34.25 152 C-39.5 161 -39.5 161 -41.25244141 164.00415039 C-42.41101059 165.99029211 -43.56953969 167.97645721 -44.72802734 169.96264648 C-47.76824555 175.17487745 -50.80930171 180.38661719 -53.8515625 185.59765625 C-54.48320312 186.67982422 -55.11484375 187.76199219 -55.765625 188.87695312 C-56.97109575 190.94220815 -58.17680988 193.00732114 -59.3828125 195.07226562 C-60.45201955 196.90429138 -61.51952685 198.73731068 -62.58496094 200.5715332 C-63.47132734 202.09270066 -64.36420172 203.6101151 -65.26660156 205.12182617 C-67.55185819 208.98922253 -68.80826141 211.45352957 -68 216 C-65.93026589 218.63937319 -64.73781297 219.85684674 -61.40647244 220.50320601 C-60.41464294 220.5047249 -59.42281344 220.50624378 -58.4009285 220.50780869 C-56.68037668 220.52498007 -56.68037668 220.52498007 -54.92506623 220.54249835 C-53.03403314 220.53085772 -53.03403314 220.53085772 -51.10479736 220.51898193 C-49.75252695 220.52485598 -48.40026321 220.5324824 -47.04801154 220.541713 C-43.32861757 220.56201755 -39.60960404 220.557408 -35.89017987 220.54880548 C-31.88062539 220.54387041 -27.87116768 220.56193332 -23.86164856 220.57722473 C-16.9137477 220.60056467 -9.96595129 220.60928405 -3.018013 220.60811615 C7.02755427 220.60644863 17.07298208 220.62676411 27.11851218 220.65247145 C43.41607815 220.69358009 59.71361908 220.71687237 76.01123047 220.72900391 C91.84426278 220.74082767 107.67724792 220.76101528 123.51025391 220.79248047 C124.9737989 220.79538462 124.9737989 220.79538462 126.46691045 220.79834744 C131.3616195 220.80811184 136.25632819 220.81804098 141.15103674 220.82805204 C181.76733504 220.91091062 222.38363417 220.96487334 263 221 C262.03965674 222.77100804 261.07806901 224.5413413 260.11595154 226.31138611 C259.58060004 227.29731215 259.04524855 228.2832382 258.49367428 229.29904079 C256.96972753 232.05474065 255.35593458 234.70409909 253.59765625 237.31640625 C253.01693359 238.18330078 252.43621094 239.05019531 251.83789062 239.94335938 C250.95907227 241.23983398 250.95907227 241.23983398 250.0625 242.5625 C249.48048828 243.43068359 248.89847656 244.29886719 248.29882812 245.19335938 C246.54385518 247.80346864 244.77528401 250.40366844 243 253 C242.37971924 253.90999756 241.75943848 254.81999512 241.12036133 255.75756836 C240.51087646 256.6419458 239.9013916 257.52632324 239.2734375 258.4375 C238.45431885 259.62859375 238.45431885 259.62859375 237.61865234 260.84375 C233.23875027 266.67833448 228.13859401 270.25056352 221 272 C215.90867789 272.43639598 210.83035828 272.39257359 205.72558594 272.36076355 C204.16363016 272.36207276 202.60167503 272.36470129 201.0397234 272.36853105 C196.75931995 272.37522537 192.47914256 272.36325789 188.1987679 272.34819686 C183.57855198 272.33522555 178.95834852 272.33962674 174.33811951 272.34190369 C166.3371479 272.34347573 158.33624976 272.33407374 150.33529663 272.31719017 C138.76731355 272.29279538 127.19936595 272.2849944 115.63135993 272.2812262 C96.8624555 272.27466247 78.09359021 272.25470343 59.32470703 272.22631836 C41.09391475 272.19877576 22.86313311 272.17754316 4.63232422 272.16479492 C3.50832867 272.16400675 2.38433313 272.16321858 1.22627711 272.16240653 C-4.41255261 272.15849138 -10.0513824 272.15470026 -15.69021225 272.15097082 C-62.46016861 272.11987736 -109.23008228 272.06704369 -156 272 C-154.53028926 268.23283763 -152.8497922 264.80946736 -150.83203125 261.30078125 C-149.87478149 259.63088135 -149.87478149 259.63088135 -148.89819336 257.92724609 C-148.20304466 256.72228318 -147.5078113 255.5173691 -146.8125 254.3125 C-146.09031382 253.05565201 -145.3683941 251.79865088 -144.64672852 250.54150391 C-142.79256933 247.31362852 -140.93436047 244.08810651 -139.07458496 240.86346436 C-137.42607817 238.00474796 -135.77968312 235.14481546 -134.1328125 232.28515625 C-131.04520824 226.92721891 -127.95279067 221.57207499 -124.85888672 216.21777344 C-121.73675395 210.81329355 -118.61858796 205.40652588 -115.5 200 C-114.25001878 197.8333225 -113.00001879 195.66665583 -111.75 193.5 C-111.13125 192.4275 -110.5125 191.355 -109.875 190.25 C-107.0625 185.375 -107.0625 185.375 -104.25 180.5 C-103.63116943 179.42733887 -103.01233887 178.35467773 -102.37475586 177.24951172 C-101.12564482 175.08442929 -99.87645871 172.91939018 -98.62719727 170.75439453 C-95.48797691 165.31384294 -92.35009437 159.87252784 -89.21484375 154.4296875 C-83.19252671 143.97793801 -77.15330663 133.53700452 -71.0625 123.125 C-65.98724877 114.44737759 -60.97741233 105.73394432 -56 97 C-50.4599827 87.27884383 -44.86625191 77.59105342 -39.21655273 67.93310547 C-33.07856591 57.43691336 -27.0085231 46.90186662 -20.93945312 36.36572266 C-18.91417962 32.8510675 -16.88712521 29.33744531 -14.859375 25.82421875 C-14.51877548 25.23406982 -14.17817596 24.6439209 -13.82725525 24.03588867 C-12.19230093 21.20307244 -10.55725345 18.37031 -8.92211914 15.53759766 C-5.93712167 10.36458596 -2.95763676 5.18870767 0 0 Z " fill="#F7B726" transform="translate(218,185)"/>
<path d="M0 0 C3.99125604 5.10330047 7.04091463 10.76229689 10.25 16.375 C10.91257812 17.4990625 11.57515625 18.623125 12.2578125 19.78125 C12.87914062 20.87179688 13.50046875 21.96234375 14.140625 23.0859375 C14.99962402 24.5716626 14.99962402 24.5716626 15.87597656 26.08740234 C17.24193906 29.62691855 17.04033989 31.38031494 16 35 C14.81665039 37.5012207 14.81665039 37.5012207 13.34765625 39.92578125 C12.81849609 40.80427734 12.28933594 41.68277344 11.74414062 42.58789062 C11.18919922 43.48701172 10.63425781 44.38613281 10.0625 45.3125 C9.23588867 46.69018555 9.23588867 46.69018555 8.39257812 48.09570312 C4.27713423 54.86143289 4.27713423 54.86143289 2 56 C0.88625 55.938125 -0.2275 55.87625 -1.375 55.8125 C-4.98334346 55.63408909 -4.98334346 55.63408909 -7.05517578 57.72558594 C-8.94561753 59.93640132 -10.3423265 62.03377252 -11.7421875 64.578125 C-12.24355225 65.47909912 -12.74491699 66.38007324 -13.26147461 67.30834961 C-13.79393799 68.27909424 -14.32640137 69.24983887 -14.875 70.25 C-16.03890372 72.34065771 -17.20431628 74.430476 -18.37109375 76.51953125 C-18.97034668 77.59412598 -19.56959961 78.6687207 -20.18701172 79.77587891 C-23.04748351 84.86278848 -25.98820618 89.90171561 -28.9375 94.9375 C-29.51806152 95.92975586 -30.09862305 96.92201172 -30.69677734 97.94433594 C-31.87535851 99.95778611 -33.05439492 101.97096986 -34.23388672 103.98388672 C-37.16256147 108.98538629 -40.08076989 113.99298413 -43 119 C-44.16661606 121.00002952 -45.33328274 123.00002951 -46.5 125 C-47.0775 125.99 -47.655 126.98 -48.25 128 C-53.5 137 -53.5 137 -55.25244141 140.00415039 C-56.41101059 141.99029211 -57.56953969 143.97645721 -58.72802734 145.96264648 C-61.76824555 151.17487745 -64.80930171 156.38661719 -67.8515625 161.59765625 C-68.48320312 162.67982422 -69.11484375 163.76199219 -69.765625 164.87695312 C-70.97109575 166.94220815 -72.17680988 169.00732114 -73.3828125 171.07226562 C-74.45201955 172.90429138 -75.51952685 174.73731068 -76.58496094 176.5715332 C-77.47132734 178.09270066 -78.36420172 179.6101151 -79.26660156 181.12182617 C-81.55185819 184.98922253 -82.80826141 187.45352957 -82 192 C-79.93026589 194.63937319 -78.73781297 195.85684674 -75.40647244 196.50320601 C-73.91872819 196.50548434 -73.91872819 196.50548434 -72.4009285 196.50780869 C-70.68037668 196.52498007 -70.68037668 196.52498007 -68.92506623 196.54249835 C-67.03403314 196.53085772 -67.03403314 196.53085772 -65.10479736 196.51898193 C-63.75252695 196.52485598 -62.40026321 196.5324824 -61.04801154 196.541713 C-57.32861757 196.56201755 -53.60960404 196.557408 -49.89017987 196.54880548 C-45.88062539 196.54387041 -41.87116768 196.56193332 -37.86164856 196.57722473 C-30.9137477 196.60056467 -23.96595129 196.60928405 -17.018013 196.60811615 C-6.97244573 196.60644863 3.07298208 196.62676411 13.11851218 196.65247145 C29.41607815 196.69358009 45.71361908 196.71687237 62.01123047 196.72900391 C77.84426278 196.74082767 93.67724792 196.76101528 109.51025391 196.79248047 C110.9737989 196.79538462 110.9737989 196.79538462 112.46691045 196.79834744 C117.3616195 196.80811184 122.25632819 196.81804098 127.15103674 196.82805204 C167.76733504 196.91091062 208.38363417 196.96487334 249 197 C248.0639831 198.74005096 247.12500543 200.47850943 246.18481445 202.21630859 C245.40096123 203.66872452 245.40096123 203.66872452 244.60127258 205.15048218 C242.35765503 209.14307424 239.8243259 212.88497534 237.1875 216.625 C236.69830078 217.33011719 236.20910156 218.03523437 235.70507812 218.76171875 C232.1860119 223.8139881 232.1860119 223.8139881 231 225 C229.35365981 225.10165917 227.70294042 225.13291535 226.05346966 225.13701439 C224.97554297 225.14208893 223.89761629 225.14716347 222.78702515 225.15239179 C221.58803851 225.15288955 220.38905187 225.15338731 219.1537323 225.15390015 C217.26017367 225.16047353 217.26017367 225.16047353 215.32836133 225.1671797 C211.80789951 225.17917964 208.28745142 225.18480161 204.76697314 225.18936086 C200.9759872 225.19530452 197.18501779 225.20691791 193.39404297 225.21765137 C184.22710304 225.24221114 175.06015762 225.25681154 165.89319488 225.26971143 C163.30380076 225.27342198 160.71440718 225.27739536 158.12501359 225.2814641 C142.04718799 225.30670873 125.96936156 225.32876332 109.8915205 225.34119225 C106.16441533 225.34412201 102.43731018 225.34708365 98.71020508 225.35009766 C97.78383711 225.35084371 96.85746914 225.35158976 95.90302942 225.35235842 C80.91203349 225.36499927 65.92115653 225.39820211 50.93021616 225.43989949 C35.53935686 225.48235794 20.14855836 225.50589216 4.75764066 225.51111281 C-3.8836115 225.51452345 -12.5246781 225.52623676 -21.16587257 225.55921555 C-28.52940705 225.58727159 -35.89271797 225.59819135 -43.25630174 225.58702008 C-47.01079303 225.5818467 -50.76481662 225.58463289 -54.51923943 225.60948563 C-58.59878511 225.63626364 -62.67730961 225.62387235 -66.75691223 225.60800171 C-67.93136093 225.6218838 -69.10580964 225.63576588 -70.31584769 225.65006864 C-79.4593034 225.56271726 -87.8914829 223.28080801 -95.375 217.8125 C-102.88251963 209.76872896 -106.83720581 200.4237608 -106.5390625 189.37890625 C-105.39743287 182.22303939 -101.54488841 176.21060688 -98 170 C-97.44183594 169.00935547 -96.88367188 168.01871094 -96.30859375 166.99804688 C-92.64361348 160.49679206 -88.93637854 154.02106602 -85.20507812 147.55773926 C-81.44893136 141.05052174 -77.72421934 134.52552584 -74 128 C-72.66828019 125.66909281 -71.33606208 123.33847052 -70.00390625 121.0078125 C-67.65946467 116.90547819 -65.3162008 112.80247454 -62.97433472 108.69866943 C-55.56160337 95.70896645 -48.12388912 82.73427956 -40.64208984 69.78417969 C-36.09511855 61.90943023 -31.57228923 54.02108276 -27.0625 46.125 C-26.40805908 44.97966797 -25.75361816 43.83433594 -25.0793457 42.65429688 C-21.93413834 37.14816997 -18.79369567 31.63938795 -15.66218567 26.12545776 C-14.19277434 23.5388706 -12.72135593 20.95342805 -11.24972534 18.36810303 C-10.54828935 17.13450913 -9.8478501 15.90034789 -9.14846802 14.66558838 C-8.17825477 12.95275037 -7.20443709 11.24195555 -6.23046875 9.53125 C-5.40131958 8.07041992 -5.40131958 8.07041992 -4.55541992 6.58007812 C-3.15738168 4.26105943 -1.67011233 2.12839593 0 0 Z " fill="#FDCA4C" transform="translate(232,209)"/>
<path d="M0 0 C0.66 0 1.32 0 2 0 C2.45246094 0.83015625 2.90492188 1.6603125 3.37109375 2.515625 C8.65055862 12.09419748 14.26797724 21.45319904 19.96603394 30.78723145 C25.8833965 40.482546 31.71662095 50.22421239 37.5 60 C43.44000449 70.03727502 49.42854436 80.04168123 55.5 90 C62.43601331 101.38023578 69.26236395 112.82256948 76.0546875 124.2890625 C80.84466985 132.37463741 85.65611125 140.44654269 90.5 148.5 C95.75245042 157.23273261 100.96354583 165.98909932 106.15722656 174.75683594 C113.22026453 186.67960653 120.35193887 198.5559872 127.56567383 210.38818359 C133.93220329 220.84240406 140.18061673 231.36567738 146.40625 241.90429688 C147.15737916 243.17458143 147.90867786 244.44476576 148.66015625 245.71484375 C149.20048996 246.62851212 149.20048996 246.62851212 149.7517395 247.56063843 C152.94879851 252.94937324 156.24362404 258.27479464 159.56420898 263.58813477 C161 266 161 266 161 267 C139.55 267 118.1 267 96 267 C96 266.67 96 266.34 96 266 C109.86 266 123.72 266 138 266 C129.60065204 251.60111778 121.18862576 237.22545284 112.5 223 C106.73280839 213.55699949 101.07249285 204.05917523 95.5 194.5 C89.96472333 185.00630706 84.34907767 175.56859959 78.625 166.1875 C72.47204109 156.10311666 66.39601454 145.97623663 60.375 135.8125 C58.78393659 133.12755532 57.19278913 130.44266045 55.6015625 127.7578125 C55.21487396 127.10532532 54.82818542 126.45283813 54.42977905 125.78057861 C50.55220333 119.24013618 46.65679614 112.71053377 42.75 106.1875 C42.16653809 105.21079346 41.58307617 104.23408691 40.98193359 103.2277832 C37.58010431 97.55527476 34.08402867 91.95600041 30.48925781 86.40356445 C29 84 29 84 27.90917969 81.74682617 C26.68163487 79.38831835 25.41355012 79.07268894 23 78 C22.154375 77.360625 21.30875 76.72125 20.4375 76.0625 C12.87024256 70.99869615 2.85765312 69.80915035 -6 71 C-19.97267322 74.90540556 -26.75558662 83.29339409 -33.8125 95.4375 C-34.54426374 96.67200093 -35.27737077 97.90570644 -36.01171875 99.13867188 C-37.56086782 101.74522223 -39.10152027 104.35651771 -40.63525391 106.97216797 C-42.98610203 110.98082277 -45.35586091 114.97804081 -47.73046875 118.97265625 C-48.52386992 120.30760202 -49.31724552 121.64256299 -50.1105957 122.97753906 C-50.50429352 123.63999634 -50.89799133 124.30245361 -51.30361938 124.98498535 C-52.50641861 127.0108106 -53.70700082 129.03793435 -54.90698242 131.06542969 C-60.08532272 139.81063536 -65.33081851 148.51201614 -70.625 157.1875 C-76.34926459 166.56849072 -81.96445694 176.00646434 -87.5 185.5 C-93.3750616 195.57581482 -99.35208194 205.58153084 -105.42773438 215.53759766 C-111.19037915 224.98311569 -116.86515137 234.47773606 -122.5 244 C-128.44031263 254.03709549 -134.42854171 264.04167688 -140.5 274 C-146.19580053 283.34536168 -151.83069148 292.72429796 -157.41091919 302.13916016 C-158.61232948 304.1661229 -159.81471315 306.19250529 -161.01733398 308.21875 C-164.47840031 314.05181352 -167.93547373 319.88709004 -171.37524414 325.73274231 C-172.43620345 327.53342239 -173.50035083 329.3321704 -174.56591797 331.13012695 C-175.86905226 333.32958435 -177.16652262 335.53241022 -178.45751953 337.73901367 C-179.02970215 338.70170166 -179.60188477 339.66438965 -180.19140625 340.65625 C-180.68842041 341.49994141 -181.18543457 342.34363281 -181.69750977 343.21289062 C-182.12733154 343.80263672 -182.55715332 344.39238281 -183 345 C-183.66 345 -184.32 345 -185 345 C-189.57737701 336.98959023 -191.87150486 329.21356237 -190 320 C-188.24731171 316.18650505 -186.1350066 312.61013903 -184 309 C-183.40195557 307.96117676 -182.80391113 306.92235352 -182.18774414 305.85205078 C-180.20416109 302.4124089 -178.19921226 298.9857223 -176.1875 295.5625 C-175.82172852 294.93883545 -175.45595703 294.3151709 -175.07910156 293.67260742 C-169.29415861 283.81304165 -163.39917031 274.02451041 -157.4425354 264.26794434 C-151.99216537 255.33692274 -146.64920307 246.34861618 -141.375 237.3125 C-135.58511824 227.39344997 -129.73510575 217.51389283 -123.81079102 207.67431641 C-118.61035814 199.03226951 -113.4567558 190.36304648 -108.3125 181.6875 C-102.77785249 172.35466359 -97.23033864 163.03037305 -91.63598633 153.7331543 C-86.89266753 145.84069671 -82.1975627 137.91973734 -77.5 130 C-71.90282205 120.56357901 -66.29345737 111.13525866 -60.63671875 101.734375 C-55.89315846 93.84150884 -51.19780482 85.92014554 -46.5 78 C-40.90718015 68.57092644 -35.30235317 59.14984189 -29.64990234 49.75634766 C-23.55069183 39.60792143 -17.52093862 29.41797963 -11.48309326 19.23297119 C-10.71654097 17.94116702 -9.94902552 16.64993384 -9.18048096 15.35931396 C-7.49100433 12.52175079 -5.81526732 9.67925211 -4.16699219 6.81738281 C-3.63493164 5.90053711 -3.10287109 4.98369141 -2.5546875 4.0390625 C-2.10335449 3.24967285 -1.65202148 2.4602832 -1.18701172 1.64697266 C-0.79529785 1.10347168 -0.40358398 0.5599707 0 0 Z " fill="#00ACDA" transform="translate(214,63)"/>
<path d="M0 0 C9.52722237 -0.38886622 15.49076891 0.96240787 22.66357422 7.48486328 C26.8467549 11.98801139 29.48921982 17.2678446 32.3125 22.6875 C32.95938641 23.89530022 33.6083463 25.10199197 34.25927734 26.30761719 C35.56635905 28.7302548 36.86634731 31.15648053 38.16162109 33.58544922 C40.73064867 38.35708531 43.41585935 43.0569362 46.125 47.75 C47.10210667 49.45151054 48.07866885 51.15333387 49.0546875 52.85546875 C49.53776367 53.69770996 50.02083984 54.53995117 50.51855469 55.40771484 C53.11384873 59.94905171 55.68069872 64.50642376 58.25 69.0625 C63.45087964 78.28249119 68.6988073 87.47505755 73.96026611 96.66055298 C78.73283965 104.99553719 83.45034721 113.35961445 88.125 121.75 C92.6959036 129.95403639 97.36594778 138.09122779 102.125 146.1875 C107.11709941 154.68361597 111.92215341 163.26001694 116.60644531 171.92919922 C120.42168699 178.97866202 124.36487763 185.94640586 128.35986328 192.89526367 C132.28921968 199.73631517 136.1541153 206.61171478 140 213.5 C144.80077956 222.0944255 149.64473258 230.66197848 154.54003906 239.20288086 C158.13413615 245.47594438 161.69824804 251.76537491 165.25 258.0625 C170.44829643 267.27773327 175.69336539 276.46569829 180.95220947 285.64645386 C186.4687797 295.28059423 191.91777088 304.95037458 197.30834961 314.65576172 C200.3900919 320.18949693 203.56429323 325.63911455 206.91162109 331.01708984 C208 333 208 333 208 335 C105.04 335 2.08 335 -104 335 C-103.34 333.35 -102.68 331.7 -102 330 C-101.58025249 328.84700975 -101.16050497 327.69401951 -100.72803783 326.50609016 C-98.85689384 322.03093851 -96.8313298 317.23188683 -92.15519929 315.19734335 C-86.47074584 313.88966781 -80.63777114 314.22894459 -74.84692383 314.38232422 C-72.88655875 314.38295972 -70.92618328 314.37737031 -68.96585083 314.36604309 C-63.65198226 314.35239256 -58.34226956 314.42419202 -53.02921128 314.51028204 C-47.45800904 314.58474874 -41.88696414 314.57654322 -36.31535339 314.57620239 C-25.75513539 314.58734786 -15.1966381 314.66627965 -4.63699025 314.77251828 C14.25036543 314.95995139 33.1384408 315.02406317 52.02658826 315.07600224 C58.64846952 315.0967749 65.26946737 315.14421751 71.89100015 315.21479297 C76.02370434 315.25586317 80.15641106 315.28091714 84.28925705 315.30272484 C86.19475002 315.31647623 88.10020845 315.33722391 90.00553703 315.36578178 C106.60564835 315.60982461 119.4403685 313.65290107 132.18359375 302.00390625 C142.07754499 291.81070506 145.3468171 279.8523517 145.140625 265.96875 C144.43417771 251.05486281 135.04786217 238.22527366 127.67871094 225.72241211 C123.16257327 218.04722315 118.79877212 210.29876133 114.5 202.5 C109.71632477 193.82684074 104.8364372 185.22374727 99.8125 176.6875 C94.87940791 168.30453949 90.14768346 159.83792174 85.53173828 151.27685547 C81.33014279 143.5205966 76.89573094 135.91409593 72.421875 128.3125 C67.99769446 120.77106315 63.72290712 113.15572547 59.5 105.5 C54.79654571 96.97430774 50.00427746 88.51479037 45.0625 80.125 C39.52899638 70.72682719 34.22381458 61.21638595 28.98782349 51.65087891 C23.73491796 42.06045396 18.30684745 32.58885417 12.75732422 23.16601562 C8.28644103 15.55388965 4.04793905 7.84445332 0 0 Z " fill="#F8357F" transform="translate(275,55)"/>
</svg>
