<?xml version="1.0" encoding="UTF-8"?>
<svg version="1.1" xmlns="http://www.w3.org/2000/svg" width="512" height="512">
<path d="M0 0 C13.3258242 10.48343709 23.66307652 25.7451977 26.9296875 42.55078125 C29.11842575 61.72645268 27.29563722 78.58441616 17.37109375 95.41796875 C17.04109375 95.74796875 16.71109375 96.07796875 16.37109375 96.41796875 C17.44199501 96.42676811 17.44199501 96.42676811 18.53453064 96.43574524 C25.34300308 96.49423477 32.15120975 96.56661875 38.95937252 96.65368366 C42.45750966 96.69795373 45.95554184 96.7372976 49.45385742 96.7644043 C81.582593 97.02122208 107.40880154 100.69810952 132.37109375 122.41796875 C133.27214844 123.19333984 133.27214844 123.19333984 134.19140625 123.984375 C154.24035119 142.58793089 159.82173799 168.88970659 164.29760742 194.70849609 C164.67032014 196.82574448 165.04368545 198.94287807 165.41764832 201.05990601 C166.42419501 206.76900697 167.42153501 212.47968067 168.41704345 218.19071531 C169.46309546 224.18294823 170.51736528 230.17373537 171.57063293 236.16470337 C173.33647093 246.21554613 175.09678962 256.26734236 176.85327148 266.31982422 C179.10623796 279.21360027 181.36790147 292.10583444 183.63245678 304.99757957 C185.58312589 316.10255404 187.53030563 327.20813987 189.47666764 338.31386995 C190.10091279 341.87519962 190.72553992 345.43646216 191.35017967 348.99772263 C192.33142099 354.59363413 193.31049676 360.18992056 194.28790474 365.78650284 C194.64641835 367.83766961 195.00558412 369.88872252 195.36545563 371.93965149 C195.85717382 374.742767 196.34646354 377.54629596 196.83512878 380.34994507 C197.04845086 381.5613337 197.04845086 381.5613337 197.26608247 382.79719484 C202.04296092 410.31211349 198.44582817 436.82007975 182.5 460.15625 C180.55751188 462.6883499 178.51589016 465.05492989 176.37109375 467.41796875 C175.11425781 468.84882812 175.11425781 468.84882812 173.83203125 470.30859375 C159.07583036 486.46307942 137.79597925 496.91699618 115.9689945 498.69511878 C112.45127799 498.80298852 108.94502005 498.82304187 105.42570496 498.8056488 C104.08104855 498.80983415 102.73639568 498.81531818 101.3917492 498.82196862 C97.73921536 498.83628489 94.0869098 498.83222241 90.4343642 498.8248018 C86.47853535 498.82003774 82.52275364 498.83260841 78.56694031 498.84281921 C70.83341146 498.85994995 63.09996407 498.86085912 55.36642119 498.85560631 C49.07541677 498.85155243 42.78443629 498.85302258 36.493433 498.85835457 C35.59547038 498.85910299 34.69750777 498.85985141 33.77233416 498.86062251 C31.94767107 498.86215411 30.12300797 498.86369246 28.29834489 498.86523748 C11.21544487 498.87894198 -5.86740927 498.87353943 -22.95030823 498.86205227 C-38.5481741 498.8521235 -54.14592128 498.86505806 -69.74376885 498.88898646 C-85.7938726 498.91342146 -101.84392118 498.92297445 -117.89404315 498.91633373 C-126.89124325 498.91285109 -135.88835215 498.91501013 -144.8855381 498.93258476 C-152.54505134 498.94736198 -160.20440916 498.94787058 -167.86391953 498.93051385 C-171.76485849 498.92204637 -175.66552045 498.91974887 -179.5664444 498.93516541 C-211.29982476 499.0514747 -235.87466525 494.09247152 -259.62890625 471.41796875 C-260.54929687 470.60972656 -260.54929687 470.60972656 -261.48828125 469.78515625 C-275.5505014 456.94854245 -285.23848893 434.88980192 -286.51089573 416.02341843 C-287.06183698 403.85967496 -286.20907391 392.61794736 -284.10571289 380.66308594 C-283.83331409 379.05788099 -283.56200217 377.45249129 -283.29168034 375.84693527 C-282.5684629 371.57365193 -281.82846263 367.30345029 -281.08389139 363.03384209 C-280.48178449 359.57211278 -279.88820363 356.108944 -279.2944625 352.64577174 C-277.22656843 340.5905661 -275.11589277 328.54295097 -273 316.49609375 C-272.64407767 314.46787825 -272.2881878 312.43965704 -271.93232918 310.41143036 C-270.26416079 300.90541785 -268.59373017 291.39980655 -266.92030281 281.89471841 C-265.00762052 271.03023608 -263.10313174 260.16435727 -261.20531219 249.29726911 C-259.72155113 240.80424406 -258.23026018 232.31256195 -256.73341423 223.82183337 C-255.84606799 218.78740604 -254.96181315 213.75248589 -254.08563042 208.7161026 C-253.26432077 203.99619806 -252.43357588 199.27804634 -251.59593201 194.56101418 C-251.2930807 192.84650909 -250.99345707 191.13142969 -250.69757271 189.41570854 C-245.59160381 159.84758525 -235.73973252 133.01183711 -210.50390625 114.85546875 C-191.73011219 102.06906665 -171.81389449 97.21157877 -149.33203125 97.00390625 C-148.01724792 96.9845401 -146.7024646 96.96517395 -145.34783936 96.94522095 C-141.8956981 96.89447381 -138.44351842 96.85454594 -134.99121094 96.81707764 C-131.45107983 96.77667219 -127.91110051 96.72574905 -124.37109375 96.67578125 C-117.45714289 96.5797046 -110.54309392 96.49508758 -103.62890625 96.41796875 C-103.97189758 95.88596863 -104.31488892 95.35396851 -104.66827393 94.80584717 C-105.1183783 94.09873596 -105.56848267 93.39162476 -106.03222656 92.66308594 C-106.70140106 91.61758575 -106.70140106 91.61758575 -107.38409424 90.55096436 C-109.22281668 87.40029836 -110.31995781 84.14330959 -111.37890625 80.66796875 C-111.58644531 80.02214844 -111.79398438 79.37632813 -112.0078125 78.7109375 C-117.81102877 60.47760639 -115.7238014 40.32303946 -107.08691406 23.37304688 C-97.47566795 5.68835402 -81.78931978 -6.43653142 -62.5534668 -12.2043457 C-41.00339059 -17.65053651 -17.78699946 -13.15328814 0 0 Z M-74.37890625 31.10546875 C-82.57401771 40.9967777 -84.57274864 51.92202724 -83.62890625 64.41796875 C-81.13332029 75.54115189 -74.81604673 84.76162546 -65.62890625 91.41796875 C-56.25783192 97.25210063 -45.83243115 98.86208038 -34.98828125 96.953125 C-24.45459741 94.15408008 -15.89092079 88.35177616 -9.62890625 79.41796875 C-4.02635232 69.13268318 -1.68902015 59.06431822 -4.3125 47.37109375 C-7.96980392 36.62681501 -14.29427193 27.34469392 -24.4453125 21.91015625 C-42.2060589 13.63284435 -60.71645643 16.70689555 -74.37890625 31.10546875 Z M-201.62890625 149.41796875 C-209.35259829 158.54842781 -214.01635887 167.82932535 -216.53559875 179.49887085 C-216.70693244 180.28278588 -216.87826613 181.0667009 -217.05479175 181.87437093 C-219.06493567 191.22666922 -220.72158959 200.63994398 -222.37182617 210.06103516 C-222.72513295 212.0605961 -223.07878609 214.06009587 -223.43275452 216.05953979 C-224.38247616 221.43010326 -225.32727034 226.80152237 -226.27099776 232.17314196 C-227.26348669 237.81791218 -228.26024531 243.46192858 -229.25642395 249.10604858 C-230.92587196 258.56843008 -232.59224393 268.03134908 -234.2565918 277.49462891 C-236.17870273 288.42338203 -238.10502121 299.35138685 -240.03372115 310.27897894 C-242.09326616 321.94815715 -244.1497706 333.6178697 -246.20537782 345.28774214 C-246.79596148 348.63934693 -247.38710984 351.99085171 -247.97838402 355.34233475 C-248.90697966 360.60672414 -249.83353311 365.87146908 -250.75852013 371.13649368 C-251.09766485 373.06511342 -251.43747882 374.99361561 -251.77801895 376.92198944 C-252.24348514 379.55848101 -252.70648416 382.19539452 -253.16886902 384.83242798 C-253.30330184 385.59060054 -253.43773466 386.34877311 -253.5762412 387.1299206 C-256.80739833 405.63440771 -256.11251368 423.18090035 -245.62109375 439.55078125 C-234.84338759 454.53442152 -220.99775284 464.25242344 -202.62890625 467.41796875 C-200.78306809 467.50789097 -198.93447359 467.54873426 -197.08644962 467.55218983 C-195.97740837 467.55664767 -194.86836712 467.56110551 -193.72571856 467.56569844 C-192.51251088 467.56551408 -191.29930321 467.56532972 -190.04933167 467.56513977 C-188.10988588 467.5706548 -188.10988588 467.5706548 -186.13125938 467.57628125 C-182.54388269 467.58628083 -178.95652272 467.59001476 -175.36913407 467.59267056 C-171.49910851 467.59657976 -167.62909611 467.60615776 -163.75907898 467.61488342 C-154.41285186 467.63463189 -145.06662369 467.64471263 -135.72038093 467.65361121 C-131.31551363 467.65799733 -126.91064753 467.66336335 -122.50578117 467.66860008 C-107.85634517 467.68561181 -93.20690991 467.70010452 -78.55746555 467.70734882 C-74.75714174 467.70925862 -70.95681793 467.71117897 -67.15649414 467.71313477 C-65.73972067 467.71386038 -65.73972067 467.71386038 -64.29432552 467.71460065 C-49.00426219 467.72289551 -33.71427724 467.7482235 -18.42424811 467.78071544 C-2.71458825 467.81382599 12.99503183 467.83180125 28.70472676 467.83499306 C37.52033255 467.83715461 46.33582409 467.84585099 55.1513958 467.87145424 C62.66151323 467.893216 70.17148867 467.90118488 77.68163406 467.89148746 C81.5092429 467.88695836 85.3365591 467.88874711 89.16412735 467.9082489 C93.32584363 467.92926875 97.48691772 467.9188452 101.64866638 467.90571594 C103.43836315 467.92216981 103.43836315 467.92216981 105.26421541 467.93895608 C122.61285689 467.80750762 137.73995204 461.1874186 150.37109375 449.41796875 C161.99534155 437.15138284 168.62187481 421.19959608 168.53590012 404.2722168 C168.17316276 397.99004204 166.93044201 391.79696024 165.85009766 385.60546875 C165.57825616 384.01580355 165.30699909 382.42603832 165.03627968 380.83618164 C164.30748457 376.56986818 163.56873972 372.30533915 162.8269968 368.04125977 C162.37603687 365.44641173 161.92720859 362.85120438 161.47911835 360.25585938 C159.24268849 347.3062198 156.97873576 334.36146128 154.70703125 321.41796875 C154.53133873 320.41664791 154.35564622 319.41532707 154.17462969 318.38366318 C152.51076931 308.90134291 150.84573877 299.4192289 149.17755699 289.93766785 C147.06765744 277.94510618 144.96403582 265.9514797 142.86865079 253.95637321 C141.37934629 245.43380517 139.88301985 236.91248788 138.38151324 228.39206123 C137.49049484 223.33482797 136.6024799 218.27711254 135.72208786 213.21801758 C134.89774038 208.48183257 134.06465593 203.74726548 133.22501183 199.01376915 C132.92032277 197.28745489 132.61871165 195.56059384 132.32055473 193.83313942 C128.53730572 171.94057129 121.91567447 152.92584822 103.18359375 139.41796875 C89.85401697 130.78308568 76.4294242 128.25570513 60.72052002 128.28425598 C59.79095261 128.28199042 58.86138521 128.27972487 57.90364909 128.27739066 C54.81107869 128.2710968 51.71855263 128.27187704 48.62597656 128.27270508 C46.39946435 128.2697107 44.17295266 128.26630753 41.94644165 128.26252747 C35.91323351 128.25371154 29.88003956 128.25135036 23.8468256 128.25071168 C20.07318284 128.2499998 16.29954366 128.24786288 12.52590179 128.24521446 C0.0279704 128.2364456 -12.46995295 128.23179376 -24.96788678 128.23254494 C-25.64041773 128.23258489 -26.31294869 128.23262485 -27.00585938 128.23266602 C-27.67921999 128.2327069 -28.35258061 128.23274778 -29.0463461 128.2327899 C-39.95250309 128.23319612 -50.85862551 128.22363037 -61.7647725 128.20952765 C-72.98727508 128.1951314 -84.20976136 128.18844199 -95.43227506 128.18912143 C-101.72314328 128.18937581 -108.01397237 128.18655736 -114.30483246 128.17594337 C-120.22445205 128.16622797 -126.14399535 128.16620678 -132.06361771 128.17346001 C-134.22866808 128.17450158 -136.39372329 128.17216853 -138.55876541 128.16609955 C-163.10704686 128.10177653 -183.75268116 130.83956788 -201.62890625 149.41796875 Z " fill="#000000" transform="translate(299.62890625,13.58203125)"/>
<path d="M0 0 C4.44293338 3.80822861 7.3835092 7.02445267 8.1875 12.875 C8.33313628 15.29609498 8.43406568 17.72006572 8.50390625 20.14453125 C8.52468735 20.82553391 8.54546844 21.50653656 8.56687927 22.20817566 C8.63187878 24.36785508 8.69102712 26.52764846 8.75 28.6875 C8.7932325 30.15821456 8.83684825 31.62891791 8.88085938 33.09960938 C8.98750859 36.69128717 9.08891349 40.28309082 9.1875 43.875 C11.54602656 41.54604031 13.89846674 39.2110189 16.25 36.875 C17.23516602 35.90240234 17.23516602 35.90240234 18.24023438 34.91015625 C21.46100894 31.70524757 24.58509846 28.47020114 27.546875 25.0234375 C31.92220571 19.95184827 36.64241872 15.23605856 41.375 10.5 C42.26380859 9.59894531 43.15261719 8.69789063 44.06835938 7.76953125 C44.92623047 6.90972656 45.78410156 6.04992187 46.66796875 5.1640625 C47.44035889 4.38756348 48.21274902 3.61106445 49.00854492 2.81103516 C53.63180984 -1.29680695 57.46274545 -1.57016755 63.49609375 -1.43359375 C68.03362094 -0.91332576 70.60153719 0.91119025 73.43359375 4.41796875 C76.43429391 8.95535965 76.78367502 12.50942483 76.1875 17.875 C74.52688984 22.66146459 71.7368037 25.54553801 68.14038086 28.95239258 C66.37521804 30.69019195 64.7922495 32.47000942 63.203125 34.3671875 C60.11146606 37.93518239 56.82357481 41.26112984 53.4375 44.546875 C52.93067688 45.04107941 52.42385376 45.53528381 51.90167236 46.04446411 C49.79288841 48.09912253 47.68266349 50.15174509 45.55419922 52.18603516 C43.98307006 53.69089191 42.42807321 55.21092082 40.875 56.734375 C39.95074219 57.62608398 39.02648437 58.51779297 38.07421875 59.43652344 C35.94194596 61.65073069 35.94194596 61.65073069 36.28076172 64.06640625 C37.54867665 66.59540835 39.25640251 68.18738949 41.3125 70.125 C44.16612714 72.830515 46.83333203 75.59228285 49.38671875 78.578125 C54.37138012 84.34147131 59.91651207 89.55026747 65.42382812 94.80859375 C71.10452193 100.36765494 75.52539589 105.24027122 76.6875 113.375 C75.96408636 118.43889549 74.51429209 122.72301872 70.6796875 126.26953125 C66.21136429 129.21031141 61.41715637 129.85721972 56.1875 128.875 C50.71494475 126.74010207 47.25020651 123.32852786 43.25 119.1875 C42.66798828 118.60033203 42.08597656 118.01316406 41.48632812 117.40820312 C38.51408188 114.38329249 35.66008076 111.29240265 32.8984375 108.07421875 C28.43748234 102.92292969 23.5886861 98.16839962 18.75 93.375 C17.82767578 92.4571875 16.90535156 91.539375 15.95507812 90.59375 C13.70150101 88.35184945 11.44560925 86.112334 9.1875 83.875 C9.17291748 84.7721875 9.15833496 85.669375 9.14331055 86.59375 C9.0818692 89.956307 9.0076487 93.31809703 8.92504883 96.68017578 C8.89201197 98.12896281 8.86391545 99.57787199 8.84106445 101.02685547 C8.54636546 119.22295084 8.54636546 119.22295084 3.7722168 124.41381836 C-0.53343063 128.21401157 -4.05937149 129.18388194 -9.75390625 129.08984375 C-14.19017285 128.62685577 -17.01660776 126.69300036 -20.0625 123.5625 C-23.98425188 117.53980961 -24.10185299 111.89631157 -24.07128906 104.94165039 C-24.0747937 103.95715408 -24.07829834 102.97265778 -24.08190918 101.95832825 C-24.09069135 98.71303192 -24.08488921 95.46795469 -24.078125 92.22265625 C-24.07947277 89.96113544 -24.08141423 87.69961491 -24.08392334 85.43809509 C-24.08686994 80.70129637 -24.08259222 75.96457314 -24.07324219 71.2277832 C-24.06185453 65.16395835 -24.06840581 59.10031069 -24.08038712 53.03649235 C-24.08762377 48.36700614 -24.08530936 43.69756175 -24.08013153 39.02807426 C-24.07879969 36.79261695 -24.0804264 34.5571558 -24.08509064 32.32170296 C-24.09018474 29.19361484 -24.08240466 26.06581115 -24.07128906 22.93774414 C-24.07533752 22.01856201 -24.07938599 21.09937988 -24.08355713 20.15234375 C-24.04097996 13.66575077 -23.77885443 8.20357761 -19.4375 3.0625 C-13.66029195 -1.75184004 -7.09947076 -2.8397883 0 0 Z " fill="#000000" transform="translate(172.8125,248.125)"/>
<path d="M0 0 C1.26239502 0.00737183 1.26239502 0.00737183 2.55029297 0.01489258 C8.67985558 0.13051114 14.05414038 0.74526785 19.6875 3.3125 C20.42742187 3.64121094 21.16734375 3.96992188 21.9296875 4.30859375 C29.83976475 8.26363237 37.59922395 14.36307434 41.6875 22.3125 C43.05814909 28.38251741 42.84492989 31.73437386 39.6875 37.3125 C36.42149426 41.28466914 33.76074992 43.31774511 28.6875 44.3125 C21.56685417 44.3125 17.98802483 41.86230672 12.6875 37.3125 C7.77374043 33.27229769 4.43465404 31.87341769 -1.8984375 31.9765625 C-6.08172152 32.55870235 -9.3763345 34.2945997 -12.3125 37.3125 C-15.9719521 43.00050684 -16.91061662 47.88515238 -16.84375 54.5625 C-16.84949036 55.84882324 -16.84949036 55.84882324 -16.85534668 57.16113281 C-16.85805229 58.96290266 -16.8507864 60.76471271 -16.83398438 62.56640625 C-16.81255407 65.3055884 -16.83383101 68.04214827 -16.859375 70.78125 C-16.85673148 72.54167239 -16.85160601 74.30209316 -16.84375 76.0625 C-16.85184692 76.87106445 -16.85994385 77.67962891 -16.86828613 78.51269531 C-16.77571714 84.19814704 -15.49373397 88.5582741 -12.3125 93.3125 C-8.22703947 97.10614192 -4.27674683 98.13290909 1.15625 98.4765625 C6.66126739 98.11975582 10.39662013 95.66957884 14.125 91.75 C15.81933285 89.32657924 15.81933285 89.32657924 16.6875 86.3125 C15.90246094 86.23773438 15.11742187 86.16296875 14.30859375 86.0859375 C7.25242007 85.20283355 2.24655198 84.0181399 -2.3125 78.3125 C-5.04189833 73.84956489 -4.95648448 69.39997736 -4.3125 64.3125 C-1.96457342 59.4360371 0.97510854 56.90912386 5.6875 54.3125 C11.25909823 52.90077356 16.85156732 53.12843618 22.5625 53.125 C24.15771484 53.10663086 24.15771484 53.10663086 25.78515625 53.08789062 C39.09203293 53.0630952 39.09203293 53.0630952 44.5 57.75 C51.1092233 65.492233 50.14601996 74.64277016 49.6875 84.3125 C48.30704218 98.3617163 42.39645532 111.08196075 31.375 120.1875 C19.52751497 128.7054332 7.08424903 131.4578607 -7.3125 130.3125 C-20.58287032 127.81964078 -32.49450737 120.76071013 -40.1875 109.58984375 C-46.41817326 99.52990254 -48.78238094 89.96767387 -48.74609375 78.1953125 C-48.7513356 77.17629852 -48.75657745 76.15728455 -48.76197815 75.10739136 C-48.76835493 72.96792505 -48.76711829 70.82842348 -48.75854492 68.68896484 C-48.7500385 65.45215137 -48.77885365 62.21710855 -48.81054688 58.98046875 C-48.86402548 43.41714639 -47.31911144 31.45126559 -38.3125 18.3125 C-37.735 17.425625 -37.1575 16.53875 -36.5625 15.625 C-26.70722134 5.4959636 -14.0303501 -0.09651986 0 0 Z " fill="#000000" transform="translate(313.3125,246.6875)"/>
</svg>
